<svg id="Layer_1" data-name="Layer 1" xmlns="http://www.w3.org/2000/svg" viewBox="0 0 913.98 318.62"><path d="M781.64,468.44c-.69.47-21.78,14.79-30.29,55.86v0a46.65,46.65,0,0,0-1.68,11.39h0V567.5c-20.21,6.25-40.71,16.72-54.34,34.22-13.58-17.42-34-27.88-54.09-34.14V535.71h0c.14-4.75-1.57-11-1.67-11.39,0,0,0,0,0,0-4.26-20.54-11.65-34.38-18.07-43.16s-11.87-12.46-12.21-12.7c46.67,17.86,57,79.54,57.63,83.34-7.33-75.9-38.49-101.25-39.57-102.12,51.74,31.17,63,79.65,64.08,84.76-10.31-65.58-43.83-98.92-43.83-98.92,29.77,8.56,44.65,40.75,44.65,40.75-2.05-29-19.54-49.13-19.54-49.13,11.12-1.49,20.8,12.33,22.77,15.34,2-3,11.64-16.83,22.76-15.34,0,0-17.49,20.1-19.53,49.13,0,0,14.87-32.19,44.65-40.75,0,0-33.53,33.34-43.84,98.92,1.08-5.11,12.35-53.59,64.09-84.76-1.09.87-32.25,26.22-39.58,102.12C724.6,548,735,486.3,781.64,468.44ZM814.94,383H576a37.53,37.53,0,0,0-37.53,37.53V614.77c23.13-8,79.7-24.68,126.3-16.34,0,0-17.64-15.56-97.5-7.09l-1.74,11.06-11.75-14.87S612,567.85,669.56,590c-.32-.27-10.77-9.13-32.16-15.8-.9-.29-1.82-.56-2.77-.84a171.33,171.33,0,0,0-41.3-6.36l-1.73,7.95-16.08-16.59a226,226,0,0,1,59.11,7.35V530s-.87-26.49-46.18-33.11a23.25,23.25,0,0,1,1.65-5.67,114.64,114.64,0,0,1,210.7,0,23.78,23.78,0,0,1,1.65,5.67C757.13,503.47,756.27,530,756.27,530V565.6a226.31,226.31,0,0,1,58.85-7.28L799,574.91,797.31,567a171.37,171.37,0,0,0-41,6.29c-1,.3-2,.6-3,.91-21.39,6.67-31.84,15.53-32.16,15.8,57.57-22.11,115.82-2.43,115.82-2.43L825.14,602.4l-1.73-11.06c-79.86-8.47-97.49,7.09-97.49,7.09,46.77-8.38,103.6,8.51,126.55,16.44V420.51A37.53,37.53,0,0,0,814.94,383Zm27,250.24,5.19-14.39c-25.07-10.38-65.35-15.91-65.35-15.91-32-4-86.43,2.77-86.43,2.77s-54.46-6.75-86.43-2.77c0,0-40.28,5.53-65.35,15.91l5.18,14.39-10.29-7.17v12.79a516.74,516.74,0,0,1,55.29-17.42c18.73-5.81,53-10.29,70.47-12.21,6.73-.74,11-1.1,11-1a.19.19,0,0,0,0,.08s0,0,0,.06c-.06.65-.21,2.9-.21,2.9a20,20,0,0,0,10.55,17.62,19.73,19.73,0,0,0,7.4,2.27h0a19.3,19.3,0,0,0,2,.1,20,20,0,0,0,20-20s-.15-2.24-.21-2.91a1.25,1.25,0,0,1,0-.15l1.37.19h.07l.64,0,.25,0,.34,0,.78.07.41,0h.05l.48,0,.83.08,1.6.16.47,0,.68.07,2.2.23,1,.11.55.06c17.44,1.91,51.89,6.41,70.72,12.24A518.63,518.63,0,0,1,852.47,639V625.87ZM814,636.08h0c-.59-.17-6.92-2-7.5-2.13,0,0,0,0,0,0-6.78-1.63-14.71-3.47-15.27-3.6h0c-10.48-2.27-31.58-6.67-43.67-7.91h-.06l-.26,0H747l-.34,0h-.07l-.54,0-.61,0c-2.72-.23-7.49-.53-9.8-.15h0c-.42,0-.86.1-1.31.16s-1.09.19-1.66.31l-.1,0a20,20,0,0,0-6.24,2.51,16.7,16.7,0,0,0-4.47,4l-.5.66-.14.18-.09.1-.11.1-.58.56-.51.5h0A31.25,31.25,0,0,1,669.78,630l-.37-.54c-3.91-5.43-9.84-7.08-14.14-7.5h0c-2.31-.38-7.07-.08-9.8.14l-.61.06-.54,0h-.06l-.34,0h-.16l-.26,0h-.06c-12.1,1.24-33.19,5.63-43.67,7.9h0c-.56.13-8.5,2-15.27,3.6h0c-.58.15-6.92,2-7.51,2.13h0c-12.35,4.05-27.37,10-38.44,14.56v9A37.53,37.53,0,0,0,576,697h239a37.53,37.53,0,0,0,37.53-37.53v-8.84C841.4,646.09,826.38,640.13,814,636.08Z" transform="translate(-538.43 -382.98)"/><text transform="translate(371.43 243.75)" font-size="244.17" font-family="CenturyGothic-Bold, Century Gothic" font-weight="700">FS<tspan x="244.17" y="0" font-size="221.97" font-family="CenturyGothic-Italic, Century Gothic" font-weight="400" font-style="italic">Lib</tspan></text></svg>