<svg id="Layer_1" data-name="Layer 1" xmlns="http://www.w3.org/2000/svg" viewBox="0 0 549.52 438.97"><path d="M2107.23,1141.56V910c-9.73,18.49-51.33,36-88.31,20.19-20.53-8.78-39.57-23.37-59.51-38.25l-5.07.95-23.12,4.49a1.7,1.7,0,0,1-2-1.2l-7.84-27a1.69,1.69,0,0,1,.18-1.37,1.67,1.67,0,0,1,1.14-.79l.68-.13c-20.69-12.67-43.46-22.71-70.36-25.39,3.71,7.19,4.86,16.72,18.51,26.31,6.5,4.57,13.67,7.69,18.56,13.84,6.86,8.61,4.27,19-2,25.87-8.39,9.29-17.05,12.44-25.22,11.93.27,14.08-.63,28.11-1.05,35.21,0,0,0,.07,0,.11,1.64,11.67-.39,35.37-10.81,40.66-.37.19-.75.37-1.13.54H1883c-2.79-5.69-12.12-26.27-3.58-31,6.58-3.68,9.72,9.76,9.72,9.76s-.24-34.34,12-34.32c6.6,0,8.47,31.48,8.47,31.48s5.58-11.47,11.77-5.31c5.76,5.73-1.26,28.59-2.26,31.72l.2.24c1.68-.57,9.72-2.68,8.41,9.5,0,.5-.13,1.06-.22,1.68a11.07,11.07,0,0,1,4.51-3.09,2.68,2.68,0,0,1,.35-.1l.35-.08a6.53,6.53,0,0,1,.72-.1,4.25,4.25,0,0,1,4.73,2.43c0,.09.08.19.13.28a5.42,5.42,0,0,1,.22.56c.07.22.14.45.2.68s.08.31.11.47a.5.5,0,0,0,0,.12,16.26,16.26,0,0,1,.19,4.05c0,.1,0,.2,0,.3s0,.37,0,.54,0,.47-.08.65,0,.33-.06.43l0,.15s8.94-30.86,21-27.88c7.87,1.94.72,14,.42,14.48.81-.81,25.82-26.16,35.45-17.34,5.26,4.81-17,30.13-17,30.13s13.09-4.67,13.4,4.51c.2,6-11,13.89-18.82,18.61a.7.7,0,0,1,.21.11,2.85,2.85,0,0,1,.6.43c6.39,5.85-.53,11.49-.53,11.49s23-4.07,26.29,3.48c5.06,11.59-32.76,17.9-32.76,17.9s15.85,1.1,12.17,8.37c-.51,1-1.73,1.86-3.51,2.54h74.29a2.3,2.3,0,0,1,2.12,2.45c0,1.36-.95,2.46-2.38.81H1618.69c-.55,0-1-.73-1-1.62s.45-1.64,1-1.64h134.7l.13-.16a20,20,0,0,0,2.07-2.93l.36-.64q.19-.34.36-.69c.21-.42.4-.84.58-1.27.08-.19.16-.39.23-.58s.2-.51.28-.77.15-.46.22-.68c.14-.46.27-.92.37-1.39.06-.23.11-.46.15-.7s.09-.47.13-.7a.28.28,0,0,0,0-.09c.09-.52.15-1,.2-1.57,0-.34,0-.69.06-1s0-.57,0-.86c0-.67,0-1.34-.09-2s-.11-1-.2-1.56a2.33,2.33,0,0,0-.06-.35c0-.28-.11-.57-.17-.85s-.14-.59-.22-.89a.29.29,0,0,0,0-.1c-.07-.29-.16-.58-.25-.86s-.18-.55-.28-.82-.27-.73-.42-1.09-.23-.52-.36-.78l-10.27,8.2c-.88.59-1.62.08-1.66-.56-.09-1.32,2.64-6.85,4.5-10.54l0,0c.28-1.12,3-10.24,3.15-15.22.27-7.87-1.19-15.09-1.85-20.45-.32,0-.61-.11-.88-.17-.65-23.89-1-66.27,6.94-70.49,1.47-.78,4.19-1.16,7.59-1.27l-19-1.7a4.1,4.1,0,0,1-3.37-4.69s0-.05,0-.08l-4.29-54.8c-17.71,24.32-27.53,54.14-39.3,80.13l4.81,1.92a2.25,2.25,0,0,1,1.26,2.92L1695,996.58a2.25,2.25,0,0,1-2.92,1.26l-7.75-3.09c-5.79,8.89-12.45,16.61-20.64,22.57-61.4,44.7-89.28,84.37-98.09,125h0v0c-5.18,15-7.05,42.75-7.78,66h549.52v-66.87ZM1970.79,942.87c-1.13,9.48-13.93,16.85-25.36,11-15.36-7.89-9.29-27.94,1.64-29.49,9.69-1.37,12.19,5.17,12.64,6.69a9.31,9.31,0,0,1,3.31-3.36,12.31,12.31,0,0,1,6.42-1.64l-.42,2.76a10.21,10.21,0,0,0-4.77,0,8.28,8.28,0,0,0-4.21,2.56C1961.77,931.77,1971.82,934.2,1970.79,942.87Zm-275.41,91.92c.6-.87,1.18-1.74,1.76-2.62a136.08,136.08,0,0,0,7.41-12.84l1.57-3.67,0-.06h0c.44-.62,3.52.77,6.88,3.12s5.76,4.78,5.32,5.41c0,0,0,0,0,0l0,0-3.34,3.18a89.12,89.12,0,0,0-9.4,10.5l8.77-.31-2.46,2.09,1.47,2.67-8.53-2.18a3.42,3.42,0,0,1-1.15,1.37l3,5.27-2.6-1-1,2-1.22-4.76a91,91,0,0,0-6.14,11l-.52,1.1s-8.86.78-10.09-7.22A135,135,0,0,0,1695.38,1034.79Zm-26.92-14.21,3.41,1,2.29-5.3,5.18.92,2.36-3.69,1.87,1.19-3.16,4.94-4.91-.87-2.38,5.51-5.13-1.57Z" transform="translate(-1557.85 -769.46)" fill="#e5ffed"/><polygon points="115.27 254.86 110.14 253.29 110.61 251.12 114.02 252.16 116.31 246.86 121.49 247.78 123.85 244.09 125.72 245.28 122.56 250.22 117.65 249.35 115.27 254.86" fill="#e5ffed"/><path d="M1697.14,1032.17a136.08,136.08,0,0,0,7.41-12.84l1.57-3.67,0-.06h0c.44-.62,3.52.77,6.88,3.12s5.76,4.78,5.32,5.41c0,0,0,0,0,0l0,0-3.34,3.18a89.12,89.12,0,0,0-9.4,10.5l8.77-.31-2.46,2.09,1.47,2.67-8.53-2.18a3.42,3.42,0,0,1-1.15,1.37l3,5.27-2.6-1-1,2-1.22-4.76a91,91,0,0,0-6.14,11l-.52,1.1s-8.86.78-10.09-7.22a135,135,0,0,0,10.27-13.11C1696,1033.92,1696.56,1033.05,1697.14,1032.17Z" transform="translate(-1557.85 -769.46)" fill="#e5ffed"/><path d="M1692.12,997.84l-7.75-3.09a193.22,193.22,0,0,0,13.74-25.92l4.81,1.92a2.25,2.25,0,0,1,1.26,2.92L1695,996.58A2.25,2.25,0,0,1,1692.12,997.84Z" transform="translate(-1557.85 -769.46)" fill="#e5ffed"/><path d="M1921.41,869.24a1.69,1.69,0,0,1,.18-1.37,1.67,1.67,0,0,1,1.14-.79l.68-.13.47.29c12.42,7.64,24.1,16.22,35.48,24.71l.05,0-5.07.95-23.12,4.49a1.7,1.7,0,0,1-2-1.2Z" transform="translate(-1557.85 -769.46)" fill="#e5ffed"/><path d="M1959.71,931.06a9.31,9.31,0,0,1,3.31-3.36,12.31,12.31,0,0,1,6.42-1.64l-.42,2.76a10.21,10.21,0,0,0-4.77,0,8.28,8.28,0,0,0-4.21,2.56c1.73.35,11.78,2.78,10.75,11.45-1.13,9.48-13.93,16.85-25.36,11-15.36-7.89-9.29-27.94,1.64-29.49C1956.76,923,1959.26,929.54,1959.71,931.06Z" transform="translate(-1557.85 -769.46)" fill="#e5ffed"/><path d="M2052.31,1086.3c0,1.36-.95,2.46-2.38.81H1618.69c-.55,0-1-.73-1-1.62s.45-1.64,1-1.64h134.7l.13-.16a20,20,0,0,0,2.07-2.93l.36-.64q.19-.34.36-.69c.21-.42.4-.84.58-1.27.08-.19.16-.39.23-.58s.2-.51.28-.77.15-.46.22-.68c.14-.46.27-.92.37-1.39.06-.23.11-.46.15-.7s.09-.47.13-.7a.28.28,0,0,0,0-.09c.09-.52.15-1,.2-1.57,0-.34,0-.69.06-1s0-.57,0-.86c0-.67,0-1.34-.09-2s-.11-1-.2-1.56a2.33,2.33,0,0,0-.06-.35c0-.28-.11-.57-.17-.85s-.14-.59-.22-.89a.29.29,0,0,0,0-.1c-.07-.29-.16-.58-.25-.86s-.18-.55-.28-.82-.27-.73-.42-1.09-.23-.52-.36-.78l-10.27,8.2c-.88.59-1.62.08-1.66-.56-.09-1.32,2.64-6.85,4.5-10.54l0,0c.28-1.12,3-10.24,3.15-15.22.27-7.87-1.19-15.09-1.85-20.45-.32,0-.61-.11-.88-.17-.65-23.89-1-66.27,6.94-70.49,1.47-.78,4.19-1.16,7.59-1.27l-19-1.7a4.1,4.1,0,0,1-3.37-4.69s0-.05,0-.08l-4.29-54.8c.89-1.22,1.79-2.42,2.72-3.61.55-.7,1.1-1.4,1.67-2.09.19-.25.4-.49.6-.73,17.12-20.72,41.22-36.41,79.25-40.47,1.5-.16,3-.31,4.56-.42.81-.07,1.63-.14,2.46-.19,3.64-.24,7.2-.35,10.7-.34q2.93,0,5.79.15c1.41,0,2.8.14,4.18.24s2.48.19,3.71.32c3.71,7.19,4.86,16.72,18.51,26.31,6.5,4.57,13.67,7.69,18.56,13.84,6.86,8.61,4.27,19-2,25.87-8.39,9.29-17.05,12.44-25.22,11.93.27,14.08-.63,28.11-1.05,35.21,0,0,0,.07,0,.11,1.64,11.67-.39,35.37-10.81,40.66-.37.19-.75.37-1.13.54H1883c-2.79-5.69-12.12-26.27-3.58-31,6.58-3.68,9.72,9.76,9.72,9.76s-.24-34.34,12-34.32c6.6,0,8.47,31.48,8.47,31.48s5.58-11.47,11.77-5.31c5.76,5.73-1.26,28.59-2.26,31.72l.2.24c1.68-.57,9.72-2.68,8.41,9.5,0,.5-.13,1.06-.22,1.68a11.07,11.07,0,0,1,4.51-3.09l.35-.1.35-.08a6.53,6.53,0,0,1,.72-.1,4.25,4.25,0,0,1,4.73,2.43c0,.09.08.19.13.28a5.42,5.42,0,0,1,.22.56c.07.22.14.45.2.68s.08.31.11.47a.5.5,0,0,0,0,.12,16.26,16.26,0,0,1,.19,4.05c0,.1,0,.2,0,.3s0,.37,0,.54,0,.47-.08.65,0,.33-.06.43l0,.15s8.94-30.86,21-27.88c7.87,1.94.72,14,.42,14.48.81-.81,25.82-26.16,35.45-17.34,5.26,4.81-17,30.13-17,30.13s13.09-4.67,13.4,4.51c.2,6-11,13.89-18.82,18.61a.7.7,0,0,1,.21.11,2.85,2.85,0,0,1,.6.43c6.39,5.85-.53,11.49-.53,11.49s23-4.07,26.29,3.48c5.06,11.59-32.76,17.9-32.76,17.9s15.85,1.1,12.17,8.37c-.51,1-1.73,1.86-3.51,2.54h74.29A2.3,2.3,0,0,1,2052.31,1086.3Z" transform="translate(-1557.85 -769.46)" fill="#e5ffed"/><polygon points="329.3 60.45 332.71 61.5 335 56.2 340.18 57.11 342.54 53.43 344.4 54.62 341.25 59.55 336.34 58.69 333.96 64.2 328.83 62.63 329.3 60.45" fill="#9ed16f"/><polygon points="125.72 245.28 122.56 250.22 117.65 249.35 115.27 254.86 110.14 253.29 110.61 251.12 114.02 252.16 116.31 246.86 121.49 247.78 123.85 244.09 125.72 245.28" fill="#9ed16f"/><path d="M1927.82,1008.05c0,.5-.13,1.06-.22,1.68,0,0,0,.06,0,.09-1.39,8.83-6.86,29.3-11.65,46.41-.19.67-.37,1.33-.56,2s-.37,1.33-.55,2l-1.23,4.32c-.95,3.33-1.82,6.4-2.58,9-.35,1.19-.67,2.3-1,3.31-1.16,4-1.88,6.46-1.88,6.46s-1.38-1.9-3.64-5.11l-2.13-3,0,0-.1-.15c-.87-1.24-1.81-2.6-2.8-4l-.18-.27c-3-4.36-6.47-9.56-10-15.11l0,0c-4.22-6.59-8.57-13.68-12.36-20.46l-.1-.19c-.73-1.3-1.44-2.59-2.11-3.87l0,0a119.24,119.24,0,0,1-6.83-14.79c-.11-.31-.22-.62-.32-.93a31.43,31.43,0,0,1-1.54-6c-.31-2.31-.11-4.15.73-5.35l0,0c4.46-6.33,17.06-6.34,17.06-6.34s-.28-.53-.73-1.46c-2.79-5.69-12.12-26.27-3.58-31,6.58-3.68,9.72,9.76,9.72,9.76s-.24-34.34,12-34.32c6.6,0,8.47,31.48,8.47,31.48s5.58-11.47,11.77-5.31c5.76,5.73-1.26,28.59-2.26,31.72l-.11.35a2.7,2.7,0,0,1,.31-.11C1921.09,998,1929.13,995.87,1927.82,1008.05Z" transform="translate(-1557.85 -769.46)" fill="#7772d6"/><path d="M1992.25,1020.92c.2,6-11,13.89-18.82,18.61h0c-4.09,2.48-7.22,4.08-7.22,4.08s11.29,4.19-.12,13.48c-7.53,6.14-32.92,12-49.33,15.35-2.08.42-4,.79-5.74,1.12-4.5.86-7.67,1.41-8.55,1.55h-.1l-.15,0a1.35,1.35,0,0,1,0-.18c.17-.75.93-3.83,2.13-8.31.08-.3.16-.6.25-.92s.16-.58.24-.89l.33-1.23c.68-2.42,1.45-5.12,2.3-8,4.79-16.08,12.26-37.54,20.07-45.83a11.36,11.36,0,0,1,4.53-3.18l.35-.1.35-.08a6.53,6.53,0,0,1,.72-.1,4.25,4.25,0,0,1,4.73,2.43c0,.09.08.19.13.28a5.42,5.42,0,0,1,.22.56c.07.22.14.45.2.68s.07.31.11.47a.5.5,0,0,0,0,.12,16.75,16.75,0,0,1,.19,4.05c0,.1,0,.2,0,.3s0,.37,0,.54-.06.47-.08.65,0,.33-.06.43l0,.15s8.94-30.86,21-27.88c7.87,1.94.72,14,.42,14.48.81-.81,25.82-26.16,35.45-17.34,5.26,4.81-17,30.13-17,30.13S1991.94,1011.74,1992.25,1020.92Z" transform="translate(-1557.85 -769.46)" fill="#7772d6"/><path d="M1995.8,986.28,1933,1046.07l-6.18,5.89h0l-10.86,10.34-2.34,2.23-11.13,10.59-.07.07s0,0,0-.06c.3-1.52,1-4.52,2-8.47l.24-.91c.08-.29.16-.58.23-.88l.33-1.23c.66-2.44,1.41-5.14,2.25-8,4.78-16.34,12.31-37.76,20.14-45.92a11.07,11.07,0,0,1,4.51-3.09l.35-.1.35-.08a6.53,6.53,0,0,1,.72-.1,4.37,4.37,0,0,1,4.73,2.43c0,.09.08.19.13.28s.15.37.22.56.14.45.2.68.08.31.11.47a.5.5,0,0,0,0,.12,16.26,16.26,0,0,1,.19,4.05c0,.1,0,.2,0,.3s0,.37,0,.54,0,.47-.08.65,0,.33-.06.43l0,.15s8.94-30.86,21-27.88c7.87,1.94.72,14,.42,14.48C1961.16,1002.81,1986.17,977.46,1995.8,986.28Z" transform="translate(-1557.85 -769.46)" fill="#45258f"/><path d="M1967.24,1072.94s15.85,1.1,12.17,8.37c-.51,1-1.73,1.86-3.51,2.54-12.06,4.63-50.1,2.14-72.22.18l-2-.18c-8.64-.79-14.39-1.44-14.39-1.44l.08-.08.1-.1c.11-.12.28-.3.51-.52,1.64-1.62,6-5.9,11.48-10.77,1.57-1.39,3.22-2.82,4.93-4.26l0,0c3.1-2.6,6.38-5.19,9.62-7.49.45-.33.89-.64,1.34-1a50.42,50.42,0,0,1,11.42-6.26h0a17.91,17.91,0,0,1,2-.57c13.91-2.93,11.41,7,11.41,7s25.54-22.34,33.18-18.82l.22.1a2.85,2.85,0,0,1,.6.43c6.39,5.85-.53,11.49-.53,11.49s23-4.07,26.29,3.48C2005.06,1066.63,1967.24,1072.94,1967.24,1072.94Z" transform="translate(-1557.85 -769.46)" fill="#7772d6"/><path d="M2000,1055l-83.47,20.27-6.49,1.57-5.52,1.35-17.23,4.18.08-.08.1-.1c.11-.12.28-.3.51-.52,1.58-1.63,5.85-5.94,11.3-11,1.68-1.58,3.49-3.24,5.36-4.91h0c2.77-2.48,5.68-5,8.6-7.38.89-.73,1.79-1.44,2.68-2.14,6.39-5,12.58-9,17-10.16l.51-.12c13.64-2.87,7.84,8.68,7.62,9.12.69-.54,24.87-19.26,32.32-15.54a.7.7,0,0,1,.21.11,2.85,2.85,0,0,1,.6.43c6.39,5.85-.53,11.49-.53,11.49S1996.71,1047.49,2000,1055Z" transform="translate(-1557.85 -769.46)" fill="#45258f"/><path d="M1843.3,792.65c9.3,1.53,12.06,13.73,4.33,19.19a7.1,7.1,0,0,0-2.76,4.11l-1.4,5.67a3.1,3.1,0,0,1-3.51,2.31l-3.52-.58a3.09,3.09,0,0,1-2.58-3.31c.49-5.86,1.1-8-.81-10.6C1827.48,801.79,1834,791.12,1843.3,792.65Z" transform="translate(-1557.85 -769.46)" fill="#2ed573"/><path d="M1845,802.6a4.59,4.59,0,0,0-1.25,2.5,13.91,13.91,0,0,1-5.08-1.48,6.69,6.69,0,0,0-.14-3c-.52-1.2-2-1.52-2.66-.36a1.86,1.86,0,0,0-.1,1.46,4.74,4.74,0,0,0,2.37,2.16c-.25,3.53-.58,7.09-1,10.61,0,.46-.1.91-.16,1.37l.5.06c.06-.45.11-.9.16-1.35.42-3.46.74-7,1-10.43a14.41,14.41,0,0,0,5,1.43c-.31,1.64-.95,5.67-1.48,9.75-.09.69-.18,1.37-.26,2l.51.06c.08-.67.17-1.35.25-2,.57-4.35,1.24-8.49,1.49-9.79C1849.43,805.93,1847.41,800.31,1845,802.6Zm-6.82.75a3.94,3.94,0,0,1-1.93-1.77,1.14,1.14,0,0,1,.59-1.49c.09,0,1,.3,1.22.76A5.75,5.75,0,0,1,1838.13,803.35Zm8.5,1.1a2.94,2.94,0,0,1-2.42.68,4.08,4.08,0,0,1,1.08-2.16C1846.62,801.74,1847.43,803.59,1846.63,804.45Z" transform="translate(-1557.85 -769.46)" fill="#d1eaf2"/><path d="M1844.92,815.81s0,.09-.05.14l-1.4,5.67a3.1,3.1,0,0,1-3.51,2.31l-3.52-.58a3.09,3.09,0,0,1-2.58-3.31c.22-2.6.46-4.47.49-6Z" transform="translate(-1557.85 -769.46)" fill="#24a358"/><path d="M1850.2,788.41l2.78-5.08a1,1,0,0,0-1.78-1l-2.78,5.07a1,1,0,0,0,1.78,1Z" transform="translate(-1557.85 -769.46)" fill="#2ed573"/><path d="M1856.27,800.69l6.07-.53a1,1,0,1,0-.18-2l-6.06.53a1,1,0,0,0-.92,1.09A1,1,0,0,0,1856.27,800.69Z" transform="translate(-1557.85 -769.46)" fill="#2ed573"/><path d="M1862.28,819.27a1,1,0,0,0,0-1.43,33.18,33.18,0,0,0-4.87-4,1,1,0,1,0-1.13,1.69,31.41,31.41,0,0,1,4.57,3.73A1,1,0,0,0,1862.28,819.27Z" transform="translate(-1557.85 -769.46)" fill="#2ed573"/><path d="M1835.22,788.13a1,1,0,0,0,.72-1.24,38.19,38.19,0,0,1-1.25-7.87,1,1,0,1,0-2,.11,40.92,40.92,0,0,0,1.32,8.29A1,1,0,0,0,1835.22,788.13Z" transform="translate(-1557.85 -769.46)" fill="#2ed573"/><path d="M1829,795.93a1,1,0,0,0-.68-1.27l-6.3-1.9a1,1,0,1,0-.59,1.94l6.3,1.9A1,1,0,0,0,1829,795.93Z" transform="translate(-1557.85 -769.46)" fill="#2ed573"/><path d="M1818.63,812.69l.27,0a32.5,32.5,0,0,0,6.31-2.53,1,1,0,0,0-1-1.8,29.32,29.32,0,0,1-5.91,2.37,1,1,0,0,0,.28,2Z" transform="translate(-1557.85 -769.46)" fill="#2ed573"/><path d="M1726.33,857.53l3.18-7.52,8-1.64a1.13,1.13,0,0,0,.51-2l-6.17-5.34.91-8.12a1.12,1.12,0,0,0-1.69-1.08l-7,4.21-7.44-3.37a1.12,1.12,0,0,0-1.55,1.28l1.84,8-5.5,6a1.12,1.12,0,0,0,.73,1.87l8.14.7,4,7.1A1.13,1.13,0,0,0,1726.33,857.53Z" transform="translate(-1557.85 -769.46)" fill="#2ed573"/><polygon points="117.87 62.28 119.18 67.54 127.88 66.37 130.74 73.83 137.39 74.02 137.3 77.39 128.4 77.14 125.69 70.07 116.64 71.28 114.67 63.36 117.87 62.28" fill="#9ed16f"/><path d="M1916.75,1066.53v6.52a12,12,0,0,1-.22,2.26,10.79,10.79,0,0,1-8.45,8.54,10,10,0,0,1-1.9.18H1753.24l.15-.18.13-.16a20,20,0,0,0,2.07-2.93h0c.12-.21.24-.42.35-.64s.25-.46.36-.69a13.1,13.1,0,0,0,.58-1.27,4.66,4.66,0,0,0,.23-.58c.1-.25.2-.51.28-.77s.16-.45.22-.68c.14-.46.27-.92.37-1.39.06-.23.11-.46.15-.7s.09-.46.13-.7a.28.28,0,0,0,0-.09c.09-.52.15-1,.2-1.57,0-.34,0-.69.06-1s0-.57,0-.86c0-.67,0-1.34-.09-2s-.11-1-.2-1.56a2.33,2.33,0,0,0-.06-.35c0-.28-.11-.57-.17-.85s-.14-.59-.22-.89a.29.29,0,0,0,0-.1c-.07-.29-.16-.58-.25-.86s-.18-.55-.28-.82-.27-.73-.42-1.09-.23-.52-.36-.78l-.07-.16h0a4.39,4.39,0,0,0-.21-.44l-.23-.43-.36-.64a21.08,21.08,0,0,0-2.36-3.26h152.94a9.07,9.07,0,0,1,1.28.09h0a10.38,10.38,0,0,1,5.74,2.72c.27.26.53.52.78.8a11.38,11.38,0,0,1,.79,1,10.21,10.21,0,0,1,1.11,2.09A11.18,11.18,0,0,1,1916.75,1066.53Z" transform="translate(-1557.85 -769.46)" fill="#3b77be"/><path d="M1851,1069.79a11.13,11.13,0,0,1-3.1,7.76,10.35,10.35,0,0,1-7.47,3.21h-84.84l.36-.64q.19-.34.36-.69c.21-.42.4-.84.58-1.27.08-.19.16-.39.23-.58s.2-.51.28-.77.15-.46.22-.68c.14-.46.27-.92.37-1.39.06-.23.11-.46.15-.7s.09-.47.13-.7a.28.28,0,0,0,0-.09c.09-.52.15-1,.2-1.57,0-.34,0-.69.06-1s0-.57,0-.86c0-.67,0-1.34-.09-2s-.11-1-.2-1.56a2.33,2.33,0,0,0-.06-.35c0-.28-.11-.57-.17-.85s-.14-.6-.22-.89a.29.29,0,0,0,0-.1c-.07-.29-.16-.58-.25-.86s-.18-.55-.28-.82-.27-.73-.42-1.09-.23-.52-.36-.78l-.07-.16-.22-.44-.23-.43-.36-.64h84.83A10.77,10.77,0,0,1,1851,1069.79Z" transform="translate(-1557.85 -769.46)" fill="#d1eaf2"/><path d="M1807,1035.79a.64.64,0,0,1,.63-.9h80.93c6.34,0,11.48,4.63,11.48,10.34h0c0,5.71-5.14,10.33-11.48,10.33h-81a.63.63,0,0,1-.63-.9h0A19.8,19.8,0,0,0,1807,1035.79Z" transform="translate(-1557.85 -769.46)" fill="#3797db"/><path d="M1807.47,1036.81h40.11c7.45,0,13.48,3.88,13.48,8.67s-6,8.66-13.48,8.66h-40.37A19.75,19.75,0,0,0,1807.47,1036.81Z" transform="translate(-1557.85 -769.46)" fill="#d1eaf2"/><path d="M1817.83,1040.92h5.23c1.12,0,2,.38,2,.84v.08h-7.26Z" transform="translate(-1557.85 -769.46)" fill="#96a65f"/><path d="M1813.38,1043c0-1.16,1.36-2.11,3-2.11h6.71c-1.28,0-2.31.72-2.31,1.6l0,22.65-3.71-2.91-3.77,2.91Z" transform="translate(-1557.85 -769.46)" fill="#9ed16f"/><path d="M1821.84,1034.14h47.09c4.17,0,7.56-4,7.56-9h0c0-5-3.39-9-7.56-9h-47.09a15.78,15.78,0,0,1,.34,17.43Z" transform="translate(-1557.85 -769.46)" fill="#d1eaf2"/><path d="M1876.48,1025.17h0c0-5-3.46-9-7.73-9h-47.81a.44.44,0,0,1-.4-.47h0a.44.44,0,0,1,.4-.46h75.83c4.72,0,8.55,4.43,8.55,9.9h0c0,5.47-3.83,9.9-8.55,9.9h-75.83a.44.44,0,0,1-.4-.46h0a.45.45,0,0,1,.4-.47h47.81C1873,1034.14,1876.48,1030.13,1876.48,1025.17Z" transform="translate(-1557.85 -769.46)" fill="#45258f"/><path d="M1830.06,1020.61h5.23c1.12,0,2,.37,2,.82v.08h-7.26Z" transform="translate(-1557.85 -769.46)" fill="#2ed573"/><path d="M1825.61,1022.68c0-1.14,1.36-2.07,3.05-2.07h6.7c-1.28,0-2.31.7-2.31,1.57l0,22.21-3.7-2.86-3.78,2.86Z" transform="translate(-1557.85 -769.46)" fill="#2ed573"/><path d="M1746.82,883.43l-7-1.83,4.71,62.84,8.34.27-4.21-59A2.54,2.54,0,0,0,1746.82,883.43Z" transform="translate(-1557.85 -769.46)" fill="#729b46"/><path d="M1746.72,943.16a3.06,3.06,0,0,1-.2,1.35,2.45,2.45,0,0,1-4.8-.76l0-.25-4.29-54.8-.32-4a2.79,2.79,0,0,1,2.28-3.07,2.09,2.09,0,0,1,.5,0h0a2.32,2.32,0,0,1,.74.2,2.55,2.55,0,0,1,1.18,1.2,2.87,2.87,0,0,1,.29,1.07Z" transform="translate(-1557.85 -769.46)" fill="#9ed16f"/><path d="M1807.94,949.38a.53.53,0,0,0,0,.13,2.17,2.17,0,0,1,0,.25,4.11,4.11,0,0,1-3.82,3.77h-.3l-9.22-.82L1764,950l-19-1.7a4.1,4.1,0,0,1-3.37-4.69s0-.05,0-.08l0-.22,2.78.26,2.2.2,6.18.57,38,3.5Z" transform="translate(-1557.85 -769.46)" fill="#9ed16f"/><path d="M1767.05,1012.84c3.85,2.14,15.6-1.6,15.6-1.94.17,3.21,13.15,34.64,13.15,34.64v9.67s-26.76,1.28-26.37-1.09,1.82-.82,7.16-5.29c.47-.4,8-2.14,5.94-6.57C1778.43,1033.32,1769.76,1018.42,1767.05,1012.84Z" transform="translate(-1557.85 -769.46)" fill="#efac7f"/><path d="M1796.67,1055.56h-29.29c-1.06-.11-1.31-1-.93-1.49.77-1.08,6.38-3.62,10.15-5.3,6.58.76,18.13-1.76,19.19-3.26C1798.57,1049.24,1797.26,1055.44,1796.67,1055.56Z" transform="translate(-1557.85 -769.46)" fill="#45258f"/><path d="M1803.1,990.28c.4-1.19-25.22-12.06-26.37-10.82-2,2.2,13.86,43.44,13.86,43.44l-18.25,5.58s-19-47.65-18.19-56.37,10.3-18.62,30.9-12.28S1803.1,990.28,1803.1,990.28Z" transform="translate(-1557.85 -769.46)" fill="#2d185d"/><path d="M1768,1050.41s-2.54,2.29-5.86,5.15c-1.21,1-2.52,2.15-3.86,3.26l-1.84,1.51h0c-4.62,3.74-9,6.89-9.52,6-1.21-2.07.88-1.79,2.18-8.63a.31.31,0,0,1,0-.08c.28-1.12,3-10.24,3.15-15.22.27-7.87-1.19-15.09-1.85-20.45-.17-1.33-.29-2.55-.32-3.63a96.84,96.84,0,0,1,14.42-1.09c-.13,1-.38,2.88-.67,5.26-.91,7.37-2.27,19.16-2,20.43a0,0,0,0,1,0,0s0,0,0,0A15.38,15.38,0,0,0,1768,1050.41Z" transform="translate(-1557.85 -769.46)" fill="#efac7f"/><path d="M1768.58,1050.83l-5.92,4.73-4.09,3.26-2.09,1.67-10.27,8.2c-.88.59-1.62.08-1.66-.56-.09-1.32,2.64-6.85,4.5-10.54l0,0c5.57-3.58,12.89-12.87,12.75-14.7a0,0,0,0,1,0,0C1764.2,1044.88,1769,1050.36,1768.58,1050.83Z" transform="translate(-1557.85 -769.46)" fill="#45258f"/><path d="M1851.08,995.49c-.37.19-.75.37-1.13.54a34.62,34.62,0,0,1-9.76,2.85,44.24,44.24,0,0,1-11.89,0A66.61,66.61,0,0,1,1816,996c-9.4-3.07-18.3-7.82-25.52-12.09h0c-10.31-6.09-17.2-11.21-17.27-9-.18,6-4.21,24.83-6.66,38.43-.63,3.48-1.15,6.62-1.48,9.11h-1.23a96.6,96.6,0,0,1-13.43-.54c-.32,0-.61-.11-.88-.17-.65-23.89-1-66.27,6.94-70.49,1.47-.78,4.19-1.16,7.59-1.27,3-.11,6.58,0,10.31.25a178.13,178.13,0,0,1,20.21,2.48,184.41,184.41,0,0,1,25.18,6.43l9.83,3.26,0-7.26v-2.82s2.07-.35,5.16-.73c1.12-.14,2.39-.28,3.74-.42,9.26-.92,22.55-1.36,23.44,3.56,0,0,0,.07,0,.11C1863.53,966.5,1861.5,990.2,1851.08,995.49Z" transform="translate(-1557.85 -769.46)" fill="#45258f"/><path d="M1888.14,907.58c-8.39,9.29-17.05,12.44-25.22,11.93a31,31,0,0,1-9.91-2.34,49,49,0,0,1-13.37-8.47c-.44-.38-.87-.76-1.29-1.15l-.72-.65a70.89,70.89,0,0,1-12.1-15,25.83,25.83,0,0,1-3-6.67c-1.78-8-3.8-27-3.32-31.46.45-4.13.92-8.27,2.46-12a17.9,17.9,0,0,1,4.78-6.78c4.6-4.08,10.46-4.77,16.25-2.59a17.68,17.68,0,0,1,10.37,9.13c3.71,7.19,4.86,16.72,18.51,26.31,6.5,4.57,13.67,7.69,18.56,13.84C1897,890.32,1894.39,900.67,1888.14,907.58Z" transform="translate(-1557.85 -769.46)" fill="#5e2e0d"/><path d="M1861.87,954.72a.41.41,0,0,0,0,.11l-32.32.3-3.35,0s.2-1.45.45-3.83c.35-3.4.8-8.69.9-14.31.18-9.19-.55-19.26-4.1-23.43-5-5.92-1.8-14.49,1.82-21.17l.27-.48c2-3.58,3.93-6.49,4.52-7.34l.06-.09.11-.16c2.53-4.5,9.07-6.77,9.07-6.77s2.19,0,4.7.16a1.94,1.94,0,0,0,.47.84l0,0a.67.67,0,0,0,.24.1c1.44.48,6.34-.16,9.58,2a10.88,10.88,0,0,1,1.67,1.82c5,6.75,6.65,21.87,6.94,36.94C1863.19,933.59,1862.29,947.62,1861.87,954.72Z" transform="translate(-1557.85 -769.46)" fill="#2ed573"/><path d="M1841.34,861.11s2,14,3.33,17.41-7.53,10.68-14.94,12.89,2.26-7.52,2-11.16-1.66-20.86-1.66-20.86Z" transform="translate(-1557.85 -769.46)" fill="#efac7f"/><path d="M1830.41,864.33l-.38-4.94,11.31,1.72s.28,1.65.6,4C1837.35,867.74,1833.23,866.9,1830.41,864.33Z" transform="translate(-1557.85 -769.46)" fill="#d19369"/><path d="M1837.79,835.53a12.88,12.88,0,0,1,7.21,5.2c2.75,4.2,4.64,16.56-4.42,22.33s-16.11-2.39-16.23-10.35S1825.94,834.13,1837.79,835.53Z" transform="translate(-1557.85 -769.46)" fill="#efac7f"/><path d="M1822.28,850.22c.77,1.92,2.31,3.11,3.43,2.66s1.39-2.37.62-4.29-2.3-3.12-3.42-2.67S1821.51,848.3,1822.28,850.22Z" transform="translate(-1557.85 -769.46)" fill="#efac7f"/><path d="M1836.46,835.27s5.68,12.74,10.66,13.88,4.92,7.54,4.92,7.54-.11-14.8-4.79-18.19S1836.46,835.27,1836.46,835.27Z" transform="translate(-1557.85 -769.46)" fill="#5e2e0d"/><path d="M1845.14,851.79c-.65,2.07-.05,4.11,1.34,4.55s3.07-.87,3.73-2.94,0-4.1-1.35-4.55S1845.8,849.73,1845.14,851.79Z" transform="translate(-1557.85 -769.46)" fill="#efac7f"/><path d="M1781.33,943.76c2.15-.77,5.33-.87,5.28-1.15-.22-1.15-9.67,2.52-8.39.85.71-.92,7.78-4.22,9.5-3.67s12.63,3.6,12.63,3.6l30-7s7.56-17.18,8.3-31.94a41.13,41.13,0,0,1,15.93,5.41c-2.62,14.11-9,37-16,41.28-3,1.81-38.31-2.16-38.31-2.16s-7.79-.55-9.06-1c-1-.37-3.45-1.77-4.8-2.15-3.08-.87-8.55,1.31-8.57.71C1777.76,946,1779.15,944.55,1781.33,943.76Z" transform="translate(-1557.85 -769.46)" fill="#efac7f"/><path d="M1838.42,888.66c.28-4.54,2-8.92,6.84-10.33a9.76,9.76,0,0,1,8.74,1.91c2.85,2.33,3.65,6.06,3.63,9.59a136.47,136.47,0,0,1-2,24.22,51.79,51.79,0,0,0-18-5.67S1838,894.67,1838.42,888.66Z" transform="translate(-1557.85 -769.46)" fill="#2abc65"/><path d="M1978.66,888a1.72,1.72,0,0,1-1,.6L1959.41,892l-5.07.95-23.13,4.3a1.71,1.71,0,0,1-2-1.37l-5.33-28.62-.07-.37-.42-2.25a1.72,1.72,0,0,1,1.38-2l26.1-4.86,17.51-3.25,2.82-.53a1.71,1.71,0,0,1,2,1.37l.34,1.85,5.48,29.39A1.73,1.73,0,0,1,1978.66,888Z" transform="translate(-1557.85 -769.46)" fill="#2abc65"/><rect x="1950.72" y="852.01" width="17.81" height="8.27" rx="1.72" transform="translate(-1681.46 -396.24) rotate(-10.55)" fill="#2abc65"/><path d="M1979.27,886.51a1.73,1.73,0,0,1-.61,1.48,1.62,1.62,0,0,1-.77.36l-18.53,3.6-5,1-23.12,4.49a1.7,1.7,0,0,1-2-1.2l-7.84-27a1.69,1.69,0,0,1,.18-1.37,1.67,1.67,0,0,1,1.14-.79l.68-.13.4-.08,28.38-5.52,16.36-3.18,5-1,1-.2a1.71,1.71,0,0,1,1.35.31,1.73,1.73,0,0,1,.69,1.22Z" transform="translate(-1557.85 -769.46)" fill="#2ed573"/><polygon points="158.28 24.27 166.23 26.44 167.94 16.81 165.34 16.35 164.14 23.13 158.98 21.72 158.28 24.27" fill="#9ed16f"/><path d="M1969.44,926.06l-.42,2.76a10.21,10.21,0,0,0-4.77,0,8.28,8.28,0,0,0-4.21,2.56l-.07.07-.18-.12-.19-.13a1.74,1.74,0,0,0,.11-.18,9.31,9.31,0,0,1,3.31-3.36A12.31,12.31,0,0,1,1969.44,926.06Z" transform="translate(-1557.85 -769.46)" fill="#7772d6"/><path d="M1970.79,942.87c-1.13,9.48-13.93,16.85-25.36,11-15.36-7.89-9.29-27.94,1.64-29.49,9.69-1.37,12.19,5.17,12.64,6.69.06.2.08.31.08.31l.25,0C1961.77,931.77,1971.82,934.2,1970.79,942.87Z" transform="translate(-1557.85 -769.46)" fill="#9ed16f"/><path d="M1954.64,927.19s-3.17-3.25-10.1-.29-7.44,16.74-1.26,15.94S1959.58,929.18,1954.64,927.19Z" transform="translate(-1557.85 -769.46)" fill="#9ed16f"/><rect x="1884.97" y="764.78" width="33.6" height="59.16" rx="3.09" transform="translate(-1043.22 1549.23) rotate(-70.37)" fill="#269e57"/><path d="M1904.25,794.64a9.89,9.89,0,1,0,12.64-6A9.89,9.89,0,0,0,1904.25,794.64Z" transform="translate(-1557.85 -769.46)" fill="#fff"/><path d="M1912.15,793.26a2.91,2.91,0,1,0,3.72-1.77A2.92,2.92,0,0,0,1912.15,793.26Z" transform="translate(-1557.85 -769.46)" fill="#269e57"/><path d="M1907.88,798.59h9.32a0,0,0,0,1,0,0v1a3.46,3.46,0,0,1-3.46,3.46h-2.41a3.45,3.45,0,0,1-3.45-3.45v-1a0,0,0,0,1,0,0Z" transform="translate(1887 1428.22) rotate(-160.37)" fill="#269e57"/><path d="M1903,789.25a1.27,1.27,0,0,0,1.19-.84,1.26,1.26,0,0,0-.77-1.61L1881.63,779a1.25,1.25,0,0,0-.42-.08,1.26,1.26,0,0,0-.43,2.45l21.82,7.78A1.2,1.2,0,0,0,1903,789.25Z" transform="translate(-1557.85 -769.46)" fill="#fff"/><path d="M1897.13,794.68a1.26,1.26,0,0,0,1.19-.83,1.28,1.28,0,0,0-.76-1.62l-17-6.07a1.25,1.25,0,0,0-.42-.08,1.26,1.26,0,0,0-1.19.84,1.26,1.26,0,0,0,.76,1.61l17,6.08A1.2,1.2,0,0,0,1897.13,794.68Z" transform="translate(-1557.85 -769.46)" fill="#fff"/><path d="M1920.91,1002.8v5.7a6.77,6.77,0,0,1-6.78,6.77H1793.65l.06-.06a13.78,13.78,0,0,0,2.08-2.79,1.51,1.51,0,0,0,.09-.18,5.12,5.12,0,0,0,.27-.52,11.3,11.3,0,0,0,.67-1.62c.06-.17.12-.34.17-.52l0-.17c0-.18.1-.37.14-.56a9.46,9.46,0,0,0,.24-1.27,3.15,3.15,0,0,0,0-.43,3.59,3.59,0,0,0,0-.46,13.75,13.75,0,0,0,0-2c0-.21,0-.41-.06-.62s0-.23,0-.34-.07-.44-.11-.66-.1-.51-.17-.76a13.7,13.7,0,0,0-.58-1.78c-.1-.26-.21-.51-.34-.77a.61.61,0,0,0-.07-.14,6.85,6.85,0,0,0-.37-.71,13.49,13.49,0,0,0-2.13-2.85h120.48a6.79,6.79,0,0,1,5.08,2.28l.2.24A6.73,6.73,0,0,1,1920.91,1002.8Z" transform="translate(-1557.85 -769.46)" fill="#9ed16f"/><path d="M1795.78,998.87h64.41a6.78,6.78,0,0,1,6.77,6.78h0a6.77,6.77,0,0,1-6.77,6.77h-64.41A13.8,13.8,0,0,0,1795.78,998.87Z" transform="translate(-1557.85 -769.46)" fill="#d1eaf2"/><path d="M1704.18,973.67,1695,996.58a2.25,2.25,0,0,1-2.92,1.26l-7.75-3.09-25.11-10a2.25,2.25,0,0,1-1.25-2.92l.29-.73.38-1,.33-.81.38-1,.32-.81.39-1,.32-.81.38-1,.32-.81.39-1,.32-.8.39-1,.32-.81.38-1,.32-.81.39-1,.32-.8.39-1,.32-.81.38-1,.32-.81.39-1,.32-.8.39-1,.68-1.72a2.24,2.24,0,0,1,2.92-1.25l28,11.18,4.81,1.92A2.25,2.25,0,0,1,1704.18,973.67Z" transform="translate(-1557.85 -769.46)" fill="#d1eaf2"/><path d="M1664,983.33l8.2-20.59a.63.63,0,0,0-.36-.84h0a.64.64,0,0,0-.83.36l-8.21,20.59a.65.65,0,0,0,.36.84h0A.65.65,0,0,0,1664,983.33Z" transform="translate(-1557.85 -769.46)" fill="#33e279"/><path d="M1668,980.62l6.74-16.91a.65.65,0,0,0-.36-.84h0a.65.65,0,0,0-.84.37l-6.74,16.9a.65.65,0,0,0,.36.84h0A.65.65,0,0,0,1668,980.62Z" transform="translate(-1557.85 -769.46)" fill="#33e279"/><path d="M1668.92,985.28l8.21-20.59a.65.65,0,0,0-.36-.84h0a.65.65,0,0,0-.84.36l-8.21,20.59a.65.65,0,0,0,.36.84h0A.65.65,0,0,0,1668.92,985.28Z" transform="translate(-1557.85 -769.46)" fill="#33e279"/><path d="M1673.23,981.55l6.34-15.89a.65.65,0,0,0-.36-.84h0a.65.65,0,0,0-.84.36L1672,981.07a.64.64,0,0,0,.36.84h0A.64.64,0,0,0,1673.23,981.55Z" transform="translate(-1557.85 -769.46)" fill="#33e279"/><path d="M1664.26,960.54l.16-.41a.29.29,0,0,1,.37-.17l3.12,1.24a.29.29,0,0,1,.15.38l-.16.41a.29.29,0,0,1-.37.18l-3.12-1.25A.28.28,0,0,1,1664.26,960.54Z" transform="translate(-1557.85 -769.46)" fill="#33e279"/><path d="M1663.55,962.32l.17-.42a.28.28,0,0,1,.37-.17l3.12,1.24a.29.29,0,0,1,.15.38l-.17.42a.29.29,0,0,1-.37.17l-3.12-1.24A.29.29,0,0,1,1663.55,962.32Z" transform="translate(-1557.85 -769.46)" fill="#33e279"/><path d="M1662.85,964.09l.16-.41a.29.29,0,0,1,.37-.18l3.12,1.25a.29.29,0,0,1,.15.38l-.17.41a.28.28,0,0,1-.37.17l-3.12-1.24A.28.28,0,0,1,1662.85,964.09Z" transform="translate(-1557.85 -769.46)" fill="#33e279"/><path d="M1662.14,965.86l.16-.41a.29.29,0,0,1,.37-.17l3.12,1.24a.29.29,0,0,1,.15.38l-.16.41a.29.29,0,0,1-.37.18l-3.12-1.25A.28.28,0,0,1,1662.14,965.86Z" transform="translate(-1557.85 -769.46)" fill="#33e279"/><rect x="1662.81" y="966.2" width="1.04" height="3.92" rx="0.3" transform="translate(-1409.4 1385.76) rotate(-68.28)" fill="#33e279"/><path d="M1660.72,969.41l.17-.41a.29.29,0,0,1,.37-.18l3.12,1.25a.29.29,0,0,1,.15.38l-.17.41a.28.28,0,0,1-.37.17l-3.12-1.24A.29.29,0,0,1,1660.72,969.41Z" transform="translate(-1557.85 -769.46)" fill="#33e279"/><path d="M1660,971.18l.16-.41a.29.29,0,0,1,.37-.17l3.12,1.24a.29.29,0,0,1,.15.38l-.16.41a.29.29,0,0,1-.37.18l-3.12-1.25A.28.28,0,0,1,1660,971.18Z" transform="translate(-1557.85 -769.46)" fill="#33e279"/><path d="M1659.31,973l.17-.42a.28.28,0,0,1,.37-.17l3.12,1.24a.28.28,0,0,1,.14.38l-.16.42a.29.29,0,0,1-.37.17l-3.12-1.24A.29.29,0,0,1,1659.31,973Z" transform="translate(-1557.85 -769.46)" fill="#33e279"/><rect x="1659.99" y="973.29" width="1.04" height="3.92" rx="0.3" transform="translate(-1418.59 1386.55) rotate(-68.24)" fill="#33e279"/><path d="M1657.9,976.5l.16-.41a.29.29,0,0,1,.37-.17l3.12,1.24a.29.29,0,0,1,.15.38l-.16.41a.29.29,0,0,1-.37.18l-3.12-1.25A.28.28,0,0,1,1657.9,976.5Z" transform="translate(-1557.85 -769.46)" fill="#33e279"/><path d="M1657.19,978.28l.17-.42a.28.28,0,0,1,.37-.17l3.11,1.24a.28.28,0,0,1,.15.38l-.16.42a.29.29,0,0,1-.37.17l-3.12-1.24A.29.29,0,0,1,1657.19,978.28Z" transform="translate(-1557.85 -769.46)" fill="#33e279"/><path d="M1656.48,980.05l.17-.41a.29.29,0,0,1,.37-.18l3.12,1.25a.29.29,0,0,1,.15.38l-.17.41a.28.28,0,0,1-.37.17l-3.12-1.24A.29.29,0,0,1,1656.48,980.05Z" transform="translate(-1557.85 -769.46)" fill="#33e279"/><path d="M1647.87,978.23l13,18.57a.83.83,0,0,1,.07.13l1.33,4.09a.51.51,0,0,1-.8.56L1658,999l-.11-.11-13.08-18.62a.52.52,0,0,1,.15-.73l2.19-1.4A.51.51,0,0,1,1647.87,978.23Z" transform="translate(-1557.85 -769.46)" fill="#2ed573"/><path d="M1657.93,998.86l0,0,3.37,2.54.91-.61L1661,997A15.6,15.6,0,0,0,1657.93,998.86Z" transform="translate(-1557.85 -769.46)" fill="#d1eaf2"/><path d="M1780,777.16c-1.87,1.5-5.14,6.32-9.31,9.71-2.43,2-4.31,1.47-7.42,1.85-14.77,1.78-10.77,4.8-12.54,5.1.51,1.15,5.11,10.93,6,12.91a3.59,3.59,0,0,0,4.14,2.36c3.06-.42,6.14-.73,9.14-1.39,7.71-1.67,12-5.52,17.52-10.2a3.62,3.62,0,0,0,1.06-4.55A124,124,0,0,0,1780,777.16Z" transform="translate(-1557.85 -769.46)" fill="#2abc65"/><path d="M1749.13,805.58c.07,3.22-.18,3.86,1.21,3.37a18.62,18.62,0,0,0,2.42-1.08c.55-.28.57-.66.12-1.11-.65-.66-1.32-1.3-2-1.94a2.85,2.85,0,0,0-1.25-3.42c-.24-.14-.06.16-2.12-4.58,6.8-.84,11.6-1.4,19.89-2.42a11.12,11.12,0,0,0,5.91-2.57L1791.09,777a1.63,1.63,0,0,0,.27-2.42,1.85,1.85,0,0,0-1.83-.52c-1.89.23-20.45,2.54-22.34,2.76a12.26,12.26,0,0,0-6.57,2.82q-8.73,7.32-17.48,14.6c-.8.67-1,1.28-.74,2a1.57,1.57,0,0,0,2,1c.73-.16,1.06.06,1.31.74,1.14,3.08,1.94,3.76,1.66,4.88C1747.17,803.7,1748.2,805.2,1749.13,805.58Z" transform="translate(-1557.85 -769.46)" fill="#2ed573"/><path d="M1718.35,1024.13l0,0-3.34,3.18a89.12,89.12,0,0,0-9.4,10.5c-.15.19-.3.39-.44.59-.35.45-.68.9-1,1.36l-.09.12a2.43,2.43,0,0,0-.14.2c-.19.26-.37.52-.55.79h0c-.25.35-.49.71-.73,1.07l-.73,1.08a91,91,0,0,0-6.14,11l-.52,1.1s-8.86.78-10.09-7.22a135,135,0,0,0,10.27-13.11c.6-.87,1.18-1.74,1.76-2.62a136.08,136.08,0,0,0,7.41-12.84l1.57-3.67,0-.06h0l.1.07,8.32,5.83.92.64Z" transform="translate(-1557.85 -769.46)" fill="#2abc65"/><path d="M1718.36,1024.11s0,0,0,0l0,0c-.39.27-1.73-.18-3.48-1.13a37.91,37.91,0,0,1-6.41-4.47l-.78-.72c-1-1-1.6-1.8-1.51-2.18v0l0-.06h0c.44-.62,3.52.77,6.88,3.12S1718.8,1023.48,1718.36,1024.11Z" transform="translate(-1557.85 -769.46)" fill="#3b77be"/><path d="M1706.14,1015.6h0s6.75,5.7,9.53,6.29l-.86,1.17a37.34,37.34,0,0,1-3.36-2.09C1708.14,1018.64,1705.78,1016.26,1706.14,1015.6Z" transform="translate(-1557.85 -769.46)" fill="#24a358"/><path d="M1704.57,1039.17c-.16.21-.31.43-.46.64l-.09.12a2.43,2.43,0,0,0-.14.2l-.56.79-.12.17c-.38-.11-.74-.23-1.09-.36a13.68,13.68,0,0,1-3.6-1.89,9.25,9.25,0,0,1-2.7-3.12c-.14-.27-.31-.64-.43-.93.6-.87,1.18-1.74,1.76-2.62a5.94,5.94,0,0,0,2.09,4.38,11.22,11.22,0,0,0,4.47,2.38Z" transform="translate(-1557.85 -769.46)" fill="#9ed16f"/><polygon points="154.02 270.18 155.49 272.85 146.96 270.67 146.17 270.47 145.65 270.34 145.85 269.47 146.09 268.46 147.19 268.42 147.71 268.4 156.48 268.09 154.02 270.18" fill="#9ed16f"/><polygon points="148.83 277.31 146.23 276.32 145.23 278.37 144.01 273.61 143.76 272.62 143.5 271.6 144.26 271.27 145.14 270.88 145.47 271.46 145.48 271.46 145.81 272.04 148.83 277.31" fill="#9ed16f"/><path d="M1705.12,1038.45a3.53,3.53,0,0,1,0,.46,3.48,3.48,0,0,1-.31,1.22,3.42,3.42,0,0,1-1.15,1.37,3,3,0,0,1-1.07.49,3.17,3.17,0,0,1-1,.09h0a3.35,3.35,0,0,1-3.07-3.24,2.67,2.67,0,0,1,0-.4,3.42,3.42,0,0,1,.72-1.89,3.28,3.28,0,0,1,2.83-1.28,3.32,3.32,0,0,1,3,2.61A2.8,2.8,0,0,1,1705.12,1038.45Z" transform="translate(-1557.85 -769.46)" fill="#9ed16f"/><path d="M1700.27,871.54l-17.47-9.89a2.73,2.73,0,0,0-3.19.14l-21.9,19.54c-1.42,1.27-.83,3.88,1.13,5l17.48,9.89a2.74,2.74,0,0,0,3.19-.15l21.89-19.54C1702.83,875.26,1702.23,872.65,1700.27,871.54Zm-19.72,9-17.74,4.29a1.28,1.28,0,0,1-1.4-.83.92.92,0,0,1,.55-1.31l16.61-4,1.68-13.82a.87.87,0,0,1,1.19-.71,1.36,1.36,0,0,1,.93,1.38Z" transform="translate(-1557.85 -769.46)" fill="#33e279"/><path d="M2052.31,1086.3c0,1.36-.95,2.46-2.38.81H1618.69c-.55,0-1-.73-1-1.62s.45-1.64,1-1.64h431.5A2.3,2.3,0,0,1,2052.31,1086.3Z" transform="translate(-1557.85 -769.46)" fill="#9ed16f"/><polygon points="408.62 42.31 406.35 46.79 401.24 46.62 399.06 51.82 393.67 49.96 390.94 55.73 385.76 54.64 382.23 59.76 384.17 61.1 386.81 57.27 392.27 58.42 394.89 52.88 400.38 54.76 402.78 49.03 407.78 49.19 409.88 45.04 413.13 45.83 413.69 43.54 408.62 42.31" fill="#9ed16f"/><polygon points="134.79 156.84 130.14 158.73 126.39 155.25 121.34 157.73 118.49 152.79 112.64 155.35 109.46 151.12 103.43 152.67 104.02 154.95 108.52 153.79 111.88 158.25 117.5 155.79 120.39 160.82 125.98 158.07 129.64 161.48 133.94 159.73 135.88 162.46 137.8 161.1 134.79 156.84" fill="#9ed16f"/></svg>