<svg xmlns="http://www.w3.org/2000/svg" viewBox="0 0 568.15 448.62"><g style="isolation:isolate"><g id="Layer_1" data-name="Layer 1"><path d="M2085.52,1000.36h1.7a.63.63,0,0,1,.63.63v1.91a.63.63,0,0,1-.63.63h-7.79l6.08,23.92c10.61,1.29,16.76,2.83,16.76,4.48,0,4.61-47.74,8.34-106.64,8.34s-106.64-3.73-106.64-8.34c0-1.45,4.74-2.81,13.07-4l6.21-24.4h-7.14a.63.63,0,0,1-.62-.63V1001a.63.63,0,0,1,.62-.63h7.44a24.8,24.8,0,0,1-24.81-24.8v-13H1759.18a3.15,3.15,0,0,1-3.15-3.16V841.72a154.28,154.28,0,0,1,11.34-16.44A121.7,121.7,0,0,1,1778,813.43q2.4-2.35,5-4.56c.75-.65,1.51-1.29,2.29-1.92l1.35-1.08q2.76-2.21,5.72-4.23c.54-.38,1.08-.75,1.63-1.11,1.46-1,3-1.92,4.51-2.83l1.35-.8q2.78-1.59,5.71-3c.32-.17.63-.32,1-.47q4.35-2.13,9.07-3.94c.56-.22,1.13-.44,1.71-.65,1.71-.63,3.47-1.23,5.26-1.79l1.15-.37q4.8-1.47,10-2.64,2.65-.6,5.41-1.11l1.19-.21a167.76,167.76,0,0,1,18.52-2.22,151.52,151.52,0,0,1,24.47.31c1.93.17,3.83.39,5.72.64a152,152,0,0,1,34.42,8.84l2.81,1.1.9.37c1.5.61,3,1.24,4.46,1.89l2.82,1.27c1.87.87,3.73,1.76,5.56,2.68.85.42,1.69.85,2.53,1.29,1.11.57,2.2,1.15,3.3,1.73s2.34,1.29,3.49,1.94,2.49,1.41,3.72,2.13c4.28,2.51,8.47,5.14,12.59,7.85.49.31,1,.64,1.46,1,.85.56,1.69,1.12,2.53,1.7s1.57,1.06,2.35,1.6c8.37,5.74,16.46,11.76,24.43,17.7l2.93,2.19,1.35,1q4.15,3.11,8.27,6.14l1.86,1.36c1.5,1.11,3,2.2,4.51,3.28l1.35,1c1.9,1.35,3.81,2.69,5.71,4,.32.23.63.45,1,.66q4.53,3.11,9.07,6l1.71,1.07c1.3.81,2.61,1.61,3.92,2.38,2.53,1.5,5.07,2.94,7.64,4.29l.51.27c3.49,1.84,7,3.54,10.6,5.07.44.19.88.37,1.33.54,1.52.63,3,1.19,4.58,1.7.91.31,1.83.6,2.75.87,2.12.63,4.25,1.16,6.37,1.59v25.91a14.39,14.39,0,0,1,2.94,5.85h28.12a2.41,2.41,0,0,1,2.41,2.41v28a8.83,8.83,0,0,1,2.89,6.55v31.29A22.6,22.6,0,0,1,2085.52,1000.36Z" transform="translate(-1580.48 -700.54)" fill="#e5ffed"/><path d="M2102.27,1031.93c0,4.61-47.74,8.34-106.64,8.34s-106.64-3.73-106.64-8.34c0-1.45,4.74-2.81,13.07-4l3.13-.42c4.13-.51,9-1,14.41-1.43l1.4-.11,4.6-.33,1.53-.11,2.68-.16.91,0c.65,0,1.31-.08,2-.12,1.68-.1,3.4-.19,5.15-.27,13.4-.68,28.86-1.13,45.49-1.28l5.79,0h6.5q7.15,0,14.06.08c1.93,0,3.85,0,5.74.06,12.5.19,24.23.54,34.77,1l3,.14c11.4.57,21.31,1.31,29.19,2.17,1.08.12,2.12.24,3.12.37C2096.12,1028.74,2102.27,1030.28,2102.27,1031.93Z" transform="translate(-1580.48 -700.54)" fill="#c5f9d4"/><path d="M2071.77,743.88V959.37a3.15,3.15,0,0,1-3.16,3.16h-99.87a3.08,3.08,0,0,1-1.69-.5,3.12,3.12,0,0,1-1.46-2.66V743.88a3.15,3.15,0,0,1,3.15-3.15h99.87A3.15,3.15,0,0,1,2071.77,743.88Z" transform="translate(-1580.48 -700.54)" fill="#d1eaf2"/><rect x="1971.93" y="758.82" width="93.47" height="50.05" transform="translate(2456.85 867.14) rotate(-180)" fill="#ebf5f7"/><rect x="1971.93" y="813.42" width="93.47" height="50.05" transform="translate(2456.85 976.35) rotate(-180)" fill="#ebf5f7"/><rect x="1971.93" y="868.03" width="93.47" height="50.05" transform="translate(2456.85 1085.57) rotate(-180)" fill="#ebf5f7"/><path d="M1945.79,743.88V959.37a3.16,3.16,0,0,1-3.16,3.16H1759.18a3.15,3.15,0,0,1-3.15-3.16V743.88a3.15,3.15,0,0,1,3.15-3.15h183.45A3.16,3.16,0,0,1,1945.79,743.88Z" transform="translate(-1580.48 -700.54)" fill="#d1eaf2"/><rect x="1767.37" y="758.82" width="167.04" height="50.05" transform="translate(2121.29 867.14) rotate(-180)" fill="#ebf5f7"/><rect x="1767.37" y="813.42" width="167.04" height="50.05" transform="translate(2121.29 976.35) rotate(-180)" fill="#ebf5f7"/><rect x="1767.37" y="868.03" width="167.04" height="50.05" transform="translate(2121.29 1085.57) rotate(-180)" fill="#ebf5f7"/><rect x="1842.3" y="901.47" width="5.14" height="28.07" transform="translate(-651.12 2059.84) rotate(-90)" fill="#33e279"/><rect x="1840.19" y="898.1" width="4.57" height="25.11" transform="translate(-648.66 2052.58) rotate(-90)" fill="#b6d6dd"/><rect x="1844.06" y="893.52" width="4.57" height="25.11" transform="translate(-640.21 2051.88) rotate(-90)" fill="#2abc65"/><rect x="1806.17" y="886.74" width="5.71" height="31.34" transform="translate(2037.56 1104.28) rotate(-180)" fill="#33e279"/><rect x="1800.3" y="892.04" width="4.51" height="26.04" transform="translate(2024.63 1109.58) rotate(-180)" fill="#2abc65"/><rect x="1819.37" y="886.74" width="5.71" height="31.34" transform="translate(2063.97 1104.28) rotate(-180)" fill="#33e279"/><rect x="1813.51" y="892.04" width="4.51" height="26.04" transform="translate(2051.04 1109.58) rotate(-180)" fill="#2abc65"/><rect x="1908.44" y="893.05" width="9.97" height="25.04" transform="translate(2246.38 1110.58) rotate(-180)" fill="#33e279"/><rect x="1920.12" y="895.5" width="2.81" height="22.58" transform="translate(2262.57 1113.04) rotate(-180)" fill="#b6d6dd"/><rect x="1923.83" y="891.89" width="4.46" height="26.19" transform="translate(2271.64 1109.43) rotate(-180)" fill="#2abc65"/><rect x="1863.75" y="891.89" width="4.46" height="26.19" transform="translate(2151.47 1109.43) rotate(-180)" fill="#2abc65"/><rect x="1891.26" y="895.5" width="9.07" height="22.58" transform="translate(2211.1 1113.04) rotate(-180)" fill="#b6d6dd"/><rect x="1884.59" y="886.74" width="5.71" height="31.34" transform="translate(2194.42 1104.28) rotate(-180)" fill="#33e279"/><rect x="1878.73" y="892.04" width="4.51" height="26.04" transform="translate(2181.49 1109.58) rotate(-180)" fill="#2abc65"/><rect x="1902.03" y="890.19" width="5.26" height="27.89" transform="translate(2228.84 1107.73) rotate(-180)" fill="#2abc65"/><rect x="1869.56" y="894.6" width="8.27" height="23.48" transform="translate(2166.9 1112.14) rotate(-180)" fill="#b6d6dd"/><rect x="2052.16" y="895.48" width="2.81" height="22.58" transform="translate(2526.64 1113) rotate(-180)" fill="#fff"/><rect x="2055.87" y="891.88" width="4.46" height="26.19" transform="translate(2535.71 1109.4) rotate(-180)" fill="#33e279"/><rect x="1974.84" y="893.03" width="9.97" height="25.04" transform="translate(2379.17 1110.55) rotate(-180)" fill="#33e279"/><rect x="1986.51" y="895.48" width="2.81" height="22.58" transform="translate(2395.36 1113) rotate(-180)" fill="#b6d6dd"/><rect x="1990.22" y="891.88" width="4.46" height="26.19" transform="translate(2404.43 1109.4) rotate(-180)" fill="#2abc65"/><rect x="2012.02" y="886.72" width="5.71" height="31.34" transform="translate(2449.27 1104.24) rotate(-180)" fill="#33e279"/><rect x="2034.02" y="901.46" width="5.14" height="28.07" transform="translate(-459.38 2251.54) rotate(-90)" fill="#62bdf3"/><rect x="2031.91" y="898.08" width="4.57" height="25.11" transform="translate(-456.92 2244.29) rotate(-90)" fill="#b6d6dd"/><rect x="2035.78" y="893.51" width="4.57" height="25.11" transform="translate(-448.47 2243.58) rotate(-90)" fill="#33e279"/><rect x="2006.16" y="892.03" width="4.51" height="26.04" transform="translate(2436.34 1109.55) rotate(-180)" fill="#2abc65"/><rect x="1996.04" y="894.58" width="8.27" height="23.48" transform="translate(2419.86 1112.1) rotate(-180)" fill="#b6d6dd"/><rect x="1923.42" y="786.28" width="2.81" height="22.58" transform="translate(2269.16 894.61) rotate(-180)" fill="#b6d6dd"/><rect x="1927.12" y="782.68" width="4.46" height="26.19" transform="translate(2278.23 891) rotate(-180)" fill="#2abc65"/><rect x="1846.1" y="783.83" width="9.97" height="25.04" transform="translate(2121.68 892.15) rotate(-180)" fill="#33e279"/><rect x="1857.77" y="786.28" width="2.81" height="22.58" transform="translate(2137.87 894.61) rotate(-180)" fill="#b6d6dd"/><rect x="1861.48" y="782.68" width="4.46" height="26.19" transform="translate(2146.94 891) rotate(-180)" fill="#2abc65"/><rect x="1883.28" y="777.52" width="5.71" height="31.34" transform="translate(2191.79 885.84) rotate(-180)" fill="#2ed573"/><rect x="1905.28" y="792.26" width="5.14" height="28.07" transform="translate(-478.92 2013.6) rotate(-90)" fill="#33e279"/><rect x="1903.17" y="788.88" width="4.57" height="25.11" transform="translate(-476.46 2006.35) rotate(-90)" fill="#b6d6dd"/><rect x="1907.04" y="784.31" width="4.57" height="25.11" transform="translate(-468.02 2005.64) rotate(-90)" fill="#2abc65"/><rect x="1877.41" y="782.83" width="4.51" height="26.04" transform="translate(2178.86 891.15) rotate(-180)" fill="#2abc65"/><rect x="1866.03" y="785.38" width="8.27" height="23.48" transform="translate(2159.85 893.7) rotate(-180)" fill="#b6d6dd"/><rect x="1786.66" y="777.52" width="5.71" height="31.34" transform="translate(1998.55 885.84) rotate(-180)" fill="#33e279"/><rect x="1780.79" y="782.83" width="4.51" height="26.04" transform="translate(1985.62 891.15) rotate(-180)" fill="#2abc65"/><rect x="1770.67" y="785.38" width="8.27" height="23.48" transform="translate(1969.13 893.7) rotate(-180)" fill="#b6d6dd"/><rect x="2040.48" y="783.83" width="9.97" height="25.04" transform="translate(2510.46 892.15) rotate(-180)" fill="#33e279"/><rect x="2052.16" y="786.28" width="2.81" height="22.58" transform="translate(2526.64 894.61) rotate(-180)" fill="#b6d6dd"/><rect x="2055.87" y="782.68" width="4.46" height="26.19" transform="translate(2535.71 891) rotate(-180)" fill="#2abc65"/><rect x="1979.45" y="783.83" width="9.97" height="25.04" transform="translate(2388.39 892.15) rotate(-180)" fill="#33e279"/><rect x="1991.13" y="786.28" width="2.81" height="22.58" transform="translate(2404.58 894.61) rotate(-180)" fill="#b6d6dd"/><rect x="1994.83" y="782.68" width="4.46" height="26.19" transform="translate(2413.65 891) rotate(-180)" fill="#2abc65"/><rect x="2023.3" y="786.28" width="9.07" height="22.58" transform="translate(2475.18 894.61) rotate(-180)" fill="#b6d6dd"/><rect x="2016.63" y="777.52" width="5.71" height="31.34" transform="translate(2458.49 885.84) rotate(-180)" fill="#33e279"/><rect x="2010.77" y="782.83" width="4.51" height="26.04" transform="translate(2445.57 891.15) rotate(-180)" fill="#2abc65"/><rect x="2034.07" y="780.98" width="5.26" height="27.89" transform="translate(2492.92 889.3) rotate(-180)" fill="#2abc65"/><rect x="1823.71" y="783.83" width="9.97" height="25.04" transform="translate(2076.92 892.15) rotate(-180)" fill="#33e279"/><rect x="1835.39" y="786.28" width="2.81" height="22.58" transform="translate(2093.1 894.61) rotate(-180)" fill="#b6d6dd"/><rect x="1839.1" y="782.68" width="4.46" height="26.19" transform="translate(2102.17 891) rotate(-180)" fill="#2abc65"/><rect x="1806.53" y="786.28" width="9.07" height="22.58" transform="translate(2041.64 894.61) rotate(-180)" fill="#b6d6dd"/><rect x="1799.86" y="777.52" width="5.71" height="31.34" transform="translate(2024.95 885.84) rotate(-180)" fill="#33e279"/><rect x="1794" y="782.83" width="4.51" height="26.04" transform="translate(2012.03 891.15) rotate(-180)" fill="#2abc65"/><rect x="1817.3" y="780.98" width="5.26" height="27.89" transform="translate(2059.38 889.3) rotate(-180)" fill="#2abc65"/><rect x="1804.02" y="838.44" width="9.97" height="25.04" transform="translate(2037.54 1001.37) rotate(-180)" fill="#33e279"/><rect x="1815.7" y="840.89" width="2.81" height="22.58" transform="translate(2053.73 1003.82) rotate(-180)" fill="#b6d6dd"/><rect x="1819.41" y="837.29" width="4.46" height="26.19" transform="translate(2062.8 1000.22) rotate(-180)" fill="#2abc65"/><rect x="1781.64" y="838.44" width="9.97" height="25.04" transform="translate(1992.77 1001.37) rotate(-180)" fill="#33e279"/><rect x="1793.32" y="840.89" width="2.81" height="22.58" transform="translate(2008.96 1003.82) rotate(-180)" fill="#b6d6dd"/><rect x="1797.03" y="837.29" width="4.46" height="26.19" transform="translate(2018.03 1000.22) rotate(-180)" fill="#2abc65"/><rect x="1775.23" y="835.58" width="5.26" height="27.89" transform="translate(1975.24 998.51) rotate(-180)" fill="#2abc65"/><rect x="2000.65" y="785.38" width="8.27" height="23.48" transform="translate(2429.08 893.7) rotate(-180)" fill="#b6d6dd"/><rect x="1908.44" y="838.44" width="9.97" height="25.04" transform="translate(2246.38 1001.37) rotate(-180)" fill="#33e279"/><rect x="1920.12" y="840.89" width="2.81" height="22.58" transform="translate(2262.57 1003.82) rotate(-180)" fill="#b6d6dd"/><rect x="1923.83" y="837.29" width="4.46" height="26.19" transform="translate(2271.64 1000.22) rotate(-180)" fill="#2abc65"/><rect x="1847.41" y="838.44" width="9.97" height="25.04" transform="translate(2124.31 1001.37) rotate(-180)" fill="#33e279"/><rect x="1859.09" y="840.89" width="2.81" height="22.58" transform="translate(2140.5 1003.82) rotate(-180)" fill="#b6d6dd"/><rect x="1862.79" y="837.29" width="4.46" height="26.19" transform="translate(2149.57 1000.22) rotate(-180)" fill="#2abc65"/><rect x="1891.26" y="840.89" width="9.07" height="22.58" transform="translate(2211.1 1003.82) rotate(-180)" fill="#b6d6dd"/><rect x="1884.59" y="832.13" width="5.71" height="31.34" transform="translate(2194.42 995.06) rotate(-180)" fill="#33e279"/><rect x="1878.73" y="837.44" width="4.51" height="26.04" transform="translate(2181.49 1000.37) rotate(-180)" fill="#2abc65"/><rect x="1902.03" y="835.58" width="5.26" height="27.89" transform="translate(2228.84 998.51) rotate(-180)" fill="#2abc65"/><rect x="1868.61" y="839.99" width="8.27" height="23.48" transform="translate(2165 1002.92) rotate(-180)" fill="#b6d6dd"/><rect x="2040.48" y="836.15" width="9.97" height="27.32" transform="translate(2510.46 999.08) rotate(-180)" fill="#b6d6dd"/><rect x="2052.16" y="840.89" width="2.81" height="22.58" transform="translate(2526.64 1003.82) rotate(-180)" fill="#2abc65"/><rect x="2055.87" y="837.29" width="4.46" height="26.19" transform="translate(2535.71 1000.22) rotate(-180)" fill="#33e279"/><rect x="1991.13" y="840.89" width="2.81" height="22.58" transform="translate(2404.58 1003.82) rotate(-180)" fill="#2abc65"/><rect x="1994.83" y="834.46" width="4.46" height="29.01" transform="translate(2413.65 997.39) rotate(-180)" fill="#b6d6dd"/><rect x="2023.3" y="834.46" width="9.07" height="29.01" transform="translate(2475.18 997.39) rotate(-180)" fill="#2abc65"/><rect x="2016.63" y="838.44" width="5.71" height="25.04" transform="translate(2458.49 1001.37) rotate(-180)" fill="#b6d6dd"/><rect x="2010.77" y="830.52" width="4.51" height="32.95" transform="translate(2445.57 993.45) rotate(-180)" fill="#33e279"/><rect x="2034.07" y="839.1" width="5.26" height="24.37" transform="translate(2492.92 1002.03) rotate(-180)" fill="#33e279"/><rect x="2000.65" y="835.58" width="8.27" height="27.89" transform="translate(2429.08 998.51) rotate(-180)" fill="#2abc65"/><rect x="1979.68" y="835.1" width="8.27" height="27.89" transform="translate(1986.36 1614.93) rotate(-160.36)" fill="#b6d6dd"/><rect x="1835.08" y="835.1" width="8.27" height="27.89" transform="translate(1705.58 1566.32) rotate(-160.36)" fill="#b6d6dd"/><rect x="1830.35" y="835.7" width="4.13" height="27.89" transform="translate(1692.22 1565.16) rotate(-160.36)" fill="#2abc65"/><rect x="386.57" y="57.26" width="2.53" height="206.44" fill="#9ed16f"/><rect x="359.48" y="57.26" width="2.53" height="206.44" fill="#9ed16f"/><rect x="360.75" y="60.4" width="27.09" height="2.14" fill="#9ed16f"/><rect x="360.75" y="74.26" width="27.09" height="2.14" fill="#9ed16f"/><rect x="360.75" y="88.11" width="27.09" height="2.14" fill="#9ed16f"/><rect x="360.75" y="101.97" width="27.09" height="2.14" fill="#9ed16f"/><rect x="360.75" y="115.83" width="27.09" height="2.14" fill="#9ed16f"/><rect x="360.75" y="129.68" width="27.09" height="2.14" fill="#9ed16f"/><rect x="360.75" y="143.54" width="27.09" height="2.14" fill="#9ed16f"/><rect x="360.75" y="157.39" width="27.09" height="2.14" fill="#9ed16f"/><rect x="360.75" y="171.25" width="27.09" height="2.14" fill="#9ed16f"/><rect x="360.75" y="185.1" width="27.09" height="2.14" fill="#9ed16f"/><rect x="360.75" y="198.96" width="27.09" height="2.14" fill="#9ed16f"/><rect x="360.75" y="212.81" width="27.09" height="2.14" fill="#9ed16f"/><rect x="360.75" y="226.67" width="27.09" height="2.14" fill="#9ed16f"/><rect x="1721.99" y="826.07" width="2.81" height="22.58" transform="translate(1866.3 974.17) rotate(-180)" fill="#b6d6dd"/><rect x="1725.7" y="822.46" width="4.46" height="26.19" transform="translate(1875.37 970.57) rotate(-180)" fill="#2abc65"/><rect x="1660.05" y="822.46" width="4.46" height="26.19" transform="translate(1744.08 970.57) rotate(-180)" fill="#2abc65"/><rect x="1681.85" y="817.3" width="5.71" height="31.34" transform="translate(1788.93 965.41) rotate(-180)" fill="#33e279"/><rect x="1703.85" y="832.04" width="5.14" height="28.07" transform="translate(-720.13 1851.96) rotate(-90)" fill="#33e279"/><rect x="1701.74" y="828.67" width="4.57" height="25.11" transform="translate(-717.67 1844.7) rotate(-90)" fill="#b6d6dd"/><rect x="1705.61" y="824.09" width="4.57" height="25.11" transform="translate(-709.23 1844) rotate(-90)" fill="#33e279"/><rect x="1675.99" y="822.61" width="4.51" height="26.04" transform="translate(1776 970.72) rotate(-180)" fill="#2abc65"/><rect x="1665.86" y="825.17" width="8.27" height="23.48" transform="translate(1759.52 973.27) rotate(-180)" fill="#b6d6dd"/><rect x="1706.4" y="772.45" width="5.71" height="31.34" transform="translate(1838.03 875.71) rotate(-180)" fill="#33e279"/><rect x="1700.54" y="777.76" width="4.51" height="26.04" transform="translate(1825.11 881.02) rotate(-180)" fill="#2abc65"/><rect x="1690.42" y="780.32" width="8.27" height="23.48" transform="translate(1808.62 883.57) rotate(-180)" fill="#b6d6dd"/><rect x="1726.27" y="781.22" width="9.07" height="22.58" transform="translate(1881.13 884.47) rotate(-180)" fill="#b6d6dd"/><rect x="1719.61" y="772.45" width="5.71" height="31.34" transform="translate(1864.44 875.71) rotate(-180)" fill="#33e279"/><rect x="1713.74" y="777.76" width="4.51" height="26.04" transform="translate(1851.51 881.02) rotate(-180)" fill="#2abc65"/><rect x="1737.04" y="775.91" width="5.26" height="27.89" transform="translate(1898.87 879.17) rotate(-180)" fill="#2abc65"/><rect x="1682.75" y="775.91" width="4.13" height="27.89" transform="translate(1425.61 1399.55) rotate(-160.36)" fill="#2abc65"/><polygon points="409.51 316.17 408.46 324.55 402.84 324.98 402.93 317.21 409.51 316.17" fill="#efac7f"/><polygon points="310.42 236.6 364.82 236.6 358.88 277.71 313.98 270.4 310.42 236.6" fill="#33e279"/><path d="M1974.78,1031.66l15.36.1a.59.59,0,0,0,.6-.59v-.44a.61.61,0,0,0-.62-.6l-15.35-.1a.58.58,0,0,0-.6.59v.44A.62.62,0,0,0,1974.78,1031.66Z" transform="translate(-1580.48 -700.54)" fill="#2d185d"/><path d="M1989.93,1025.18l.59,4.53c.07.56-.24,1.07-.66,1.07l-14.61-.1a1.11,1.11,0,0,1-1-.68,1.93,1.93,0,0,1,.39-2c1.3-1.8,5.59-2.21,7.67-3.74l6.81,0C1989.54,1024.3,1989.86,1024.67,1989.93,1025.18Z" transform="translate(-1580.48 -700.54)" fill="#45258f"/><path d="M1983.41,1026.89h0a.3.3,0,0,0,.08-.37,2.87,2.87,0,0,0-3-1.84.24.24,0,0,0-.16.29h0c0,.14.12.23.22.21a2.48,2.48,0,0,1,2.64,1.6A.17.17,0,0,0,1983.41,1026.89Z" transform="translate(-1580.48 -700.54)" fill="#fff"/><path d="M1981.9,1027.46h0a.3.3,0,0,0,.08-.36,2.86,2.86,0,0,0-3-1.85.26.26,0,0,0-.16.3h0c0,.14.12.23.22.21a2.48,2.48,0,0,1,2.64,1.6C1981.71,1027.47,1981.81,1027.52,1981.9,1027.46Z" transform="translate(-1580.48 -700.54)" fill="#fff"/><path d="M1980.49,1028h0a.29.29,0,0,0,.08-.37,2.87,2.87,0,0,0-3-1.84.26.26,0,0,0-.16.29h0a.21.21,0,0,0,.21.21,2.47,2.47,0,0,1,2.64,1.59C1980.3,1028,1980.41,1028.05,1980.49,1028Z" transform="translate(-1580.48 -700.54)" fill="#fff"/><path d="M1986,1030.75c1.12-3.65,3.1-4,4.18-4l.38,2.91c.07.56-.24,1.07-.66,1.07Z" transform="translate(-1580.48 -700.54)" fill="#2d185d" opacity="0.3" style="mix-blend-mode:multiply"/><polygon points="434.54 315.65 435.02 324.43 429.3 324.47 428.75 316.35 434.54 315.65" fill="#efac7f"/><path d="M2001.56,1031.81l15.36.1a.58.58,0,0,0,.6-.59v-.44a.61.61,0,0,0-.61-.6l-15.36-.1a.58.58,0,0,0-.6.59v.44A.62.62,0,0,0,2001.56,1031.81Z" transform="translate(-1580.48 -700.54)" fill="#2d185d"/><path d="M2016.71,1025.33l.59,4.53c.07.56-.24,1.07-.66,1.07l-14.61-.1a1.11,1.11,0,0,1-1-.68,2,2,0,0,1,.39-2c1.3-1.8,5.59-2.21,7.68-3.74l6.8,0A.89.89,0,0,1,2016.71,1025.33Z" transform="translate(-1580.48 -700.54)" fill="#45258f"/><path d="M2010.19,1027h0a.3.3,0,0,0,.08-.37,2.87,2.87,0,0,0-3-1.84.24.24,0,0,0-.16.29h0c0,.14.12.23.22.21a2.48,2.48,0,0,1,2.64,1.6A.17.17,0,0,0,2010.19,1027Z" transform="translate(-1580.48 -700.54)" fill="#fff"/><path d="M2008.68,1027.61h0a.31.31,0,0,0,.08-.37,2.88,2.88,0,0,0-3-1.84.26.26,0,0,0-.16.3h0c0,.14.12.23.22.21a2.48,2.48,0,0,1,2.64,1.6C2008.49,1027.62,2008.59,1027.67,2008.68,1027.61Z" transform="translate(-1580.48 -700.54)" fill="#fff"/><path d="M2007.27,1028.15h0a.29.29,0,0,0,.08-.37,2.87,2.87,0,0,0-3-1.84.26.26,0,0,0-.16.29h0a.21.21,0,0,0,.21.21A2.47,2.47,0,0,1,2007,1028C2007.08,1028.16,2007.19,1028.2,2007.27,1028.15Z" transform="translate(-1580.48 -700.54)" fill="#fff"/><path d="M2012.74,1030.9c1.12-3.65,3.1-4,4.18-4l.38,2.91c.07.56-.24,1.07-.66,1.07Z" transform="translate(-1580.48 -700.54)" fill="#2d185d" opacity="0.3" style="mix-blend-mode:multiply"/><path d="M2087.85,1001v1.91a.63.63,0,0,1-.63.63H1901.13a.63.63,0,0,1-.62-.63V1001a.63.63,0,0,1,.62-.63h186.09A.63.63,0,0,1,2087.85,1001Z" transform="translate(-1580.48 -700.54)" fill="#9ed16f"/><path d="M2099.15,909.55l-.81,28-.35,12-4.94,4.94L2074.9,972.7H1926V922a12.46,12.46,0,0,1,.62-3.88,12.3,12.3,0,0,1,1.69-3.33,12.54,12.54,0,0,1,6.11-4.55,12.08,12.08,0,0,1,3.26-.63c.25,0,.5,0,.76,0H1996c2.74,0,5.5,0,8.27,0,.62,0,1.23,0,1.85,0,1.5,0,3,0,4.51,0,.45,0,.91,0,1.36,0,1.9,0,3.81,0,5.71,0,1.31,0,2.61,0,3.91,0h77.51Z" transform="translate(-1580.48 -700.54)" fill="#2ed573"/><path d="M2105.24,912v42.83a2.41,2.41,0,0,1-2.41,2.42h-7.36a2.42,2.42,0,0,1-2.42-2.42V912a2.42,2.42,0,0,1,2.16-2.4h7.62A2.41,2.41,0,0,1,2105.24,912Z" transform="translate(-1580.48 -700.54)" fill="#2abc65"/><rect x="1894.46" y="965.11" width="153.01" height="30.43" transform="translate(2361.45 1260.1) rotate(180)" fill="#2abc65"/><path d="M2013.59,953.7s-28.22.1-32.57,5.75-7.66,43.86,0,60.57c0,0,9.93.35,12.19-1,0,0-.69-28.19-.35-35.67s5.58-8.53,6.27-9.23S2013.59,953.7,2013.59,953.7Z" transform="translate(-1580.48 -700.54)" fill="#2d185d"/><polygon points="476.33 194.58 477.4 203.26 468.79 202.97 469.04 193.03 476.33 194.58" fill="#efac7f"/><path d="M2049.4,898.15l.12-4.57,7.4,2.37.2,1.71A12.82,12.82,0,0,1,2049.4,898.15Z" transform="translate(-1580.48 -700.54)" fill="#d19369" opacity="0.6"/><polygon points="458.66 180.84 459.77 186.76 460.85 187.08 460.58 179.57 458.66 180.84" fill="#282828"/><path d="M2041.81,886.22a2.06,2.06,0,1,1-2.91-1.35A2.3,2.3,0,0,1,2041.81,886.22Z" transform="translate(-1580.48 -700.54)" fill="#d19369"/><path d="M2042.73,893.68a10.67,10.67,0,0,1-.93-1.69,19.89,19.89,0,0,1-1.43-4.84c-.06-.32-.13-.64-.22-1A10.72,10.72,0,0,1,2049,873a10.72,10.72,0,0,1,12.31,9.79,2.31,2.31,0,0,1,2.07-.31c1.31.47,1.9,2.18,1.31,3.81s-2.14,2.59-3.45,2.11a1.83,1.83,0,0,1-.5-.26,10.07,10.07,0,0,1-9.3,9.92,9.71,9.71,0,0,1-6.72-2.22,3.4,3.4,0,0,1-.38-.32A9.63,9.63,0,0,1,2042.73,893.68Z" transform="translate(-1580.48 -700.54)" fill="#efac7f"/><path d="M2051.72,884.41a.94.94,0,1,0,.88-1A.93.93,0,0,0,2051.72,884.41Z" transform="translate(-1580.48 -700.54)" fill="#333"/><path d="M2043.72,885.39a.94.94,0,1,0,.88-1A.93.93,0,0,0,2043.72,885.39Z" transform="translate(-1580.48 -700.54)" fill="#333"/><path d="M2050.49,882.62a9.27,9.27,0,0,1,1.3-.52,4.56,4.56,0,0,1,1.3-.2,4.1,4.1,0,0,1,1.29.18l.17,0,.16.06.33.11c.22.08.43.2.67.27a4.29,4.29,0,0,0-.5-.55,3.5,3.5,0,0,0-.63-.43,3.08,3.08,0,0,0-1.5-.36,3.34,3.34,0,0,0-1.49.39A2.9,2.9,0,0,0,2050.49,882.62Z" transform="translate(-1580.48 -700.54)" fill="#282828"/><path d="M2046.73,883a2.94,2.94,0,0,0-1.29-.75,3.21,3.21,0,0,0-1.54-.06,3.08,3.08,0,0,0-1.39.68,3.36,3.36,0,0,0-.52.55,5.19,5.19,0,0,0-.37.65c.22-.13.4-.28.6-.41l.3-.18a1.1,1.1,0,0,1,.14-.09l.15-.08a4.06,4.06,0,0,1,1.23-.45,4.67,4.67,0,0,1,1.3-.09A10.07,10.07,0,0,1,2046.73,883Z" transform="translate(-1580.48 -700.54)" fill="#282828"/><path d="M2037.64,874.34s-3.2.27,0-2.61,12.14-6.5,18.09-3.73c0,0,1-2.52,2.74-2s-1,2.33-1,2.33,2.14-.17,2.84.84c.53.75-.78.85-1.5.85,1.23.15,5.32,2.3,3.43,11.82-.84-.14-7.57-5.66-7.57-5.66s-8.8,5.87-7.77,2.75c0,0-10.5,6-9.19.1C2037.76,879,2033.42,879.56,2037.64,874.34Z" transform="translate(-1580.48 -700.54)" fill="#282828"/><path d="M2048.18,882.78a6.94,6.94,0,0,1,.43,2,5.9,5.9,0,0,1,0,1,2.6,2.6,0,0,1-.33,1.07l-.09.13-.09.11s-.08.09-.11.15a.93.93,0,0,0-.12.33.91.91,0,0,0,.25.68,2.79,2.79,0,0,0,1.66.78,2.29,2.29,0,0,1-2-.42,1.37,1.37,0,0,1-.5-1.08.86.86,0,0,1,0-.32,1.28,1.28,0,0,1,.13-.29,1.1,1.1,0,0,1,.17-.25l.07-.09,0-.07a2.57,2.57,0,0,0,.27-.81,9.3,9.3,0,0,0,.11-.94C2048.15,884.11,2048.16,883.45,2048.18,882.78Z" transform="translate(-1580.48 -700.54)" fill="#d19369"/><path d="M2054.72,876.17s3.72,5.88,3.81,9.35c0,0,1.57-3.11,4.16-3.19,0,0,.84-5.85-.74-9.51l-5.86,1.25Z" transform="translate(-1580.48 -700.54)" fill="#282828"/><path d="M2076.11,932h-1.82l-2.52,0c-2.45,0-5.43.07-7.58.14h-.4l-.13,3.65-1.9,1.54-5.85,4.76-5.85,4.75-3,2.43-5.1,4.14-2.09,1.7s-14.11-1.22-17-2.61c0,0,.17-.33.44-.89.47-.93,1.26-2.51,2.1-4.22l0-.09c1.37-2.81,2.86-5.93,3.25-7.07s.71-6.78,1-12.6c.07-1.33.15-2.68.23-4l.06-1c.1-1.67.2-3.23.31-4.58v0a24.82,24.82,0,0,1,.54-4.21c.09-.23.19-.55.31-.94a28.24,28.24,0,0,1,1.3-3.35c.18-.4.39-.81.62-1.22a16.32,16.32,0,0,1,3.72-4.57,16.09,16.09,0,0,1,10.33-3.58,4.21,4.21,0,0,0,2.12,1.45,7.66,7.66,0,0,0,2.84.36,13.06,13.06,0,0,0,2.8-.47c.29-.08.59-.17.9-.28.52-.16,1.06-.36,1.63-.6.34-.14.68-.29,1-.46a13.3,13.3,0,0,1,1.8-.32,16.06,16.06,0,0,1,5.08.19,11.3,11.3,0,0,1,6.37,3.65,14.39,14.39,0,0,1,2.94,5.85,24.62,24.62,0,0,1,.79,5Z" transform="translate(-1580.48 -700.54)" fill="#7772d6"/><path d="M2035.5,913.29a9.9,9.9,0,0,0-.79,1.64c-.12.28-.21.57-.32.85l-.27.86a27,27,0,0,0-.78,3.54c-.21,1.2-.31,2.4-.41,3.61,0,.61-.07,1.21-.11,1.82s0,1.21,0,1.82c0-.61-.06-1.21-.09-1.82s0-1.22,0-1.83a34,34,0,0,1,.35-3.64,24.25,24.25,0,0,1,.85-3.56A12.09,12.09,0,0,1,2035.5,913.29Z" transform="translate(-1580.48 -700.54)" fill="#45258f"/><path d="M2022,926.25c-.21,0-8.83-5.21-8.83-5.21l-1.61.34.57.42-1-.24-1.56.24s5.18,6.11,5.27,6.29a23.17,23.17,0,0,0,2.52,1.13C2017.59,929.3,2022,926.25,2022,926.25Z" transform="translate(-1580.48 -700.54)" fill="#9ed16f"/><path d="M2035.82,922.08l-.79-.49-.35.25v-.46l-.49-.34-12.54,5s4,2.54,4.14,2.44,7.29-1.4,7.42-1.59S2035.82,922.08,2035.82,922.08Z" transform="translate(-1580.48 -700.54)" fill="#9ed16f"/><path d="M2035.62,921.85l-14.21,4.6-11.46-5a1,1,0,0,0-1.38,1l2.18,19.52a1,1,0,0,0,.52.76l11,5.8,10-3.69.25-.38,1.3-.19,4.18-1.55a.89.89,0,0,0,.57-.9l-1.64-19.15A1,1,0,0,0,2035.62,921.85Z" transform="translate(-1580.48 -700.54)" fill="#9ed16f"/><path d="M2035.62,921.85a1,1,0,0,1,1.29.85l1.64,19.12a.92.92,0,0,1-.6.94l-4.15,1.54-1.3.19-.25.38-9.09,3.25-1.75-21.67Z" transform="translate(-1580.48 -700.54)" fill="#9ed16f" opacity="0.5" style="mix-blend-mode:multiply"/><polygon points="438.81 228.24 429.94 224.37 430.23 228.39 438.91 232.42 438.81 228.24" fill="#9ed16f"/><path d="M2040.37,941.48c0-.13.11-.32-.06-.45l-.15-.09a4.24,4.24,0,0,1-1.54-1.81,2.34,2.34,0,0,0-.26-.55c-.07-.08-.09,0-.09,0l.16,1.82-2.12.78s-3.71.58-5.54-.22c0,0-1-.68-.65.54a.67.67,0,0,0,.19.32c-.13.09-.28.3,0,1.12l0,.09a1.37,1.37,0,0,0,.53,1.43,1.5,1.5,0,0,0,1.1,1,42.88,42.88,0,0,0,4.48.75,9.35,9.35,0,0,0,2.54.17l.5.08a17.61,17.61,0,0,0,1.44-2.79C2041.06,942.94,2040.14,942.25,2040.37,941.48Z" transform="translate(-1580.48 -700.54)" fill="#efac7f"/><path d="M2040.31,941s12.86-.65,16.45-1.89a37.56,37.56,0,0,0,6.9-3.35v-3.66l12.2-.18s1.54,11.17-1.92,12.47-27.25,3.4-35,2Z" transform="translate(-1580.48 -700.54)" fill="#efac7f"/><path d="M2030.31,943a2.86,2.86,0,0,0,.8.62,4.57,4.57,0,0,0,1,.37,4.83,4.83,0,0,0,1,.15h.51l.5,0c-.34,0-.67,0-1-.07a8.05,8.05,0,0,1-1-.18,6.08,6.08,0,0,1-.93-.34A3.69,3.69,0,0,1,2030.31,943Z" transform="translate(-1580.48 -700.54)" fill="#d19369"/><path d="M2030.85,944.5a3,3,0,0,0,.85.55,4.16,4.16,0,0,0,1,.29,4.92,4.92,0,0,0,1,.08l.51,0,.5-.09c-.34,0-.67,0-1,0a6.38,6.38,0,0,1-1-.1,6.17,6.17,0,0,1-1-.26A3.88,3.88,0,0,1,2030.85,944.5Z" transform="translate(-1580.48 -700.54)" fill="#d19369"/><path d="M2030.31,941.85a2.86,2.86,0,0,0,.8.62,4.57,4.57,0,0,0,1,.37,4.83,4.83,0,0,0,1,.15,4.34,4.34,0,0,0,.51,0l.5,0c-.34,0-.67,0-1-.07a8.05,8.05,0,0,1-1-.18,7.32,7.32,0,0,1-.93-.33A4.12,4.12,0,0,1,2030.31,941.85Z" transform="translate(-1580.48 -700.54)" fill="#d19369"/><path d="M2072.83,932c-1.1,0-2.19,0-3.29,0l-3.28-.05c-1.05,0-2.09,0-3.13-.08.1-1.07.19-2.14.24-3.21s.1-2.26.09-3.39,0-2.25,0-3.38-.1-2.25-.19-3.37c0,1.13.05,2.25,0,3.38s0,2.25,0,3.37-.07,2.25-.14,3.37-.16,2.24-.28,3.36l0,.16h.16c1.1,0,2.19,0,3.29.06s2.19,0,3.29,0c2.19,0,4.39-.07,6.58-.21C2075,932,2073.92,932,2072.83,932Z" transform="translate(-1580.48 -700.54)" fill="#45258f"/><path d="M2012.49,931.49c-.14-.3-2.73.14-2.76,0s2.55-1.48,2.48-1.78-2.8.57-3,.45,2.24-2.13,1.79-2.38-2,.94-2.77,1.5a.81.81,0,0,0-.32.79l1,6.21a1.1,1.1,0,0,0,1.14.91h.09l-.15-3.37c.78,0,2.24-.11,2.11-.4s-1.37-.47-2.15-.56v-.07C2010,932.62,2012.63,931.77,2012.49,931.49Z" transform="translate(-1580.48 -700.54)" fill="#efac7f"/><path d="M1976.79,1000.36h-68.22a24.8,24.8,0,0,1-24.81-24.8V944.29a7.14,7.14,0,1,1,14.28,0v30.49a11,11,0,0,0,11,11h67.41c0,.12,0,.24,0,.36,0,.65,0,1.31,0,2s0,1.56,0,2.34,0,1.65,0,2.48,0,1.47.06,2.21a2.44,2.44,0,0,0,0,.27v.1a.22.22,0,0,0,0,.08C1976.58,997.21,1976.67,998.8,1976.79,1000.36Z" transform="translate(-1580.48 -700.54)" fill="#2ed573"/><path d="M1992.79,985.82c0,3.63,0,9.09.06,14.54h34.32V985.82Z" transform="translate(-1580.48 -700.54)" fill="#2ed573"/><path d="M2108.13,946.48v31.29a22.6,22.6,0,0,1-22.61,22.59h-52.63l0-.05,2.73-4.77c3.09-5.43,7.69-13.56,7.69-13.91,0-.15.41-3.79,1-8.93.26-2.29.56-4.88.87-7.59.1-.85.2-1.71.31-2.58.52-4.5,1.07-9.18,1.55-13.26.09-.82.18-1.62.27-2.38.3-2.54.56-4.76.75-6.42.24-2,.38-3.23.38-3.23h1.77l10.67.08h.84l10,.08,4.43,0,16.85.12,5.29,0h.91a8.89,8.89,0,0,1,8.88,8.88Z" transform="translate(-1580.48 -700.54)" fill="#2ed573"/><path d="M2049.12,937.15h0a7.14,7.14,0,0,0-7.14,7.13v30.5c0,.2,0,.41,0,.62h0a11.05,11.05,0,0,1-11,10.41h-15.09c.45,4.34,1,9.52,1.56,14.54h14a24.8,24.8,0,0,0,24.81-24.8V944.28A7.14,7.14,0,0,0,2049.12,937.15Z" transform="translate(-1580.48 -700.54)" fill="#33e279"/><path d="M2016.78,994.69c-.26-2.36-.59-5.41-.94-8.87h0c-.64-6.79-1.31-11.26-.59-10.78,2.45-.89,17.64-.14,26.71.37h0c.06-1.51,0-24.66,0-25.87-59.57,5-46.44,15.15-40.86,50.37h0c0,.15.06.3.1.45h0c2.42,11.64,4.71,21.22,4.71,21.22s8.7.35,13.76-.87C2019.69,1020.77,2018.12,1007,2016.78,994.69Z" transform="translate(-1580.48 -700.54)" fill="#45258f"/><path d="M1916.38,1028.82l7.17-4.42,6.2,3.74-2.17,1.54-7.51,1.06s-2.94-.38-3.06-.46A10,10,0,0,1,1916.38,1028.82Z" transform="translate(-1580.48 -700.54)" fill="#d19369"/><path d="M1916.38,1028.82l-1.82,1.17a1,1,0,0,0,.52,1.84l13.77.06a.86.86,0,0,0,.88-.87l0-2.88C1920.56,1031,1917.4,1030.11,1916.38,1028.82Z" transform="translate(-1580.48 -700.54)" fill="#2d185d"/><path d="M1924.2,1028.82l7.18-4.42,6.19,3.74-2.16,1.54-7.51,1.06s-2.94-.38-3.07-.46A10,10,0,0,1,1924.2,1028.82Z" transform="translate(-1580.48 -700.54)" fill="#efac7f"/><path d="M1924.2,1028.82l-1.81,1.17a1,1,0,0,0,.52,1.84l13.77.06a.87.87,0,0,0,.88-.87v-2.88C1928.39,1031,1925.23,1030.11,1924.2,1028.82Z" transform="translate(-1580.48 -700.54)" fill="#45258f"/><path d="M1962.67,902.45c3.7-2.59,1.74-3.63,3.91-5.89,1.7-1.75,2.22-3.06,2.19-4.35s-.47-2.6-2.15-4.37c-2.16-2.27-.19-3.29-3.87-5.91s-7.59,3.73-7.59,3.73l-4,5,.75,2.58-1.58,5S1959,905,1962.67,902.45Z" transform="translate(-1580.48 -700.54)" fill="#5e2e0d"/><path d="M1928.1,951.8s-15.33,5.74-16.2,10.27,5.4,61.95,8.1,64.73c0,0,5.59,1.57,10-.86s2.3-21.41,2.3-21.93,4.92-28.37,4.9-29.41,8-13.58,9.9-15.32,5-10.22,5-10.22Z" transform="translate(-1580.48 -700.54)" fill="#3b77be"/><path d="M1973.25,947.49s1.2,15-3,20.38-28,5.46-28,5.46l-4.72,54.81a103.21,103.21,0,0,1-10.36-1.17s-3.33-60.42,1-64.47,23.9-13.44,23.9-13.44Z" transform="translate(-1580.48 -700.54)" fill="#3797db"/><path d="M1948.52,875.63s-6.38-2.44-10.15,2.93a10.49,10.49,0,0,0,1.23,13.31l1.42,1.45s5.81-6.24,5.88-6.54S1948.52,875.63,1948.52,875.63Z" transform="translate(-1580.48 -700.54)" fill="#5e2e0d"/><path d="M1944.2,906.46s9-1.65,13.11-1.51-2.5,10.87-2.5,10.87l-6.75.15s-4.13-4.62-3.86-5.15,0-4.06,0-4.06Z" transform="translate(-1580.48 -700.54)" fill="#efac7f"/><path d="M1954.31,897.49l1.61,7.39s-2.49,4-8.58,1.55c0,0,.87-1.41.22-4.56S1954.31,897.49,1954.31,897.49Z" transform="translate(-1580.48 -700.54)" fill="#efac7f"/><path d="M1954.31,897.49l.76,3.45c-.91,2.38-3.23,3.82-7.31,3.91a10,10,0,0,0-.2-3C1946.9,898.65,1954.31,897.49,1954.31,897.49Z" transform="translate(-1580.48 -700.54)" fill="#d19369" opacity="0.6"/><path d="M1940.48,890.76a1.89,1.89,0,1,1-2.46-1.63A2.11,2.11,0,0,1,1940.48,890.76Z" transform="translate(-1580.48 -700.54)" fill="#d19369"/><path d="M1940.28,897.67a9.51,9.51,0,0,1-.61-1.67,18.12,18.12,0,0,1-.64-4.6c0-.3,0-.6,0-.9a9.69,9.69,0,0,1,.37-3.78,9.87,9.87,0,0,1,19.29,3.59,2.1,2.1,0,0,1,1.92,0,3,3,0,0,1-2.77,5.1,2.59,2.59,0,0,1-.42-.32,9.23,9.23,0,0,1-9.82,7.74,8.81,8.81,0,0,1-5.8-3c-.09-.1-.2-.21-.3-.34A9,9,0,0,1,1940.28,897.67Z" transform="translate(-1580.48 -700.54)" fill="#efac7f"/><path d="M1946.6,889.28a6,6,0,0,1,.14,1.69,4.34,4.34,0,0,1-.12.86,2.06,2.06,0,0,1-.39.84l-.09.1-.08.08s-.09.07-.11.12a.62.62,0,0,0-.14.25.75.75,0,0,0,.13.6,2.31,2.31,0,0,0,1.29.83,1.89,1.89,0,0,1-1.62-.57,1.19,1.19,0,0,1-.3-1,.75.75,0,0,1,.09-.25.86.86,0,0,1,.13-.23,1.09,1.09,0,0,1,.18-.19l.06-.06,0-.06a1.91,1.91,0,0,0,.31-.64,6.36,6.36,0,0,0,.2-.78C1946.43,890.38,1946.51,889.84,1946.6,889.28Z" transform="translate(-1580.48 -700.54)" fill="#d19369"/><path d="M1949.74,890.48a.86.86,0,1,0,.94-.78A.86.86,0,0,0,1949.74,890.48Z" transform="translate(-1580.48 -700.54)" fill="#333"/><path d="M1942.33,890.27a.86.86,0,1,0,.94-.78A.86.86,0,0,0,1942.33,890.27Z" transform="translate(-1580.48 -700.54)" fill="#333"/><path d="M1949.21,897a2.92,2.92,0,0,0-2.41.07,2.15,2.15,0,0,0-2.23-.27,2.38,2.38,0,0,0,2.33,2A2.12,2.12,0,0,0,1949.21,897Z" transform="translate(-1580.48 -700.54)" fill="#d19369" opacity="0.3" style="mix-blend-mode:multiply"/><path d="M1950.35,896.45a7.44,7.44,0,0,1-.78.44,6.38,6.38,0,0,1-.82.33,5.35,5.35,0,0,1-1.73.27,4.56,4.56,0,0,1-1.7-.37,6.17,6.17,0,0,1-1.49-1,5.46,5.46,0,0,0,.65.62,4.77,4.77,0,0,0,.77.49,4.22,4.22,0,0,0,.86.32,4.53,4.53,0,0,0,.91.12,4.78,4.78,0,0,0,1.79-.34A5.15,5.15,0,0,0,1950.35,896.45Z" transform="translate(-1580.48 -700.54)" fill="#d19369"/><path d="M1948.94,888.4a10,10,0,0,1,1.29-.12,4.27,4.27,0,0,1,1.19.14,4.15,4.15,0,0,1,1.09.46,4.41,4.41,0,0,1,.53.35c.18.12.34.26.54.39a3.5,3.5,0,0,0-.29-.62,2.93,2.93,0,0,0-.45-.54,2.76,2.76,0,0,0-1.25-.69,2.89,2.89,0,0,0-1.43,0A2.72,2.72,0,0,0,1948.94,888.4Z" transform="translate(-1580.48 -700.54)" fill="#5e2e0d"/><path d="M1945.12,888.29a2.68,2.68,0,0,0-1.16-.75,3,3,0,0,0-1.42-.11,3,3,0,0,0-1.8,1.08,3.61,3.61,0,0,0-.35.6c.21-.11.38-.24.57-.35s.36-.22.56-.29a3.94,3.94,0,0,1,1.13-.37,4.36,4.36,0,0,1,1.2,0A8.75,8.75,0,0,1,1945.12,888.29Z" transform="translate(-1580.48 -700.54)" fill="#5e2e0d"/><path d="M1934,924s-.82,20.36-3.11,23.54l12.6-2.86V922.48Z" transform="translate(-1580.48 -700.54)" fill="#efac7f"/><path d="M1939.36,926.73a53.43,53.43,0,0,1,2.07,7.84A32.31,32.31,0,0,1,1940,950c-2,5.39,14.07,3.43,14.4,3.27s14.07-5.48,14.07-5.48l2.62-7.6V926.73l-.74-6.13Z" transform="translate(-1580.48 -700.54)" fill="#d1eaf2"/><path d="M1977.76,920.6,1967.67,924s1.74,16.13,1.2,18.42c-.47,2-7.79,5.85-12.42,8a4.7,4.7,0,0,1-2.39.43c-2.65-.22-7.33-.63-8.06-.68-1.16-.08-4.33,0-4.43.41s2.48,0,4.15.31c.23,0,.11.36,0,.36a22.25,22.25,0,0,0-3.91.38c-.92.31,2.33.06,4.09.39.12,0,.22.37.13.46s-1,.38-3.08.6c-3.5.35-.07.79-.07.79s.31-.09,3.32-.5c.11,0,.24.29.07.44a5.11,5.11,0,0,1-1.87,1c-1.13.34-.31.63-.31.63a21.68,21.68,0,0,1,3.33-.73c.9-.06,5.12.28,6.85.38l.13-.3c2.35-.07,21.07-.55,22.87-12.15A84.45,84.45,0,0,0,1977.76,920.6Z" transform="translate(-1580.48 -700.54)" fill="#efac7f"/><path d="M1904.41,932.15h32.16l9.12,22.24h15.49a.78.78,0,0,1,.78.78h0a.78.78,0,0,1-.78.78H1915.1Z" transform="translate(-1580.48 -700.54)" fill="#9ed16f"/><path d="M1920.36,944.84a1.54,1.54,0,1,0,1.16-2A1.65,1.65,0,0,0,1920.36,944.84Z" transform="translate(-1580.48 -700.54)" fill="#fff"/><path d="M1944.2,906.46s6.11,7.12,13.11-1.51c0,0,7.66-.63,13.31,3.38s9,13,9,13-10.23,5.15-12.76,5.4h-28.39a25.33,25.33,0,0,1-8.51-2.45S1930.7,910,1944.2,906.46Z" transform="translate(-1580.48 -700.54)" fill="#d1eaf2"/><path d="M1962.33,916c.29.87.55,1.76.81,2.64s.51,1.78.74,2.67.45,1.78.65,2.69.38,1.8.53,2.72l-.22-.22a5.89,5.89,0,0,0,.94,0l1-.12c.64-.11,1.28-.24,1.92-.41l.48-.13.47-.14c.31-.1.63-.19.94-.31l.94-.32.92-.36c.62-.23,1.22-.5,1.84-.75l1.81-.83,1.79-.86,1.78-.91c-.56.36-1.13.71-1.7,1s-1.16.67-1.74,1l-1.78.91-.91.42c-.3.14-.6.29-.92.41a27.43,27.43,0,0,1-3.79,1.33l-.48.14-.5.11c-.32.08-.66.13-1,.19s-.67.09-1,.11a5.38,5.38,0,0,1-1.06,0l-.19,0,0-.19c-.27-1.81-.64-3.61-1-5.41l-.59-2.69Z" transform="translate(-1580.48 -700.54)" fill="#fff"/><path d="M1940.75,913.9c-.4,1.05-.77,2.1-1.09,3.16a27.83,27.83,0,0,0-.79,3.21,14.84,14.84,0,0,0-.22,1.63,12.79,12.79,0,0,0,0,1.64,42.81,42.81,0,0,0,2.14,7.24,32.38,32.38,0,0,1-2.56-7.21,11.74,11.74,0,0,1,.15-3.4c.11-.55.23-1.1.38-1.65s.34-1.08.54-1.6A17.65,17.65,0,0,1,1940.75,913.9Z" transform="translate(-1580.48 -700.54)" fill="#fff"/><path d="M1958.64,890.31s-10.17-3.6-14.42-11.21c0,0,.28-6.67,9.63-3.93C1960.33,877.07,1962.59,885.84,1958.64,890.31Z" transform="translate(-1580.48 -700.54)" fill="#5e2e0d"/><path d="M2053.59,890.78c-.76.12-1.51.2-2.26.31a21.93,21.93,0,0,0-2.24.4,5.84,5.84,0,0,1,2.2-.69A8.44,8.44,0,0,1,2053.59,890.78Z" transform="translate(-1580.48 -700.54)" fill="#d19369"/><polygon points="330.97 302.41 330.82 302.98 324.71 326.96 323.59 331.38 320.56 331.38 321.58 327.38 327.79 302.98 328.12 301.68 330.97 302.41" fill="#9ed16f"/><polygon points="506.17 331.36 503.14 331.36 501.91 326.53 495.91 302.98 495.76 302.39 498.61 301.66 498.95 302.98 505.03 326.9 506.17 331.36" fill="#9ed16f"/><polygon points="470.94 331.37 467.91 331.37 475.47 301.67 478.32 302.39 470.94 331.37" fill="#9ed16f"/><path d="M2022.05,926.09l1.11,22a.54.54,0,0,1-.59.57l-1-.09a.55.55,0,0,1-.5-.52l-.65-22.16A1.7,1.7,0,0,1,2022.05,926.09Z" transform="translate(-1580.48 -700.54)" fill="#799e51"/><rect x="1657.57" y="803.8" width="89.19" height="5.1" transform="translate(1823.84 912.16) rotate(-180)" fill="#9ed16f"/><rect x="1644.45" y="847.25" width="89.19" height="5.1" transform="translate(1797.6 999.06) rotate(-180)" fill="#9ed16f"/><ellipse cx="136.24" cy="24.47" rx="24.48" ry="24.47" fill="#33e279"/><path d="M1695.19,723.66a21.57,21.57,0,1,0,22.88-20.16A21.56,21.56,0,0,0,1695.19,723.66Z" transform="translate(-1580.48 -700.54)" fill="#e5ffed"/><rect x="1733.99" y="721.27" width="0.56" height="7.26" transform="translate(-571.11 1758.62) rotate(-90)" fill="#33e279"/><rect x="1698.84" y="721.27" width="0.56" height="7.26" transform="translate(-606.26 1723.48) rotate(-90)" fill="#33e279"/><rect x="1716.47" y="703.99" width="0.56" height="7.25" transform="translate(1853.01 714.7) rotate(-180)" fill="#33e279"/><rect x="1716.47" y="738.97" width="0.56" height="7.25" transform="translate(1853.01 784.65) rotate(-180)" fill="#33e279"/><path d="M1716.11,725a.61.61,0,1,0,.61-.6A.6.6,0,0,0,1716.11,725Z" transform="translate(-1580.48 -700.54)" fill="#33e279"/><path d="M1716.72,725.28a.31.31,0,0,0,.19-.08l10.79-10.79a.26.26,0,0,0,0-.38.25.25,0,0,0-.37,0l-10.8,10.79a.26.26,0,0,0,0,.38A.27.27,0,0,0,1716.72,725.28Z" transform="translate(-1580.48 -700.54)" fill="#33e279"/><path d="M1713.24,735.91a.18.18,0,0,0,.1-.11l3.49-10.54a.18.18,0,0,0-.12-.24.19.19,0,0,0-.25.12L1713,735.68a.19.19,0,0,0,.12.24A.16.16,0,0,0,1713.24,735.91Z" transform="translate(-1580.48 -700.54)" fill="#33e279"/><path d="M2148.63,852.1v297.07h-566.5s-4.85-25.84,2.07-50.74c0,0,0,0,0,0,8-43.91,36.78-86.47,103-134.65,34-24.78,42.82-78.9,68.85-122V959.37a3.15,3.15,0,0,0,3.15,3.16h124.58v13a24.8,24.8,0,0,0,24.81,24.8h-7.44a.63.63,0,0,0-.62.63v1.91a.63.63,0,0,0,.62.63h7.14l-6.21,24.4c-8.33,1.19-13.07,2.55-13.07,4,0,4.61,47.75,8.34,106.64,8.34s106.64-3.73,106.64-8.34c0-1.65-6.15-3.19-16.76-4.48l-6.08-23.92h7.79a.63.63,0,0,0,.63-.63V1001a.63.63,0,0,0-.63-.63h-1.7a22.6,22.6,0,0,0,22.61-22.59V946.48a8.83,8.83,0,0,0-2.89-6.55V912a2.41,2.41,0,0,0-2.41-2.41h-28.12a14.39,14.39,0,0,0-2.94-5.85V877.81C2105.82,884.85,2139.81,868.86,2148.63,852.1Z" transform="translate(-1580.48 -700.54)" fill="#e5ffed"/></g></g></svg>