<svg id="Globe" xmlns="http://www.w3.org/2000/svg" viewBox="0 0 447.54 376.53"><rect x="364.32" y="343.29" width="33.12" height="0.25" fill="#ebebeb"/><rect x="270.07" y="346.01" width="8.69" height="0.25" fill="#ebebeb"/><rect x="344.13" y="334.01" width="19.19" height="0.25" fill="#ebebeb"/><rect y="335.69" width="43.19" height="0.25" fill="#ebebeb"/><rect x="52.1" y="335.69" width="6.33" height="0.25" fill="#ebebeb"/><rect x="79.01" y="339.91" width="93.68" height="0.25" fill="#ebebeb"/><rect x="61.51" y="327.2" width="386.03" height="0.25" fill="#ebebeb"/><rect x="253.9" y="39.62" width="128.9" height="285.02" fill="#e0e0e0"/><path d="M426.87,94.49v290h23.75v-290Z" transform="translate(-44.08 -57.37)" fill="#e6e6e6"/><path d="M275.36,94.49v290h23.75v-290Z" transform="translate(-44.08 -57.37)" fill="#e6e6e6"/><path d="M271.33,94.49v290H429.72v-290Zm152.69,5v52H277v-52Zm-147,166v-52H424v52Zm147,5v52H277v-52Zm-147-62v-52H424v52Zm0,171v-52H424v52Z" transform="translate(-44.08 -57.37)" fill="#f5f5f5"/><rect x="372.67" y="111.62" width="5.48" height="40.35" transform="translate(706.74 206.22) rotate(180)" fill="#e6e6e6"/><rect x="378.15" y="111.62" width="5.48" height="40.35" transform="translate(717.7 206.22) rotate(180)" fill="#e0e0e0"/><rect x="361.71" y="114.46" width="10.96" height="37.52" transform="translate(690.3 209.06) rotate(180)" fill="#e6e6e6"/><rect x="349.15" y="111.62" width="7.08" height="40.35" transform="translate(661.31 206.22) rotate(180)" fill="#f0f0f0"/><rect x="356.23" y="111.62" width="5.48" height="40.35" transform="translate(673.87 206.22) rotate(180)" fill="#ebebeb"/><rect x="307.6" y="111.62" width="7.08" height="40.35" transform="translate(578.2 206.22) rotate(180)" fill="#e6e6e6"/><rect x="314.68" y="111.62" width="5.48" height="40.35" transform="translate(590.76 206.22) rotate(180)" fill="#ebebeb"/><rect x="331.11" y="111.62" width="7.08" height="40.35" transform="translate(625.23 206.22) rotate(180)" fill="#e6e6e6"/><rect x="338.2" y="111.62" width="5.48" height="40.35" transform="translate(637.79 206.22) rotate(180)" fill="#e0e0e0"/><rect x="296.64" y="112.58" width="10.96" height="39.4" transform="translate(560.16 207.18) rotate(180)" fill="#ebebeb"/><rect x="291.16" y="112.58" width="5.48" height="39.4" transform="translate(543.73 207.18) rotate(180)" fill="#e0e0e0"/><rect x="323.81" y="112.58" width="7.3" height="39.4" transform="translate(610.85 207.18) rotate(180)" fill="#e0e0e0"/><rect x="320.16" y="112.58" width="3.65" height="39.4" transform="translate(599.89 207.18) rotate(180)" fill="#f0f0f0"/><rect x="338.19" y="114.46" width="10.96" height="37.52" transform="translate(643.27 209.06) rotate(180)" fill="#f5f5f5"/><rect x="400.06" y="111.62" width="7.08" height="40.35" transform="translate(763.13 206.22) rotate(180)" fill="#ebebeb"/><rect x="407.14" y="111.62" width="5.48" height="40.35" transform="translate(775.69 206.22) rotate(180)" fill="#e6e6e6"/><rect x="389.1" y="112.58" width="10.96" height="39.4" transform="translate(745.09 207.18) rotate(180)" fill="#e0e0e0"/><rect x="383.63" y="112.58" width="5.48" height="39.4" transform="translate(728.65 207.18) rotate(180)" fill="#ebebeb"/><rect x="416.27" y="112.58" width="7.3" height="39.4" transform="translate(795.77 207.18) rotate(180)" fill="#ebebeb"/><rect x="412.62" y="112.58" width="3.65" height="39.4" transform="translate(784.82 207.18) rotate(180)" fill="#fafafa"/><rect x="292.52" y="110.75" width="5.48" height="40.35" fill="#e6e6e6"/><rect x="287.04" y="110.75" width="5.48" height="40.35" fill="#e0e0e0"/><rect x="297.99" y="113.59" width="10.96" height="37.52" fill="#e6e6e6"/><rect x="314.43" y="110.75" width="7.08" height="40.35" fill="#f0f0f0"/><rect x="308.95" y="110.75" width="5.48" height="40.35" fill="#ebebeb"/><rect x="355.98" y="110.75" width="7.08" height="40.35" fill="#e6e6e6"/><rect x="350.51" y="110.75" width="5.48" height="40.35" fill="#ebebeb"/><rect x="332.47" y="110.75" width="7.08" height="40.35" fill="#e6e6e6"/><rect x="326.99" y="110.75" width="5.48" height="40.35" fill="#e0e0e0"/><rect x="363.06" y="111.71" width="10.96" height="39.4" fill="#ebebeb"/><rect x="374.02" y="111.71" width="5.48" height="39.4" fill="#e0e0e0"/><rect x="339.55" y="111.71" width="7.3" height="39.4" fill="#e0e0e0"/><rect x="346.85" y="111.71" width="3.65" height="39.4" fill="#f0f0f0"/><rect x="321.51" y="113.59" width="10.96" height="37.52" fill="#f5f5f5"/><rect x="263.52" y="110.75" width="7.08" height="40.35" fill="#ebebeb"/><rect x="258.04" y="110.75" width="5.48" height="40.35" fill="#e6e6e6"/><rect x="270.6" y="111.71" width="10.96" height="39.4" fill="#e0e0e0"/><rect x="281.56" y="111.71" width="5.48" height="39.4" fill="#ebebeb"/><rect x="247.09" y="111.71" width="7.3" height="39.4" fill="#ebebeb"/><rect x="254.39" y="111.71" width="3.65" height="39.4" fill="#fafafa"/><rect x="292.52" y="168.26" width="5.48" height="40.35" fill="#e6e6e6"/><rect x="287.04" y="168.26" width="5.48" height="40.35" fill="#e0e0e0"/><rect x="297.99" y="171.09" width="10.96" height="37.52" fill="#e6e6e6"/><rect x="314.43" y="168.26" width="7.08" height="40.35" fill="#f0f0f0"/><rect x="308.95" y="168.26" width="5.48" height="40.35" fill="#ebebeb"/><rect x="355.98" y="168.26" width="7.08" height="40.35" fill="#e6e6e6"/><rect x="350.51" y="168.26" width="5.48" height="40.35" fill="#ebebeb"/><rect x="332.47" y="168.26" width="7.08" height="40.35" fill="#e6e6e6"/><rect x="326.99" y="168.26" width="5.48" height="40.35" fill="#e0e0e0"/><rect x="363.06" y="169.21" width="10.96" height="39.4" fill="#ebebeb"/><rect x="374.02" y="169.21" width="5.48" height="39.4" fill="#e0e0e0"/><rect x="339.55" y="169.21" width="7.3" height="39.4" fill="#e0e0e0"/><rect x="346.85" y="169.21" width="3.65" height="39.4" fill="#f0f0f0"/><rect x="321.51" y="171.09" width="10.96" height="37.52" fill="#f5f5f5"/><rect x="263.52" y="168.26" width="7.08" height="40.35" fill="#ebebeb"/><rect x="258.04" y="168.26" width="5.48" height="40.35" fill="#e6e6e6"/><rect x="270.6" y="169.21" width="10.96" height="39.4" fill="#e0e0e0"/><rect x="281.56" y="169.21" width="5.48" height="39.4" fill="#ebebeb"/><rect x="247.09" y="169.21" width="7.3" height="39.4" fill="#ebebeb"/><rect x="254.39" y="169.21" width="3.65" height="39.4" fill="#fafafa"/><rect x="372.67" y="283.13" width="5.48" height="40.35" transform="translate(706.74 549.25) rotate(180)" fill="#e6e6e6"/><rect x="378.15" y="283.13" width="5.48" height="40.35" transform="translate(717.7 549.25) rotate(180)" fill="#e0e0e0"/><rect x="361.71" y="283.13" width="10.96" height="37.52" transform="translate(690.3 546.41) rotate(180)" fill="#e6e6e6"/><rect x="349.15" y="283.13" width="7.08" height="40.35" transform="translate(661.31 549.25) rotate(180)" fill="#f0f0f0"/><rect x="356.23" y="283.13" width="5.48" height="40.35" transform="translate(673.87 549.25) rotate(180)" fill="#ebebeb"/><rect x="307.6" y="283.13" width="7.08" height="40.35" transform="translate(578.2 549.25) rotate(180)" fill="#e6e6e6"/><rect x="314.68" y="283.13" width="5.48" height="40.35" transform="translate(590.76 549.25) rotate(180)" fill="#ebebeb"/><rect x="331.11" y="283.13" width="7.08" height="40.35" transform="translate(625.23 549.25) rotate(180)" fill="#e6e6e6"/><rect x="338.2" y="283.13" width="5.48" height="40.35" transform="translate(637.79 549.25) rotate(180)" fill="#e0e0e0"/><rect x="296.64" y="283.13" width="10.96" height="39.4" transform="translate(560.16 548.29) rotate(180)" fill="#ebebeb"/><rect x="291.16" y="283.13" width="5.48" height="39.4" transform="translate(543.73 548.29) rotate(180)" fill="#e0e0e0"/><rect x="323.81" y="283.13" width="7.3" height="39.4" transform="translate(610.85 548.29) rotate(180)" fill="#e0e0e0"/><rect x="320.16" y="283.13" width="3.65" height="39.4" transform="translate(599.89 548.29) rotate(180)" fill="#f0f0f0"/><rect x="338.19" y="283.13" width="10.96" height="37.52" transform="translate(643.27 546.41) rotate(180)" fill="#f5f5f5"/><rect x="400.06" y="283.13" width="7.08" height="40.35" transform="translate(763.13 549.25) rotate(180)" fill="#ebebeb"/><rect x="407.14" y="283.13" width="5.48" height="40.35" transform="translate(775.69 549.25) rotate(180)" fill="#e6e6e6"/><rect x="389.1" y="283.13" width="10.96" height="39.4" transform="translate(745.09 548.29) rotate(180)" fill="#e0e0e0"/><rect x="383.63" y="283.13" width="5.48" height="39.4" transform="translate(728.65 548.29) rotate(180)" fill="#ebebeb"/><rect x="416.27" y="283.13" width="7.3" height="39.4" transform="translate(795.77 548.29) rotate(180)" fill="#ebebeb"/><rect x="412.62" y="283.13" width="3.65" height="39.4" transform="translate(784.82 548.29) rotate(180)" fill="#fafafa"/><rect x="292.52" y="283.26" width="5.48" height="40.35" fill="#e6e6e6"/><rect x="287.04" y="283.26" width="5.48" height="40.35" fill="#e0e0e0"/><rect x="297.99" y="283.26" width="10.96" height="37.52" fill="#e6e6e6"/><rect x="314.43" y="283.26" width="7.08" height="40.35" fill="#f0f0f0"/><rect x="308.95" y="283.26" width="5.48" height="40.35" fill="#ebebeb"/><rect x="355.98" y="283.26" width="7.08" height="40.35" fill="#e6e6e6"/><rect x="350.51" y="283.26" width="5.48" height="40.35" fill="#ebebeb"/><rect x="332.47" y="283.26" width="7.08" height="40.35" fill="#e6e6e6"/><rect x="326.99" y="283.26" width="5.48" height="40.35" fill="#e0e0e0"/><rect x="363.06" y="283.26" width="10.96" height="39.4" fill="#ebebeb"/><rect x="374.02" y="283.26" width="5.48" height="39.4" fill="#e0e0e0"/><rect x="339.55" y="283.26" width="7.3" height="39.4" fill="#e0e0e0"/><rect x="346.85" y="283.26" width="3.65" height="39.4" fill="#f0f0f0"/><rect x="321.51" y="283.26" width="10.96" height="37.52" fill="#f5f5f5"/><rect x="263.52" y="283.26" width="7.08" height="40.35" fill="#ebebeb"/><rect x="258.04" y="283.26" width="5.48" height="40.35" fill="#e6e6e6"/><rect x="270.6" y="283.26" width="10.96" height="39.4" fill="#e0e0e0"/><rect x="281.56" y="283.26" width="5.48" height="39.4" fill="#ebebeb"/><rect x="247.09" y="283.26" width="7.3" height="39.4" fill="#ebebeb"/><rect x="254.39" y="283.26" width="3.65" height="39.4" fill="#fafafa"/><path d="M139.74,102.8c.89,4.75,1.49,13.63,1.49,23.82s-.6,19.07-1.49,23.82a3.89,3.89,0,0,1,1.32.87c1.55,1.55,1,4.61,0,5.6s-4.05,1.55-5.59,0c-.33-.33-.37-.91-.77-1.11-3.31-1.64-9.63,1.28-16.45,1.28s-13.14-2.91-16.45-1.28c-1.33.66-2,2.27-3.57,2.27s-2.24-1.61-3.56-2.27c-3.32-1.63-9.64,1.28-16.45,1.28s-13.14-2.92-16.46-1.28c-.39.2-.43.78-.76,1.11-1.55,1.55-4.61,1-5.6,0s-1.54-4,0-5.6c.39-.39,1.07-.41,1.32-.87,2.32-4.24-1.49-13.63-1.49-23.82S59,107,56.72,102.8c-.25-.45-.93-.48-1.32-.87-1.54-1.55-1-4.61,0-5.6s4.05-1.54,5.6,0c.33.33.37.91.76,1.11,3.32,1.64,9.64-1.28,16.46-1.28s13.13,2.91,16.45,1.28c1.32-.66,2-2.27,3.56-2.27s2.24,1.61,3.57,2.27c3.31,1.63,9.63-1.28,16.45-1.28s13.14,2.92,16.45,1.28c.4-.2.44-.78.77-1.11,1.54-1.54,4.6-1,5.59,0s1.55,4,0,5.6A3.89,3.89,0,0,1,139.74,102.8Z" transform="translate(-44.08 -57.37)" fill="#e0e0e0"/><path d="M137.94,101c.89,4.75,1.49,13.64,1.49,23.83s-.6,19.07-1.49,23.82a3.89,3.89,0,0,1,1.32.87c1.54,1.54,1,4.61,0,5.6s-4,1.54-5.6,0c-.33-.33-.37-.92-.76-1.11-3.31-1.64-9.64,1.28-16.46,1.28S103.31,152.36,100,154c-1.32.65-2,2.26-3.56,2.26s-2.24-1.61-3.57-2.26c-3.31-1.64-9.63,1.28-16.45,1.28S63.27,152.36,60,154c-.4.19-.44.78-.77,1.11-1.54,1.54-4.6,1-5.59,0s-1.55-4.06,0-5.6c.39-.39,1.07-.42,1.32-.87,2.32-4.24-1.49-13.64-1.49-23.82s3.81-19.59,1.49-23.83c-.25-.45-.93-.48-1.32-.87-1.55-1.54-1-4.6,0-5.59s4-1.55,5.59,0c.33.33.37.91.77,1.11,3.31,1.63,9.63-1.28,16.45-1.28s13.14,2.91,16.45,1.27c1.33-.65,2-2.26,3.57-2.26S98.67,95,100,95.63c3.32,1.64,9.64-1.27,16.45-1.27s13.15,2.91,16.46,1.28c.39-.2.43-.78.76-1.11,1.55-1.55,4.61-1,5.6,0s1.54,4,0,5.59A3.89,3.89,0,0,1,137.94,101Z" transform="translate(-44.08 -57.37)" fill="#fafafa"/><rect x="72.59" y="89.29" width="47.68" height="71.06" transform="translate(177.17 -28.99) rotate(90)" fill="#ebebeb"/><rect x="75.88" y="94.19" width="41.1" height="61.26" transform="translate(177.17 -28.99) rotate(90)" fill="#f5f5f5"/><circle cx="86.23" cy="126.62" r="8.25" transform="translate(-70.86 -34.18) rotate(-13.28)" fill="#e0e0e0"/><polygon points="74.2 61 59.78 73.06 74.2 77.49 74.2 61" fill="#ebebeb"/><path d="M76,112.57c9.39-5.77,21.06-1.6,28.72,5,1.18,1-.53,2.7-1.7,1.69-6.84-5.85-17.38-9.75-25.81-4.58-1.32.81-2.53-1.26-1.21-2.07Z" transform="translate(-44.08 -57.37)" fill="#ebebeb"/><polygon points="25.62 79.47 30.13 75.06 33.9 79.47 29.76 83.47 25.62 79.47" fill="#ebebeb"/><path d="M67.05,223.4S71.8,244,70,264.24a254.77,254.77,0,0,1-5.19,31.48s21.58-2.49,47-3.34A293.25,293.25,0,0,1,174,297l17.31,1.72s-10.68-46.2-1.85-74.29Z" transform="translate(-44.08 -57.37)" fill="#fafafa"/><polygon points="149.93 173.73 16.34 173.3 16.34 162.15 149.42 160.03 149.93 173.73" fill="#ebebeb"/><path d="M89.88,219.31l-.72-.64,37.43-41.89a3.35,3.35,0,0,1,4.94-.05l37.59,40.34-.71.66-37.59-40.34a2.41,2.41,0,0,0-1.76-.76,2.38,2.38,0,0,0-1.75.8Z" transform="translate(-44.08 -57.37)" fill="#f5f5f5"/><path d="M130.32,177.32a1.18,1.18,0,1,1-1.18-1.17A1.18,1.18,0,0,1,130.32,177.32Z" transform="translate(-44.08 -57.37)" fill="#e0e0e0"/><path d="M147.5,245.74a16.27,16.27,0,0,0-4.51,4.73l3.92,3.47a10.21,10.21,0,0,1,1.1-2.84,3.55,3.55,0,0,1,2.42-1.72,3.78,3.78,0,0,1,1.72.23,12.77,12.77,0,0,1,4.27,3c1.58-.2,2.31-2.31,1.64-3.74a5.62,5.62,0,0,0-3.76-2.68,52.24,52.24,0,0,1,4.66-4.75c-.74-1.72-3.12-2.16-4.83-1.41a10.81,10.81,0,0,0-4,3.83c.52-.71-3.32-5-4.1-5.22-2.16-.72-3.74,1.5-4.82,3.06A21.29,21.29,0,0,1,147.5,245.74Z" transform="translate(-44.08 -57.37)" fill="#ebebeb"/><path d="M86.79,283.49l-.46-.12Zm-.44-.11-.49-.13,0-.1Z" transform="translate(-44.08 -57.37)" fill="#e0e0e0"/><path d="M87.55,281.67l-.89-.39c.54-1.23,1.14-2.49,1.79-3.73h0c.3-.59.62-1.2,1-1.83l.85.47c-.35.62-.67,1.22-1,1.8l-.42-.22.42.22C88.67,279.22,88.08,280.45,87.55,281.67Z" transform="translate(-44.08 -57.37)" fill="#e0e0e0"/><path d="M92.37,272.69l-.81-.52v0ZM93.51,271l-.79-.56c.83-1.17,1.68-2.27,2.55-3.28l.36.31-.36-.31c.45-.53.91-1.05,1.39-1.55l.7.67c-.47.49-.92,1-1.36,1.5h0C95.16,268.78,94.32,269.86,93.51,271Zm46.77-7H140c-.75,0-1.53,0-2.34-.07l0-1c.8,0,1.58.06,2.32.08h.31c.45,0,.93,0,1.42-.06h0a19.32,19.32,0,0,0,2-.25l.17,1c-.69.12-1.4.21-2.08.27l0-.5,0,.5C141.26,264,140.75,264.05,140.28,264.05Zm-4.76-.2,0-1h.08Zm-35.2-.28-.61-.75.07-.05Zm31.11-.09c-.67-.08-1.36-.16-2.05-.26l.06-.47-.06.47c-1.37-.18-2.74-.4-4.08-.64l.17-.95c1.33.24,2.68.45,4,.64h0l2,.25Zm16.44-.9-.36-.89.09,0Zm-45.9-.21-.53-.8a19.88,19.88,0,0,1,3.72-2v0a17.94,17.94,0,0,1,2-.64l.24.94a15.43,15.43,0,0,0-1.9.6h0A19.43,19.43,0,0,0,102,262.37Zm21.28-.19.17-.95h.08Zm26.56-.57-.5-.83a7,7,0,0,0,2.68-2.69h0a5,5,0,0,0,.52-1.78l1,.1a5.65,5.65,0,0,1-.63,2.12l-.19-.1.2.11A8,8,0,0,1,149.81,261.61Zm-30.57-.37-2-.54.14-.47-.14.47c-.58-.16-1.16-.34-1.74-.52a15.82,15.82,0,0,0-2.17-.51l.15-1a17.07,17.07,0,0,1,2.3.55l1.73.51,2,.54Zm-7.93-1.77,0-1h.09Z" transform="translate(-44.08 -57.37)" fill="#e0e0e0"/><polygon points="107.66 195.2 107.62 195.11 108.55 194.83 107.66 195.2" fill="#e0e0e0"/><ellipse id="_Path_" data-name="&lt;Path&gt;" cx="197.54" cy="360.49" rx="193.89" ry="11.32" fill="#f5f5f5"/><path d="M304.42,186.78c-4.15,4.73-9.62,7.76-14.48,11.59s-9.38,9.07-10.1,15.56c-.77,6.93,2.93,13.49,3.58,20.43,1.2,12.8-9.08,24.7-20.71,26.64s-23.46-4.5-31.3-14.09c-4.12-5.06-7.42-11.17-8.21-17.9-1.35-11.48,4.68-22.78,3.73-34.31-1.07-13-10.66-23.17-20.45-30.69S185.73,149.92,179.22,139c-7.84-13.21-7.51-31.08-.91-45.08S197.09,69.64,210.53,64s28.09-7,42.47-6.5c8.79.34,17.68,1.41,25.84,5s15.57,10,19.29,18.67c4.43,10.32,3.15,22,.56,33.33a19.79,19.79,0,0,0,2.57,15.1,76,76,0,0,1,8.37,16.77C314.22,159.8,313.51,176.43,304.42,186.78Z" transform="translate(-44.08 -57.37)" fill="#e9ffea"/><g opacity="0.7"><path d="M304.42,186.78c-4.15,4.73-9.62,7.76-14.48,11.59s-9.38,9.07-10.1,15.56c-.77,6.93,2.93,13.49,3.58,20.43,1.2,12.8-9.08,24.7-20.71,26.64s-23.46-4.5-31.3-14.09c-4.12-5.06-7.42-11.17-8.21-17.9-1.35-11.48,4.68-22.78,3.73-34.31-1.07-13-10.66-23.17-20.45-30.69S185.73,149.92,179.22,139c-7.84-13.21-7.51-31.08-.91-45.08S197.09,69.64,210.53,64s28.09-7,42.47-6.5c8.79.34,17.68,1.41,25.84,5s15.57,10,19.29,18.67c4.43,10.32,3.15,22,.56,33.33a19.79,19.79,0,0,0,2.57,15.1,76,76,0,0,1,8.37,16.77C314.22,159.8,313.51,176.43,304.42,186.78Z" transform="translate(-44.08 -57.37)" fill="#e9ffea"/></g><circle cx="160.62" cy="49.99" r="27.16" fill="#7cd178"/><g opacity="0.9"><path d="M208.33,82.17l3.43,2v3.27s-2.6-.35-3.43-1.77c0,0,.71-.3-1.29-1.5S205.5,81.57,208.33,82.17Z" transform="translate(-44.08 -57.37)" fill="#fff"/><path d="M206.44,108.15l-2,.95s-.59,1.14-.48,1.1-.43,2.36-.31,2.4-1.14,1.06-1.14,1.06l-.59,1.46v1.69l2.84,3.86,2.08,1.18-1.81,9.92.74.28,9.45-6.93.63-1.69,2.8-1.11,1.49-3.89,1.69-2s.16-2,0-1.93-.9.32-.9.32l-1.42-1.07a18.83,18.83,0,0,0-3.15-.39c-.15.16-.63-1.83-.63-1.83l-2.75-.77-2.88-1.89-2.08.4Z" transform="translate(-44.08 -57.37)" fill="#fff"/><path d="M201.09,103.28h1.52l2.16,1.14,4,1,.19.32-4-.06.74-.46-.59-.38-1.62,0,.2-.2-1.67-.85s-1.05-.25-1.09-.13l-.43.05Z" transform="translate(-44.08 -57.37)" fill="#fff"/><polygon points="160.14 48.38 159.77 48.02 159.16 48.05 159.41 48.38 160.14 48.38" fill="#fff"/><path d="M213.77,82.17h-.48l3.37,2,.53.58,3.31,1.9.65.83.53,1.83,1.77,1.42-.83.59,1.89,2.36h.65l.24-.94-1.42-3,2,1.1A22.78,22.78,0,0,0,213.77,82.17Z" transform="translate(-44.08 -57.37)" fill="#fff"/><path d="M227.61,93h-.51l-.85-1.12-.91,2.48s.56,2.89.6,3.07-.25.59-.25.59l.25,3.19.66,1.12.5,2.71,2.23,3.07,1.79-2.58.3.64A25.25,25.25,0,0,0,227.61,93Z" transform="translate(-44.08 -57.37)" fill="#fff"/><polygon points="170.28 27.39 169.69 27.39 169.69 28.11 170.28 28.46 170.81 28.46 170.81 27.92 170.28 27.39" fill="#fff"/><polygon points="173.88 28.82 174.77 29.76 175 30.55 175.89 31.41 176.24 30.88 176.89 31.41 176.89 30.82 176.42 30.12 173.88 28.82" fill="#fff"/><path d="M211.76,92.45a48.09,48.09,0,0,0-5.67,2.48,3.23,3.23,0,0,0-1.29,3l-2.49,1.41.59,2.71-.59.36-.94-2.25a22.84,22.84,0,0,0-4.69-.23c-1.38.23-1.69,3-1.69,3l.83,2.24,1.89.12.23-1.3,2,.12-1.3,2.48,2.36.36.23,1.74,2.37,1.8s.47.59,0,.82-11.69-6.49-12.75-8.14-2.42-6.2-1.36-9.39c.86-2.59,2.47-5,3-6.55h0s0,0,0-.06h0a.65.65,0,0,0,0-.13,1,1,0,0,0-.73-1.11c-.41-.12-1.18.35-1.18.35h-1.51l1.57-.89.65-.69.41-.37,1.54-.65-.06-.47A8.56,8.56,0,0,1,196.11,82l-1.12.85h1.18l.24,1.34h2.36s-.59-.15.83-.94,6-1.11,6-1.11l-1.42,2L207.27,86l-.35,1.29-2.12-.59V86l-1.31-.8-.12,1.39-.47.59-.59-.48-1.66,1.66,3,2.88.47-3.71,4.25.94Z" transform="translate(-44.08 -57.37)" fill="#fff"/></g><path d="M296.88,152.06c-1.44-.88-3.35-1.44-4.77-.52s-1.71,3.1-1.73,4.92c-2.49-1.43-6-.11-7.32,2.43a7.53,7.53,0,0,0,1.12,8.05,11.93,11.93,0,0,0,7.47,3.9c2.79.42,4.85-.15,6.43-2.52,1.13-1.69,2.69-2.48,3.89-4C304.92,160.57,300.07,154,296.88,152.06Z" transform="translate(-44.08 -57.37)" fill="#7cd178"/><path d="M287.09,152.65a1.93,1.93,0,0,0,.51-1.05c.95,1.88,2.15,3.57,3.25,5.36C290.47,156.62,286.83,152.91,287.09,152.65Z" transform="translate(-44.08 -57.37)" fill="#7cd178"/><path d="M288.43,151.6a12.89,12.89,0,0,1,.57-2.8,6.89,6.89,0,0,1,1.57,2.61,3.48,3.48,0,0,1-.58,2.87C288.86,155.77,288.39,152.27,288.43,151.6Z" transform="translate(-44.08 -57.37)" fill="#7cd178"/><path d="M285.26,159.35a.87.87,0,0,0-.48,1.33.83.83,0,1,0,.58-1.37Z" transform="translate(-44.08 -57.37)" fill="#fff"/><path d="M291.69,168.92a.67.67,0,0,0,.4-.06c.22-.15.16-.51,0-.69a1.53,1.53,0,0,0-.73-.26,5.34,5.34,0,0,1-3.79-3.22,7.58,7.58,0,0,0-.49-1.22c-.53-.89-1.77-1-2,.11-.2.83.82,2,1.3,2.56A8.08,8.08,0,0,0,291.69,168.92Z" transform="translate(-44.08 -57.37)" fill="#fff"/><path d="M267.47,78.89A11.69,11.69,0,1,0,279.16,67.2,11.69,11.69,0,0,0,267.47,78.89Zm9.74-8.66a1.66,1.66,0,0,1-1.19,0c.18.82-.62,1.54-1.38,2-1,.54-2.08.76-2.29-.11-.13-.53.26-1.28,1.27-2a2.43,2.43,0,0,1,1.94-.43c-.08-.49.36-1,1-1.25s1.45,0,1.62.48S277.93,70,277.21,70.23Zm5.68,4a1.63,1.63,0,1,1-.52-2.25A1.63,1.63,0,0,1,282.89,74.25Zm-5.47,13.33a1.25,1.25,0,1,1,1.24,1.25A1.25,1.25,0,0,1,277.42,87.58Zm-.33-4.29a1.44,1.44,0,0,1,1.43-1.43h.06a5.28,5.28,0,0,1,6.83-6,2.12,2.12,0,1,1,3.07,2.62A5.29,5.29,0,0,1,285.23,86a1.12,1.12,0,0,1,.14.55,1.08,1.08,0,0,1-2.16,0,.9.9,0,0,1,.07-.37,5.29,5.29,0,0,1-2.32-.78,5.47,5.47,0,0,1-1.33-1.2,1.41,1.41,0,0,1-1.11.54A1.43,1.43,0,0,1,277.09,83.29ZM274,75a1.07,1.07,0,0,1,1-1.16,1.1,1.1,0,0,1,.69.18,1.62,1.62,0,1,1,1.76,1.7,1.66,1.66,0,0,1-1.33-.51A1.07,1.07,0,0,1,274,75Zm-1.55,9.82a.81.81,0,1,1,.81.81A.81.81,0,0,1,272.4,84.78Zm-1.58-9.14a1.07,1.07,0,1,1,1.16,1A1.07,1.07,0,0,1,270.82,75.64Z" transform="translate(-44.08 -57.37)" fill="#6eb86a"/><path d="M267.47,78.89A11.69,11.69,0,1,0,279.16,67.2,11.69,11.69,0,0,0,267.47,78.89Zm9.74-8.66a1.66,1.66,0,0,1-1.19,0c.18.82-.62,1.54-1.38,2-1,.54-2.08.76-2.29-.11-.13-.53.26-1.28,1.27-2a2.43,2.43,0,0,1,1.94-.43c-.08-.49.36-1,1-1.25s1.45,0,1.62.48S277.93,70,277.21,70.23Zm5.68,4a1.63,1.63,0,1,1-.52-2.25A1.63,1.63,0,0,1,282.89,74.25Zm-5.47,13.33a1.25,1.25,0,1,1,1.24,1.25A1.25,1.25,0,0,1,277.42,87.58Zm-.33-4.29a1.44,1.44,0,0,1,1.43-1.43h.06a5.28,5.28,0,0,1,6.83-6,2.12,2.12,0,1,1,3.07,2.62A5.29,5.29,0,0,1,285.23,86a1.12,1.12,0,0,1,.14.55,1.08,1.08,0,0,1-2.16,0,.9.9,0,0,1,.07-.37,5.29,5.29,0,0,1-2.32-.78,5.47,5.47,0,0,1-1.33-1.2,1.41,1.41,0,0,1-1.11.54A1.43,1.43,0,0,1,277.09,83.29ZM274,75a1.07,1.07,0,0,1,1-1.16,1.1,1.1,0,0,1,.69.18,1.62,1.62,0,1,1,1.76,1.7,1.66,1.66,0,0,1-1.33-.51A1.07,1.07,0,0,1,274,75Zm-1.55,9.82a.81.81,0,1,1,.81.81A.81.81,0,0,1,272.4,84.78Zm-1.58-9.14a1.07,1.07,0,1,1,1.16,1A1.07,1.07,0,0,1,270.82,75.64Z" transform="translate(-44.08 -57.37)" fill="#6eb86a"/><path d="M272.4,84.78a.81.81,0,1,0,.81-.81A.81.81,0,0,0,272.4,84.78Z" transform="translate(-44.08 -57.37)" fill="#6eb86a"/><path d="M272.28,84.78a.93.93,0,1,1,.93.93A.93.93,0,0,1,272.28,84.78Z" transform="translate(-44.08 -57.37)" fill="#6eb86a"/><path d="M277.3,87.58A1.37,1.37,0,1,1,278.66,89,1.36,1.36,0,0,1,277.3,87.58Z" transform="translate(-44.08 -57.37)" fill="#6eb86a"/><path d="M280.58,74.86a1.75,1.75,0,0,1-.77-1.09,1.71,1.71,0,0,1,.22-1.32,1.75,1.75,0,1,1,1.87,2.63,1.74,1.74,0,0,1-.39,0A1.71,1.71,0,0,1,280.58,74.86Z" transform="translate(-44.08 -57.37)" fill="#6eb86a"/><path d="M274.25,75.78a1.19,1.19,0,0,1-.42-.81,1.17,1.17,0,0,1,.27-.86,1.16,1.16,0,0,1,.81-.42,1.23,1.23,0,0,1,.6.1,1.74,1.74,0,1,1,.58,1.59,1.19,1.19,0,0,1-1,.67H275A1.17,1.17,0,0,1,274.25,75.78Z" transform="translate(-44.08 -57.37)" fill="#6eb86a"/><path d="M270.71,75.65h0A1.18,1.18,0,1,1,272,76.73h-.1A1.18,1.18,0,0,1,270.71,75.65Zm.11,0Z" transform="translate(-44.08 -57.37)" fill="#6eb86a"/><g opacity="0.1"><path d="M272.87,83.1h0a.11.11,0,0,0,.08-.15c-.65-1.91-.14-5.74-.14-5.78a.11.11,0,0,0-.1-.13.11.11,0,0,0-.13.1c0,.16-.52,3.93.15,5.89A.11.11,0,0,0,272.87,83.1Z" transform="translate(-44.08 -57.37)" fill="#6eb86a"/></g><path d="M271.55,84.16a.11.11,0,0,0,.09,0,.12.12,0,0,0,0-.17,5.43,5.43,0,0,1-1.85-2.81.12.12,0,0,0-.15-.08.13.13,0,0,0-.08.15,5.78,5.78,0,0,0,1.93,2.93Z" transform="translate(-44.08 -57.37)" fill="#6eb86a" opacity="0.1"/><path d="M276.56,85.81a.12.12,0,0,0,.12-.12.13.13,0,0,0-.11-.12,6.46,6.46,0,0,1-1.68-.28.12.12,0,0,0-.14.08.12.12,0,0,0,.08.15,6.77,6.77,0,0,0,1.73.29Z" transform="translate(-44.08 -57.37)" fill="#6eb86a" opacity="0.1"/><path d="M272.36,87.84a.11.11,0,0,0,.11-.08l.4-1.47a.11.11,0,0,0-.08-.14.12.12,0,0,0-.15.08l-.4,1.47a.12.12,0,0,0,.09.14Z" transform="translate(-44.08 -57.37)" fill="#6eb86a" opacity="0.1"/><path d="M269.85,85.82h0a4.2,4.2,0,0,0,1.72-.46.11.11,0,0,0,.05-.15.12.12,0,0,0-.16,0,4.39,4.39,0,0,1-1.63.43.11.11,0,0,0-.11.12A.12.12,0,0,0,269.85,85.82Z" transform="translate(-44.08 -57.37)" fill="#6eb86a" opacity="0.1"/><path d="M274.32,83.59a.12.12,0,0,0,.1-.07c.46-1,2.17-4.36,2.19-4.4a.12.12,0,0,0-.05-.16.13.13,0,0,0-.16.05s-1.73,3.41-2.19,4.41a.11.11,0,0,0,.06.15Z" transform="translate(-44.08 -57.37)" fill="#6eb86a" opacity="0.1"/><path d="M276.54,88.91a.11.11,0,0,0,.1-.06.13.13,0,0,0,0-.16A7.1,7.1,0,0,1,274,86.11a.12.12,0,0,0-.16,0,.11.11,0,0,0,0,.16,7.3,7.3,0,0,0,2.64,2.68Z" transform="translate(-44.08 -57.37)" fill="#6eb86a" opacity="0.1"/><path d="M272.7,72.66a.84.84,0,0,1-.47-.6h0c-.15-.62.36-1.42,1.32-2.08a2.83,2.83,0,0,1,1.89-.49,1.51,1.51,0,0,1,1.12-1.21,1.94,1.94,0,0,1,1.09,0,1,1,0,0,1,.68.6c.19.57-.3,1.24-1.09,1.5a1.82,1.82,0,0,1-1.08,0c0,1-1.09,1.67-1.46,1.88a3.68,3.68,0,0,1-1.54.48A1.17,1.17,0,0,1,272.7,72.66Zm-.36-.62h0Z" transform="translate(-44.08 -57.37)" fill="#6eb86a"/><path d="M283.09,86.54a1.24,1.24,0,0,1,0-.27,5.37,5.37,0,0,1-2.22-.78,5.44,5.44,0,0,1-1.27-1.12,1.55,1.55,0,1,1-1.19-2.62,5.93,5.93,0,0,1-.06-.84,5.39,5.39,0,0,1,7-5.16,2.24,2.24,0,1,1,3.28,2.81,5.4,5.4,0,0,1-3.23,7.5,1.28,1.28,0,0,1,.09.48,1.2,1.2,0,0,1-2.4,0Z" transform="translate(-44.08 -57.37)" fill="#6eb86a"/><g opacity="0.1"><path d="M283.09,86.54a1.24,1.24,0,0,1,0-.27,5.37,5.37,0,0,1-2.22-.78,5.44,5.44,0,0,1-1.27-1.12,1.55,1.55,0,1,1-1.19-2.62,5.93,5.93,0,0,1-.06-.84,5.39,5.39,0,0,1,7-5.16,2.24,2.24,0,1,1,3.28,2.81,5.4,5.4,0,0,1-3.23,7.5,1.28,1.28,0,0,1,.09.48,1.2,1.2,0,0,1-2.4,0Z" transform="translate(-44.08 -57.37)" fill="#6eb86a"/></g><path d="M283.38,81.16a.65.65,0,0,1-.29-.43.68.68,0,0,1,.53-.81.7.7,0,0,1,.51.1.65.65,0,0,1,.29.43.68.68,0,0,1-.09.52.71.71,0,0,1-.44.29l-.14,0A.63.63,0,0,1,283.38,81.16Z" transform="translate(-44.08 -57.37)" fill="#6eb86a" opacity="0.1"/><g opacity="0.1"><path d="M272.4,84.72a.81.81,0,1,0,.81-.82A.81.81,0,0,0,272.4,84.72Z" transform="translate(-44.08 -57.37)"/><path d="M272.28,84.72a.93.93,0,1,1,.93.92A.93.93,0,0,1,272.28,84.72Z" transform="translate(-44.08 -57.37)"/><path d="M277.3,87.52a1.37,1.37,0,1,1,1.36,1.36A1.36,1.36,0,0,1,277.3,87.52Z" transform="translate(-44.08 -57.37)"/><path d="M280.58,74.8a1.75,1.75,0,0,1-.77-1.09,1.7,1.7,0,0,1,.22-1.32A1.75,1.75,0,1,1,281.9,75a1.72,1.72,0,0,1-.39,0A1.79,1.79,0,0,1,280.58,74.8Z" transform="translate(-44.08 -57.37)"/><path d="M274.25,75.72a1.22,1.22,0,0,1-.42-.81,1.2,1.2,0,0,1,.27-.87,1.18,1.18,0,0,1,1.41-.31,1.74,1.74,0,1,1,.58,1.58,1.2,1.2,0,0,1-1,.68H275A1.17,1.17,0,0,1,274.25,75.72Z" transform="translate(-44.08 -57.37)"/><path d="M270.71,75.58h0A1.18,1.18,0,1,1,272,76.67h-.1A1.19,1.19,0,0,1,270.71,75.58Zm.11,0Z" transform="translate(-44.08 -57.37)"/><path d="M272.7,72.59a.82.82,0,0,1-.47-.59h0c-.15-.63.36-1.42,1.32-2.08a2.72,2.72,0,0,1,1.89-.49,1.5,1.5,0,0,1,1.12-1.21,1.86,1.86,0,0,1,1.09,0,1,1,0,0,1,.68.6c.19.56-.3,1.24-1.09,1.5a1.91,1.91,0,0,1-1.08,0c0,1-1.09,1.67-1.46,1.88a3.68,3.68,0,0,1-1.54.48A1.18,1.18,0,0,1,272.7,72.59Zm-.36-.62h0Z" transform="translate(-44.08 -57.37)"/></g><polygon points="209.83 94.63 207.76 85.81 208.93 85.53 210.21 90.98 215.48 79.68 235.97 82.55 235.8 83.74 216.19 80.99 209.83 94.63" fill="#7cd178"/><path d="M219.66,145.55l-1.6,1.23,3.19,2.8-1.33,1-3.2-2.81L215,149.11l3.75,3.29-1.39,1-5.32-4.67,7.41-5.66,5.19,4.55-1.38,1.05Z" transform="translate(-44.08 -57.37)" fill="#6eb86a"/><path d="M224.25,154.49l4.67,4.1-1.28,1-4.68-4.1Zm2.62-2,4.67,4.1-1.29,1-4.67-4.1Z" transform="translate(-44.08 -57.37)" fill="#6eb86a"/><path d="M242.69,169.33a5.22,5.22,0,0,1-.64.58l-3.15,2.42L237.37,171l3-2.33a2.32,2.32,0,0,0,.39-.37,1,1,0,0,0-.11-1.54,1.84,1.84,0,0,0-2.55.11l-2.92,2.23-1.53-1.34,3-2.33a2.77,2.77,0,0,0,.39-.36,1,1,0,0,0-.12-1.55,1.85,1.85,0,0,0-2.57.12l-2.89,2.22L230,164.51l5.68-4.36,1.46,1.27-.6.45a3.22,3.22,0,0,1,2.21.83,2.31,2.31,0,0,1,.86,2.28,3.51,3.51,0,0,1,2.77.91A2.25,2.25,0,0,1,242.69,169.33Z" transform="translate(-44.08 -57.37)" fill="#6eb86a"/><path d="M242.46,171.4a4,4,0,0,1,5.91-.25,3.28,3.28,0,0,1,1.21,3.42l-1.87-.49a1.6,1.6,0,0,0-.55-1.75,2.11,2.11,0,0,0-3.08.35,1.47,1.47,0,0,0,.19,2.26,2,2,0,0,0,1.92.43l.5,1.7a3.91,3.91,0,0,1-3.62-.94C241.43,174.69,241.21,172.82,242.46,171.4Z" transform="translate(-44.08 -57.37)" fill="#6eb86a"/><path d="M251.8,176.5l1.8,1.59-.88.69-3.42-3,.7-.55,3.25.34c.77.07,1.09,0,1.31-.25s.16-.62-.28-1a1.7,1.7,0,0,0-1.33-.44l-.23-1.09a3.05,3.05,0,0,1,2.51.84c1,.85,1.15,1.85.55,2.54-.4.45-.82.66-2.29.51Z" transform="translate(-44.08 -57.37)" fill="#6eb86a"/><path d="M265.9,199.9l-12.84-8.15,27-14.09Zm-10.84-8.07,10.53,6.69,11.59-18.25Z" transform="translate(-44.08 -57.37)" fill="#7cd178"/><path d="M265.9,199.9l-5.69-3.61.24-.42a6.11,6.11,0,0,1,6.85-2.76,6.21,6.21,0,0,1,1.81.84l.4.27ZM261.58,196l4,2.54,2.54-4a5.53,5.53,0,0,0-1.1-.45A5.09,5.09,0,0,0,261.58,196Z" transform="translate(-44.08 -57.37)" fill="#7cd178"/><path d="M248.27,232.78a6.13,6.13,0,0,1-4.42-1.19,10.72,10.72,0,0,1-2.92-3.47,9.82,9.82,0,0,1-1.44-4.26,5.24,5.24,0,0,1,1.54-4.17,6,6,0,0,1,4.26-1.39,8,8,0,0,1,6.67,3.93,7.54,7.54,0,0,1,.41,6.33C251.63,230.49,250.63,232.42,248.27,232.78Z" transform="translate(-44.08 -57.37)" fill="#7cd178"/><path d="M252.78,209.74A12.49,12.49,0,0,1,264.3,222c0,2.13-.64,4.32,0,6.35.41,1.3,1.33,2.51,1.18,3.86-.21,1.78-2.1,2.78-3.74,3.48a13.51,13.51,0,0,1-4.85,1.37,4.63,4.63,0,0,1-4.28-2.18c-.39-.75-1.77-3.92-2.62-3.9s-3.55,1.85-4.55.3c-.61-1-1.19-.83-.25-1.44-1.43.13.16,3.21-1.21,2.4-3.86-2.27-5.25-8-5.5-9.93-.44-3.37,1.43-6.73,4.11-8.82A17.42,17.42,0,0,1,252.78,209.74Z" transform="translate(-44.08 -57.37)" fill="#407bff"/><path d="M252.78,209.74A12.49,12.49,0,0,1,264.3,222c0,2.13-.64,4.32,0,6.35.41,1.3,1.33,2.51,1.18,3.86-.21,1.78-2.1,2.78-3.74,3.48a13.51,13.51,0,0,1-4.85,1.37,4.63,4.63,0,0,1-4.28-2.18c-.39-.75-1.77-3.92-2.62-3.9s-3.55,1.85-4.55.3c-.61-1-1.19-.83-.25-1.44-1.43.13.16,3.21-1.21,2.4-3.86-2.27-5.25-8-5.5-9.93-.44-3.37,1.43-6.73,4.11-8.82A17.42,17.42,0,0,1,252.78,209.74Z" transform="translate(-44.08 -57.37)" fill="#c4f2c5"/><path d="M253.49,219.75a4.89,4.89,0,0,1-.53,3.94,4.1,4.1,0,0,1-3.21,2.24,3.39,3.39,0,0,1-3.12-2.1A4.42,4.42,0,0,1,247,220c.6-1,2-2.48,3.28-2.63S253.07,218.53,253.49,219.75Z" transform="translate(-44.08 -57.37)" fill="#7cd178"/><path d="M255.71,218.59a4.36,4.36,0,0,0,1.88,3,3.69,3.69,0,0,0,3.44.63,3,3,0,0,0,1.76-2.85,3.91,3.91,0,0,0-1.69-3,4.86,4.86,0,0,0-3.65-.93A3.11,3.11,0,0,0,255.71,218.59Z" transform="translate(-44.08 -57.37)" fill="#7cd178"/><path d="M258.37,223.64a1.85,1.85,0,0,1,.91.81,1.12,1.12,0,0,1-.85,1.42,1.66,1.66,0,0,1-1.63-.74,1.65,1.65,0,0,1-.46,1.13.9.9,0,0,1-1.14.12,1,1,0,0,1-.3-.92,3.28,3.28,0,0,1,.39-.93c.24-.4.75-1.78,1.22-1.87S258,223.44,258.37,223.64Z" transform="translate(-44.08 -57.37)" fill="#7cd178"/><path d="M263.08,228c-.06.32.33.79.28,1.12a6.76,6.76,0,0,1-1.27.87,38.48,38.48,0,0,1-7.94,2.7,3.64,3.64,0,0,0-1.79-1.92,2,2,0,0,1,2,1.42,29.39,29.39,0,0,0,8.58-3.19c-.12-.61-.41-1.69.57-1.85C263.49,227.18,263.23,227.16,263.08,228Z" transform="translate(-44.08 -57.37)" fill="#7cd178"/><polygon points="211.14 68.5 207.05 67.25 206.38 65.42 212.73 67.37 211.14 68.5" fill="#c4f2c5"/><path d="M266.81,110.58a8.75,8.75,0,0,1-4.7,5.33,5.72,5.72,0,0,0-3.16,3.48l-.19.64-7.26-2.24.19-.63a5.71,5.71,0,0,0-.63-4.66A8.7,8.7,0,0,1,261.5,99.81,8.78,8.78,0,0,1,266.81,110.58Z" transform="translate(-44.08 -57.37)" fill="#407bff"/><path d="M266.81,110.58a8.75,8.75,0,0,1-4.7,5.33,5.72,5.72,0,0,0-3.16,3.48l-.19.64-7.26-2.24.19-.63a5.71,5.71,0,0,0-.63-4.66A8.7,8.7,0,0,1,261.5,99.81,8.78,8.78,0,0,1,266.81,110.58Z" transform="translate(-44.08 -57.37)" fill="#c4f2c5"/><rect x="249.65" y="113.43" width="9.14" height="0.52" transform="translate(72.18 298.23) rotate(-84.4)" fill="#6eb86a"/><rect x="254.25" y="114.85" width="9.14" height="0.52" transform="translate(-10.3 229.77) rotate(-61.37)" fill="#6eb86a"/><polygon points="213.62 56.79 213.17 54.65 211.6 56.16 210.38 53.41 210.86 53.19 211.78 55.27 213.49 53.62 213.98 55.94 215.9 54.75 216.18 55.19 213.62 56.79" fill="#6eb86a"/><polygon points="214.75 62.43 213.37 66.92 206.1 64.7 207.48 60.22 214.75 62.43" fill="#7cd178"/><rect x="253.46" y="119.67" width="0.52" height="7.6" transform="translate(18.12 273.31) rotate(-73.2)" fill="#407bff"/><rect x="254.93" y="114.9" width="0.52" height="7.6" transform="translate(23.74 271.34) rotate(-73.21)" fill="#407bff"/><rect x="254.93" y="114.9" width="0.52" height="7.6" transform="translate(23.74 271.34) rotate(-73.21)" fill="#6eb86a"/><rect x="253.46" y="119.67" width="0.52" height="7.6" transform="translate(18.12 273.31) rotate(-73.2)" fill="#6eb86a"/><rect x="105.43" y="377.04" width="48.91" height="12.16" transform="translate(215.68 708.86) rotate(180)" fill="#7cd178"/><rect x="105.58" y="377.09" width="48.91" height="12.16" transform="translate(216 708.97) rotate(180)" fill="#fff" opacity="0.6" style="isolation:isolate"/><rect x="105.43" y="377.09" width="37.54" height="12.16" transform="translate(204.31 708.97) rotate(180)" fill="#fff" opacity="0.6" style="isolation:isolate"/><polygon points="61.59 330.28 110.26 331.79 110.2 330.55 61.56 329.92 61.59 330.28" fill="#7cd178"/><polygon points="110.26 324.65 61.66 321.92 61.66 322.33 110.26 325.58 110.26 324.65" fill="#7cd178"/><polygon points="110.26 320.98 61.66 322.09 61.66 322.49 110.26 321.9 110.26 320.98" fill="#7cd178"/><polygon points="110.39 327.04 61.79 329.41 61.79 329.05 110.39 326.23 110.39 327.04" fill="#7cd178"/><polygon points="61.47 319.82 110.06 319.86 110.06 320.26 61.47 320.26 61.47 319.82" fill="#7cd178"/><rect x="108.93" y="340.82" width="48.91" height="12.16" transform="translate(222.7 636.42) rotate(180)" fill="#7cd178"/><rect x="109.09" y="340.87" width="48.91" height="12.16" transform="translate(223.01 636.53) rotate(180)" fill="#fff" opacity="0.6" style="isolation:isolate"/><rect x="108.93" y="340.87" width="37.54" height="12.16" transform="translate(211.33 636.53) rotate(180)" fill="#fff" opacity="0.6" style="isolation:isolate"/><polygon points="65.09 294.06 113.77 295.57 113.71 294.34 65.07 293.7 65.09 294.06" fill="#7cd178"/><polygon points="113.77 288.43 65.17 285.7 65.17 286.11 113.77 289.36 113.77 288.43" fill="#7cd178"/><polygon points="113.77 284.76 65.17 285.87 65.17 286.27 113.77 285.69 113.77 284.76" fill="#7cd178"/><polygon points="113.9 290.82 65.3 293.19 65.3 292.83 113.9 290.01 113.9 290.82" fill="#7cd178"/><rect x="108.32" y="364.71" width="48.91" height="12.16" transform="translate(221.48 684.2) rotate(180)" fill="#7cd178"/><rect x="108.48" y="364.76" width="48.91" height="12.16" transform="translate(221.8 684.31) rotate(180)" fill="#fff" opacity="0.6" style="isolation:isolate"/><rect x="64.35" y="307.39" width="37.54" height="12.16" fill="#fff" opacity="0.6" style="isolation:isolate"/><polygon points="112.95 317.59 64.3 318.23 64.25 319.46 112.92 317.95 112.95 317.59" fill="#7cd178"/><polygon points="64.56 307.49 113.16 307.53 113.16 307.93 64.56 307.93 64.56 307.49" fill="#7cd178"/><polygon points="64.25 313.25 112.84 310 112.84 309.59 64.25 312.32 64.25 313.25" fill="#7cd178"/><polygon points="113.16 308.65 64.56 309.76 64.56 310.16 113.16 309.58 113.16 308.65" fill="#7cd178"/><polygon points="113.29 314.71 64.69 317.08 64.69 316.72 113.29 313.9 113.29 314.71" fill="#7cd178"/><polygon points="111.46 295.87 62.58 296.12 62.5 308.03 111.46 308.03 111.46 295.87" fill="#7cd178"/><rect x="106.63" y="353.24" width="48.91" height="12.16" transform="translate(218.1 661.27) rotate(180)" fill="#fff" opacity="0.6" style="isolation:isolate"/><rect x="62.5" y="295.87" width="37.54" height="12.16" fill="#fff" opacity="0.6" style="isolation:isolate"/><polygon points="101.52 296.12 62.58 296.12 62.58 297.35 100.68 297.35 101.52 296.12" fill="#7cd178"/><polygon points="111.18 301.1 62.58 301.55 62.58 301.91 111.18 301.91 111.18 301.1" fill="#7cd178"/><polygon points="62.58 306.72 111.18 304.36 111.18 304.71 62.58 307.53 62.58 306.72" fill="#7cd178"/><polygon points="62.58 302.15 111.18 303.12 111.18 303.47 62.58 302.96 62.58 302.15" fill="#7cd178"/><rect x="75.35" y="269.42" width="48.6" height="6.12" fill="#7cd178"/><rect x="75.35" y="269.42" width="48.6" height="6.12" fill="#fff" opacity="0.6" style="isolation:isolate"/><rect x="75.35" y="269.42" width="38.73" height="6.12" fill="#fff" opacity="0.6" style="isolation:isolate"/><polygon points="123.98 273.76 75.38 274 75.38 274.18 123.98 274.18 123.98 273.76" fill="#7cd178"/><polygon points="75.38 271.47 123.98 270.23 123.98 270.42 75.38 271.89 75.38 271.47" fill="#7cd178"/><polygon points="75.22 271.13 123.82 271.63 123.82 271.82 75.22 271.55 75.22 271.13" fill="#7cd178"/><rect x="68.55" y="266.72" width="48.6" height="2.95" fill="#7cd178"/><rect x="68.55" y="266.74" width="48.6" height="2.93" fill="#fff" opacity="0.6" style="isolation:isolate"/><rect x="68.55" y="266.56" width="38.73" height="3.11" fill="#fff" opacity="0.6" style="isolation:isolate"/><polygon points="68.58 268.97 117.17 267.73 117.17 267.92 68.58 269.39 68.58 268.97" fill="#7cd178"/><polygon points="68.58 267.49 117.17 267.99 117.17 268.17 68.58 267.9 68.58 267.49" fill="#7cd178"/><rect x="73.08" y="263.71" width="48.6" height="2.95" fill="#7cd178"/><rect x="73.08" y="263.73" width="48.6" height="2.93" fill="#fff" opacity="0.6" style="isolation:isolate"/><rect x="73.08" y="263.55" width="38.73" height="3.11" fill="#fff" opacity="0.6" style="isolation:isolate"/><polygon points="73.11 265.04 121.72 265.63 121.71 265.82 73.09 265.46 73.11 265.04" fill="#7cd178"/><polygon points="73.11 264.47 121.7 264.97 121.7 265.16 73.11 264.89 73.11 264.47" fill="#7cd178"/><rect x="72.07" y="275.54" width="48.6" height="7.89" fill="#7cd178"/><rect x="72.07" y="275.54" width="48.6" height="7.89" fill="#fff" opacity="0.6" style="isolation:isolate"/><rect x="72.07" y="275.54" width="37.5" height="7.89" fill="#fff" opacity="0.6" style="isolation:isolate"/><polygon points="120.35 277.99 71.76 277.71 71.76 277.5 120.35 277.5 120.35 277.99" fill="#7cd178"/><polygon points="72.09 279.14 120.69 280.56 120.69 280.35 72.09 278.65 72.09 279.14" fill="#7cd178"/><polygon points="120.69 275.55 74.85 275.55 75.87 276.52 120.69 276.52 120.69 275.55" fill="#7cd178"/><polygon points="72.26 282.21 120.86 281.62 120.86 281.42 72.26 281.72 72.26 282.21" fill="#7cd178"/><g id="_Group_" data-name="&lt;Group&gt;"><path d="M243.48,307.67c.08,3.33,0,6.44-.16,9.65s-.38,6.38-.69,9.58a112.06,112.06,0,0,1-3.52,19.32l-.8,2.46-.2.61-.05.16-.08.23-.25.66a10.37,10.37,0,0,1-1.22,2.15,12.24,12.24,0,0,1-2.82,2.79A18.78,18.78,0,0,1,230.9,357a38.05,38.05,0,0,1-10.21,3.11,87.8,87.8,0,0,1-19.43,1l-.34-6.38,4.43-.91c1.49-.3,3-.67,4.42-1,2.93-.7,5.82-1.45,8.56-2.35a33.17,33.17,0,0,0,7.26-3.15,4.23,4.23,0,0,0,1.52-1.39c0-.15-.25.51,0-.54l.5-2a127.74,127.74,0,0,0,2.22-17.44c.22-3,.36-6,.5-9s.18-6.09.22-9Z" transform="translate(-44.08 -57.37)" fill="#eec1bb"/><path d="M203.6,355.06l-7-5.06-2.12,10.65s6.91,3,8.89-.5Z" transform="translate(-44.08 -57.37)" fill="#eec1bb"/><polygon points="145.44 292.86 144.11 301.74 150.43 303.27 152.53 292.63 145.44 292.86" fill="#eec1bb"/><path d="M248.55,298.79c1.53,8-4.69,26.79-4.69,26.79L223.59,323c3.12-7.12,4.23-17.4,8.15-24.12C235.38,292.88,246.88,290.1,248.55,298.79Z" transform="translate(-44.08 -57.37)" fill="#467bfa"/><path d="M248.55,298.79c1.53,8-4.69,26.79-4.69,26.79L223.59,323c3.12-7.12,4.23-17.4,8.15-24.12C235.38,292.88,246.88,290.1,248.55,298.79Z" transform="translate(-44.08 -57.37)" opacity="0.5"/><path d="M277.47,293a4.86,4.86,0,0,1,4.18,5.44s0,.09,0,.14a200.87,200.87,0,0,0-2.07,23.5c-.21,6.63-.13,12.93.09,18.63.48,13.36,1.68,23.48,1.59,26.95l-44.67,3.78c-7.81-35.52-5.26-61.8-3.07-71.37a8.1,8.1,0,0,1,6.1-6.12c1.72-.38,3.77-.78,6-1.11.76-.07,1.54-.21,2.32-.3a168.48,168.48,0,0,1,19.33-.44c1.22,0,2.45.11,3.65.19C273.26,292.53,275.56,292.8,277.47,293Z" transform="translate(-44.08 -57.37)" fill="#407bff"/><path d="M277.47,293a4.86,4.86,0,0,1,4.18,5.44s0,.09,0,.14a200.87,200.87,0,0,0-2.07,23.5c-.21,6.63-.13,12.93.09,18.63.48,13.36,1.68,23.48,1.59,26.95l-44.67,3.78c-7.81-35.52-5.26-61.8-3.07-71.37a8.1,8.1,0,0,1,6.1-6.12c1.72-.38,3.77-.78,6-1.11.76-.07,1.54-.21,2.32-.3a168.48,168.48,0,0,1,19.33-.44c1.22,0,2.45.11,3.65.19C273.26,292.53,275.56,292.8,277.47,293Z" transform="translate(-44.08 -57.37)" opacity="0.5"/><path d="M264.86,270.47c-1.09,6.23-2.09,17.64,2.34,21.7-9.83,8-15.62,18.49-17.75,16.51-1.11-1-2.71-14.08-1.56-16.13,6.89-1.79,6.62-6.92,5.32-11.73Z" transform="translate(-44.08 -57.37)" fill="#eec1bb"/><path d="M260.13,274.69l-6.9,6.12a19.87,19.87,0,0,1,.66,3.42c2.64-.43,6.22-3.41,6.44-6.19A9.21,9.21,0,0,0,260.13,274.69Z" transform="translate(-44.08 -57.37)" opacity="0.2" style="isolation:isolate"/><path d="M241.6,254.77c-4.11.54-5.75,7.86-1,13.39S247.13,254,241.6,254.77Z" transform="translate(-44.08 -57.37)" fill="#263238"/><path d="M262.51,259.21c1.24,8.34,2.39,13.16-.87,18.26-4.9,7.68-15.87,6.08-19.59-1.72-3.33-7-4.82-19.49,2.56-24.47a11.5,11.5,0,0,1,17.9,7.93Z" transform="translate(-44.08 -57.37)" fill="#eec1bb"/><path d="M254.7,260.46a4.61,4.61,0,0,0,3.83,3.14,7.7,7.7,0,0,1,.62,5.78l3.07.4a4.87,4.87,0,0,1,4.49-4.93q-1.26,5-3,9.91a25.52,25.52,0,0,0,7.45-10.45,14.69,14.69,0,0,0,1.11-6.13,7.94,7.94,0,0,0-2.6-5.53c-2.09-1.76-5.14-2-7.77-1.28C257.26,252.65,252.66,255.07,254.7,260.46Z" transform="translate(-44.08 -57.37)" fill="#263238"/><path d="M268.21,265.73a8,8,0,0,1-2.78,5.44c-2.15,1.81-4.39.17-4.76-2.47-.33-2.37.39-6.17,3-7S268.4,263.13,268.21,265.73Z" transform="translate(-44.08 -57.37)" fill="#eec1bb"/><path d="M250.52,264.15c.14.67-.1,1.3-.54,1.39s-.91-.38-1.06-1.05.1-1.29.54-1.38S250.37,263.49,250.52,264.15Z" transform="translate(-44.08 -57.37)" fill="#263238"/><path d="M243,265.76c.14.67-.1,1.29-.54,1.39s-.91-.38-1-1,.1-1.29.53-1.38S242.79,265.09,243,265.76Z" transform="translate(-44.08 -57.37)" fill="#263238"/><path d="M245.42,265.59a24.36,24.36,0,0,1-2,6.41,4,4,0,0,0,3.34-.08Z" transform="translate(-44.08 -57.37)" fill="#e3827e"/><path d="M252.35,261.2a.4.4,0,0,1-.42-.06,3.21,3.21,0,0,0-2.8-.77.4.4,0,0,1-.52-.24s0-.05,0-.08a.4.4,0,0,1,.25-.49h0a4,4,0,0,1,3.54.94.4.4,0,0,1,.06.56h0A.53.53,0,0,1,252.35,261.2Z" transform="translate(-44.08 -57.37)" fill="#263238"/><path d="M250.56,274.31h0a6.17,6.17,0,0,0,4.06-4,.22.22,0,0,0-.15-.26.22.22,0,0,0-.27.16,5.84,5.84,0,0,1-3.76,3.68.22.22,0,0,0,.12.42Z" transform="translate(-44.08 -57.37)" fill="#263238"/><path d="M239.13,263.84a.29.29,0,0,1-.24,0,.39.39,0,0,1-.3-.48,4,4,0,0,1,2.35-2.82.39.39,0,0,1,.51.24h0a.4.4,0,0,1-.23.5h0a3.21,3.21,0,0,0-1.85,2.21A.36.36,0,0,1,239.13,263.84Z" transform="translate(-44.08 -57.37)" fill="#263238"/><path d="M186.34,325.66l10.39,33.52s10.29-3.24,14.79-.43a47.72,47.72,0,0,1,7.74,6.13l-7.18-36.47S202.53,317.13,186.34,325.66Z" transform="translate(-44.08 -57.37)" fill="#407bff"/><path d="M212.08,328.41l7.18,36.47s11.16-12.07,21.38-7l3.48,1.79-4.2-36.46S226.63,316.43,212.08,328.41Z" transform="translate(-44.08 -57.37)" fill="#407bff"/><path d="M212.08,328.41l7.18,36.47s11.16-12.07,21.38-7l3.48,1.79-4.2-36.46S226.63,316.43,212.08,328.41Z" transform="translate(-44.08 -57.37)" fill="#fff" opacity="0.8"/><path d="M186.34,325.66l10.39,33.52s10.29-3.24,14.79-.43a47.72,47.72,0,0,1,7.74,6.13l-7.18-36.47S202.53,317.13,186.34,325.66Z" transform="translate(-44.08 -57.37)" fill="#fff" opacity="0.8"/><path d="M219.24,364.52c-8.68-2.81-17.13-5.76-24.06.4-2.58-9.91-6.39-19.35-9.28-29.17-2.33-7.86-2.33-6.49,1.82-8.77,3.59-2,20.36-3.79,23.91,5.41C212.92,335.75,218.61,363.74,219.24,364.52Z" transform="translate(-44.08 -57.37)" fill="#263238"/><path d="M246.73,363c-5.13-4.48-13.2-4.24-18.54,0-2.27,1.8-5.45,3.06-5.44,2.83v0l-7.41-34.09-.3.22c1.52-5.14,9.4-7.64,14.39-7.79a22.67,22.67,0,0,1,12.4,3.95S245.61,353.11,246.73,363Z" transform="translate(-44.08 -57.37)" fill="#263238"/><path d="M222.75,365.82s-3,.93-4.17-1.52l-7.31-32.78s1.23,2.15,3.76.39l.3-.22,7.41,34.09A.1.1,0,0,0,222.75,365.82Z" transform="translate(-44.08 -57.37)" fill="#263238"/><path d="M222.75,365.82s-3,.93-4.17-1.52l-7.31-32.78s1.23,2.15,3.76.39l.3-.22,7.41,34.09A.1.1,0,0,0,222.75,365.82Z" transform="translate(-44.08 -57.37)" fill="#fff" opacity="0.1"/><path d="M275.24,297.54c-3.74-.55-5.3.8-7.89,5.92-2.4,4.73-3.72,18.35-3.72,18.35-.46,7.46-1.42,6.62,5.65,7.16,4.52.35,10.24,1.3,10.24,1.3S286.45,299.2,275.24,297.54Z" transform="translate(-44.08 -57.37)" opacity="0.1"/><path d="M285.69,304.61c.08,3.32,0,6.43-.16,9.65s-.38,6.37-.7,9.58a112.22,112.22,0,0,1-3.51,19.32l-.81,2.46-.2.61-.05.16-.08.23-.25.65a10,10,0,0,1-1.21,2.16,12.65,12.65,0,0,1-2.82,2.79,17.91,17.91,0,0,1-2.79,1.67A38.39,38.39,0,0,1,262.89,357a87.16,87.16,0,0,1-19.43,1l-.33-6.37,4.43-.91c1.48-.31,2.95-.67,4.42-1,2.92-.7,5.81-1.45,8.55-2.35a33.45,33.45,0,0,0,7.26-3.15,4.2,4.2,0,0,0,1.53-1.4c0-.15-.26.52,0-.53l.49-2a128.09,128.09,0,0,0,2.22-17.45c.23-3,.37-6,.51-9s.18-6.08.22-9Z" transform="translate(-44.08 -57.37)" fill="#eec1bb"/><path d="M245.81,352l-7-5.05-2.12,10.65s6.91,3,8.89-.5Z" transform="translate(-44.08 -57.37)" fill="#eec1bb"/><polygon points="187.65 289.79 186.32 298.68 192.63 300.21 194.74 289.56 187.65 289.79" fill="#eec1bb"/><path d="M285.89,298.41c4.76,6.57,3.19,28.73,3.19,28.73L267,325s-2.3-12.39,1-22.37C271.54,291.84,280.12,290.43,285.89,298.41Z" transform="translate(-44.08 -57.37)" fill="#467bfa"/><path d="M285.89,298.41c4.76,6.57,3.19,28.73,3.19,28.73L267,325s-2.3-12.39,1-22.37C271.54,291.84,280.12,290.43,285.89,298.41Z" transform="translate(-44.08 -57.37)" opacity="0.5"/><path d="M238.08,257.7a28.93,28.93,0,0,1-2.33-3.56c2.91.58,3.21-.91,4.4-5,1.35-4.61,6.58-7.57,9.35-8,19.22-3.12,20.31,7.79,20.5,9.57a3.31,3.31,0,0,1-2,3.1,9.77,9.77,0,0,1-3.84.7c-2.8.12-6.94,1.11-9.63.4C243.61,252.06,239.42,257.85,238.08,257.7Z" transform="translate(-44.08 -57.37)" fill="#263238"/></g><polygon points="179.51 343.46 192.54 350.26 198.8 353.53 196.1 360.5 189.91 358.25 174.8 352.75 179.51 343.46" fill="#eec1bb"/><polygon points="179.51 343.46 192.54 350.26 189.91 358.25 174.8 352.75 179.51 343.46" opacity="0.2" style="isolation:isolate"/><polygon points="157.53 361.95 143.55 366.5 136.84 368.69 133.75 361.88 139.69 359.04 154.19 352.09 157.53 361.95" fill="#eec1bb"/><polygon points="157.53 361.95 143.55 366.5 139.69 359.04 154.19 352.09 157.53 361.95" opacity="0.2" style="isolation:isolate"/><path d="M286.12,380.68a6.06,6.06,0,0,0-1.08-1.86c-4.54-5.43-21.24-5.32-31.39-4.25-4.63.49-10.64,2.81-17.16,6.12a12,12,0,0,0-3.68-3.64c-8.45-4.93-20-6.72-31.31-6.56,16.47-.53,35.07,1,35.07,1L281,367.8A35.49,35.49,0,0,1,286.12,380.68Z" transform="translate(-44.08 -57.37)" fill="#467bfa"/><path d="M286.12,380.68a6.06,6.06,0,0,0-1.08-1.86c-4.54-5.43-21.24-5.32-31.39-4.25-4.63.49-10.64,2.81-17.16,6.12a12,12,0,0,0-3.68-3.64c-8.45-4.93-20-6.72-31.31-6.56,16.47-.53,35.07,1,35.07,1L281,367.8A35.49,35.49,0,0,1,286.12,380.68Z" transform="translate(-44.08 -57.37)" fill="#6eb86a"/><path d="M238.93,399.22c-2.45,3.88-7.05,6-11.61,6.54s-9.17-.25-13.7-1.05l-11.81-2.09-19.25-3.41c-3.62-.65-7.33-1.31-10.55-3.11-10.37-5.76-12.47-12.25-7.09-17a19.32,19.32,0,0,1,6.08-3.43l.26-.11a87.79,87.79,0,0,1,19.08-4.34l.22,0a103,103,0,0,1,10.94-.74c11.34-.16,22.86,1.63,31.31,6.56a12,12,0,0,1,3.68,3.64C240.14,386,241.79,394.71,238.93,399.22Z" transform="translate(-44.08 -57.37)" fill="#407bff"/><path d="M238.93,399.22c-2.45,3.88-7.05,6-11.61,6.54s-9.17-.25-13.7-1.05l-11.81-2.09-19.25-3.41c-3.62-.65-7.33-1.31-10.55-3.11-10.37-5.76-12.47-12.25-7.09-17a19.32,19.32,0,0,1,6.08-3.43l.26-.11a87.79,87.79,0,0,1,19.08-4.34l.22,0a103,103,0,0,1,10.94-.74c11.34-.16,22.86,1.63,31.31,6.56a12,12,0,0,1,3.68,3.64C240.14,386,241.79,394.71,238.93,399.22Z" transform="translate(-44.08 -57.37)" fill="#6eb86a"/><path d="M168,377.18s-11.15,5.59-8.66,16.66c0,0,1.79,7.06,22.82,11.25s47.71,9,47.71,9l2.69-8.6s-27.67-23.89-48.59-29A27.74,27.74,0,0,0,168,377.18Z" transform="translate(-44.08 -57.37)" fill="#7cd178"/><polygon points="186.94 360.09 180.16 359.96 186.09 343.28 191.45 346.42 186.94 360.09" fill="#7cd178"/><g opacity="0.6" style="isolation:isolate"><polygon points="186.94 360.09 180.16 359.96 186.09 343.28 191.45 346.42 186.94 360.09" fill="#7cd178"/></g><path d="M239.1,407.15c.14.57,20.27,6,27.77,3.33C290.33,402.18,233.57,383.23,239.1,407.15Z" transform="translate(-44.08 -57.37)" fill="#6eb86a"/><path d="M239.1,407.15c.14.57,20.27,6,27.77,3.33C290.33,402.18,233.57,383.23,239.1,407.15Z" transform="translate(-44.08 -57.37)" fill="#6eb86a" opacity="0.1"/><path d="M285.36,394.23a31.19,31.19,0,0,1-2,4.82v0c-.15.26-.28.53-.43.78q-.57,1-1.2,1.92l-.08.12c-.2.28-.39.54-.6.81-6,7.73-21.71,10.77-25.42,5.77a27.15,27.15,0,0,1-3.5-7.62,273.62,273.62,0,0,1-39.34,16.61c-7,2.32-14.4,4.52-21.89,6.32l-4.53-9.5,1.79-1.4c2.5-2,7.46-5.78,13.68-10.27,9.94-7.17,23.12-16.08,34.68-21.93,6.52-3.31,12.53-5.63,17.16-6.12,10.15-1.07,26.85-1.18,31.39,4.25a6.06,6.06,0,0,1,1.08,1.86C287.44,384.06,287,389.29,285.36,394.23Z" transform="translate(-44.08 -57.37)" fill="#7cd178"/><polygon points="141.43 355.1 146.48 350.57 153.51 366.82 147.44 368.18 141.43 355.1" fill="#407bff"/><g opacity="0.6" style="isolation:isolate"><polygon points="141.43 355.1 146.48 350.57 153.51 366.82 147.44 368.18 141.43 355.1" fill="#fff"/></g><path d="M231.14,423.38a1.67,1.67,0,0,0,1.28.27,3.54,3.54,0,0,0,.64-.25,3.62,3.62,0,0,0,1.42-1.12l.34-.42a15.49,15.49,0,0,0,1.32-2,.18.18,0,0,0-.07-.23.28.28,0,0,0-.29,0l-.66.28L235,420h0l-.95.44c-1.37.67-3,1.61-3.15,2.34A.68.68,0,0,0,231.14,423.38Zm.21-.55a.73.73,0,0,1,.2-.35,13.27,13.27,0,0,1,3.17-1.92l.27-.12.38-.15c-.16.26-.33.5-.48.73a10,10,0,0,1-1.18,1.41,2.86,2.86,0,0,1-1.37.83,1.05,1.05,0,0,1-.87-.19A.23.23,0,0,1,231.35,422.83Z" transform="translate(-44.08 -57.37)" fill="#7cd178"/><path d="M229.5,419.4c.46.73,2.89,1.07,4.49,1a6.28,6.28,0,0,0,.82-.06h0a.11.11,0,0,0,.09,0,.22.22,0,0,0,.09-.1.2.2,0,0,0-.05-.2l0,0s0,0,0,0a7.25,7.25,0,0,0-3.71-1.88,2.15,2.15,0,0,0-1.39.38C229.31,418.87,229.36,419.19,229.5,419.4Zm.45-.18s-.12-.18.23-.43l.12-.08a1.63,1.63,0,0,1,.9-.19,6.28,6.28,0,0,1,3.08,1.5C232.75,420.12,230.29,419.75,230,419.22Z" transform="translate(-44.08 -57.37)" fill="#7cd178"/><path d="M235.84,416.73l6.68-7a1,1,0,0,1,1.1-.2l8.49,3.65a1.25,1.25,0,0,1,.62,1.89.58.58,0,0,1-.1.12c-8.91,12.3-14,15.71-15.23,16.95-3.61,3.51-6.57.77-5.79-.63,3.52-6.28,3.53-8.56,3.28-11.55A6,6,0,0,1,235.84,416.73Z" transform="translate(-44.08 -57.37)" fill="#263238"/><path d="M172.69,411.29a1.64,1.64,0,0,0-.65,1.14,4,4,0,0,0,0,.69,3.59,3.59,0,0,0,.65,1.69c.09.15.19.3.29.45a16.06,16.06,0,0,0,1.49,1.85.17.17,0,0,0,.24,0,.25.25,0,0,0,.09-.27c0-.1,0-.36-.06-.72,0-.05,0-.11,0-.17v0c0-.3-.07-.66-.13-1-.22-1.51-.61-3.38-1.27-3.71A.68.68,0,0,0,172.69,411.29Zm.46.37a.69.69,0,0,1,.27.29,13.43,13.43,0,0,1,.87,3.61c0,.1,0,.19,0,.28s0,.27,0,.42c-.2-.23-.38-.47-.55-.68a9.93,9.93,0,0,1-1-1.55,2.85,2.85,0,0,1-.38-1.56,1.05,1.05,0,0,1,.44-.77A.23.23,0,0,1,173.15,411.66Z" transform="translate(-44.08 -57.37)" fill="#7cd178"/><path d="M177,410.93c-.83.22-1.89,2.43-2.34,4a4.93,4.93,0,0,0-.18.8.06.06,0,0,0,0,0,.12.12,0,0,0,0,.1.21.21,0,0,0,.07.11.16.16,0,0,0,.2,0l0,0h0a7.21,7.21,0,0,0,2.92-3,2.14,2.14,0,0,0,.06-1.43C177.54,410.91,177.22,410.86,177,410.93Zm0,.48c.05,0,.21-.05.34.36l0,.13a1.62,1.62,0,0,1-.09.92,6.37,6.37,0,0,1-2.36,2.48C175.31,413.82,176.4,411.58,177,411.41Z" transform="translate(-44.08 -57.37)" fill="#7cd178"/><path d="M178,418.43l3.6,7a1,1,0,0,1-.13,1.11l-7.2,5.4a1.24,1.24,0,0,1-2,0,.6.6,0,0,1-.09-.13c-9-12.22-11.12-17.79-11.91-19.37-2.26-4.5,1.25-6.5,2.35-5.33,4.91,5.26,8.7,8.23,11.62,8.9C178.28,417.44,177.72,417.93,178,418.43Z" transform="translate(-44.08 -57.37)" fill="#263238"/><path d="M240.75,270h-.06a4.17,4.17,0,0,1-4.1-4.23,4.09,4.09,0,0,1,1.26-2.93,4.17,4.17,0,0,1,7.07,3.06h0A4.17,4.17,0,0,1,240.75,270Zm0-7.4a3.23,3.23,0,0,0-3.22,3.18,3.23,3.23,0,0,0,3.17,3.28h.05a3.23,3.23,0,0,0,.05-6.46Z" transform="translate(-44.08 -57.37)" fill="#263238"/><path d="M250.36,267.73h-.06a4.17,4.17,0,1,1,4.23-4.1h0A4.17,4.17,0,0,1,250.36,267.73Zm0-7.39a3.23,3.23,0,0,0-3.22,3.18,3.23,3.23,0,1,0,3.28-3.18Z" transform="translate(-44.08 -57.37)" fill="#263238"/><path d="M244.56,264.37l-.93-.18c0-.16.33-1.54,1.33-1.84.63-.19,1.31.09,2,.83l-.67.66c-.45-.46-.84-.67-1.09-.59S244.62,264.06,244.56,264.37Z" transform="translate(-44.08 -57.37)" fill="#263238"/><polygon points="210.03 206 209.82 205.08 219.31 202.82 221.14 203.23 220.94 204.15 219.31 203.79 210.03 206" fill="#263238"/><path d="M299.56,393.25v6.42a.62.62,0,0,0,0,1.23q3.68,0,7.34,0V392h-7.34A.62.62,0,0,0,299.56,393.25Z" transform="translate(-44.08 -57.37)" fill="#407bff"/><path d="M299.56,393.25v6.42a.62.62,0,0,0,0,1.23q3.68,0,7.34,0V392h-7.34A.62.62,0,0,0,299.56,393.25Z" transform="translate(-44.08 -57.37)" fill="#99e391"/><rect x="255.48" y="335.88" width="5.7" height="6.41" fill="#407bff"/><rect x="255.48" y="335.88" width="5.7" height="6.41" fill="#fff" opacity="0.6"/><path d="M304.07,392.63h31.49c1.36,0,2.46,1.72,2.46,3.83s-1.1,3.82-2.46,3.82H304.07Z" transform="translate(-44.08 -57.37)" fill="#407bff"/><path d="M304.07,392.63h31.49c1.36,0,2.46,1.72,2.46,3.83s-1.1,3.82-2.46,3.82H304.07Z" transform="translate(-44.08 -57.37)" fill="#fff" opacity="0.9"/><path d="M304.07,400.9c6.47,0,24.67.11,31.14,0,4.44-.08,4.68-8.58.33-8.88-3-.21-6.15,0-9.19,0H304.07a.62.62,0,0,0,0,1.23h30.12c1.42,0,2.44,0,3,1.69.47,1.45.32,4.41-1.62,4.73a5,5,0,0,1-.67,0H304.07a.62.62,0,0,0,0,1.23Z" transform="translate(-44.08 -57.37)" fill="#407bff"/><path d="M304.07,400.9c6.47,0,24.67.11,31.14,0,4.44-.08,4.68-8.58.33-8.88-3-.21-6.15,0-9.19,0H304.07a.62.62,0,0,0,0,1.23h30.12c1.42,0,2.44,0,3,1.69.47,1.45.32,4.41-1.62,4.73a5,5,0,0,1-.67,0H304.07a.62.62,0,0,0,0,1.23Z" transform="translate(-44.08 -57.37)" fill="#7cd178"/><path d="M300.66,401.91v5.95a.57.57,0,0,0,0,1.14l6.8,0v-8.25h-6.8A.57.57,0,0,0,300.66,401.91Z" transform="translate(-44.08 -57.37)" fill="#407bff"/><path d="M300.66,401.91v5.95a.57.57,0,0,0,0,1.14l6.8,0v-8.25h-6.8A.57.57,0,0,0,300.66,401.91Z" transform="translate(-44.08 -57.37)" fill="#83cf7d"/><rect x="256.58" y="344.55" width="5.28" height="5.94" fill="#407bff"/><rect x="256.58" y="344.55" width="5.28" height="5.94" fill="#fff" opacity="0.6"/><path d="M304.83,401.34H334c1.26,0,2.28,1.59,2.28,3.54s-1,3.55-2.28,3.55H304.83Z" transform="translate(-44.08 -57.37)" fill="#407bff"/><path d="M304.83,401.34H334c1.26,0,2.28,1.59,2.28,3.54s-1,3.55-2.28,3.55H304.83Z" transform="translate(-44.08 -57.37)" fill="#fff" opacity="0.9"/><path d="M304.83,409c6,0,22.85.1,28.84,0,4.11-.08,4.33-7.95.3-8.23-2.8-.19-5.69,0-8.51,0H304.83a.57.57,0,0,0,0,1.14h27.9c1.31,0,2.25,0,2.76,1.57.44,1.34.3,4.08-1.5,4.38a4.14,4.14,0,0,1-.61,0H304.83a.57.57,0,0,0,0,1.14Z" transform="translate(-44.08 -57.37)" fill="#6eb86a"/><path d="M297.27,410.25v7.07a.68.68,0,0,0,0,1.36l8.09,0v-9.82h-8.09A.68.68,0,0,0,297.27,410.25Z" transform="translate(-44.08 -57.37)" fill="#457a2b"/><path d="M297.27,410.25v7.07a.68.68,0,0,0,0,1.36l8.09,0v-9.82h-8.09A.68.68,0,0,0,297.27,410.25Z" transform="translate(-44.08 -57.37)" fill="#9be693"/><rect x="253.19" y="352.88" width="6.29" height="7.07" fill="#407bff"/><rect x="253.19" y="352.88" width="6.29" height="7.07" fill="#fff" opacity="0.6"/><path d="M302.23,409.57h34.71c1.5,0,2.71,1.89,2.71,4.21s-1.21,4.22-2.71,4.22H302.23Z" transform="translate(-44.08 -57.37)" fill="#407bff"/><path d="M302.23,409.57h34.71c1.5,0,2.71,1.89,2.71,4.21s-1.21,4.22-2.71,4.22H302.23Z" transform="translate(-44.08 -57.37)" fill="#fff" opacity="0.9"/><path d="M302.23,418.68c7.14,0,27.2.13,34.33,0,4.89-.09,5.15-9.46.36-9.79-3.35-.23-6.78,0-10.13,0H302.23a.68.68,0,0,0,0,1.36h33.2c1.57,0,2.69,0,3.29,1.86.53,1.6.36,4.86-1.78,5.21a4.57,4.57,0,0,1-.74,0h-34a.68.68,0,0,0,0,1.36Z" transform="translate(-44.08 -57.37)" fill="#407bff"/><path d="M302.23,418.68c7.14,0,27.2.13,34.33,0,4.89-.09,5.15-9.46.36-9.79-3.35-.23-6.78,0-10.13,0H302.23a.68.68,0,0,0,0,1.36h33.2c1.57,0,2.69,0,3.29,1.86.53,1.6.36,4.86-1.78,5.21a4.57,4.57,0,0,1-.74,0h-34a.68.68,0,0,0,0,1.36Z" transform="translate(-44.08 -57.37)" fill="#7cd178"/><polygon points="39.84 359.71 49.34 344.81 65.86 339.47 89.07 343.1 90.46 356.96 78.95 359.14 69.06 357.65 63.56 355.51 57.22 360.93 48.41 362.47 42.55 361.72 39.84 359.71" fill="#7cd178"/><polygon points="39.84 359.71 49.34 344.81 65.86 339.47 89.07 343.1 90.46 356.96 78.95 359.14 69.06 357.65 63.56 355.51 57.22 360.93 48.41 362.47 42.55 361.72 39.84 359.71" fill="#7cd178" opacity="0.1"/><polygon points="69.08 339.97 67.38 357 63.56 355.51 59.18 359.25 62.91 340.42 65.86 339.47 69.08 339.97" opacity="0.2"/><path d="M83.32,419.46s16.43,6.83,24.83-5c0,0,17.21,8.44,26.38-.1l-1.58-2.6s-4.46,7.3-25.5-.51c0,0-8.93,11.65-23.53,5.85Z" transform="translate(-44.08 -57.37)" fill="#407bff"/><path d="M83.32,419.46s16.43,6.83,24.83-5c0,0,17.21,8.44,26.38-.1l-1.58-2.6s-4.46,7.3-25.5-.51c0,0-8.93,11.65-23.53,5.85Z" transform="translate(-44.08 -57.37)" fill="#fff" opacity="0.8"/><polygon points="51.59 347.34 63.5 337.78 80.31 336.86 101.81 344.05 100.5 354.89 89.08 354.36 79.91 351.34 75.06 348.65 67.97 351.59 59.25 351.08 53.8 349.4 51.59 347.34" fill="#7cd178"/><polygon points="51.59 347.34 63.5 337.78 80.31 336.86 101.81 344.05 100.5 354.89 89.08 354.36 79.91 351.34 75.06 348.65 67.97 351.59 59.25 351.08 53.8 349.4 51.59 347.34" fill="#7cd178" opacity="0.1"/><polygon points="83.29 337.85 78.43 350.52 75.06 348.65 70.17 350.68 77.31 337.02 80.31 336.86 83.29 337.85" opacity="0.2"/><path d="M94.64,406.42s14.4,8.34,24.69.9c0,0,14.85,9.72,25.24,4.95l-1-2.29s-5.65,4.72-24.27-5.25a23.36,23.36,0,0,1-23.62,0Z" transform="translate(-44.08 -57.37)" fill="#407bff"/><path d="M94.64,406.42s14.4,8.34,24.69.9c0,0,14.85,9.72,25.24,4.95l-1-2.29s-5.65,4.72-24.27-5.25a23.36,23.36,0,0,1-23.62,0Z" transform="translate(-44.08 -57.37)" fill="#fff" opacity="0.8"/><path d="M235.13,375.78,287.81,378s-.95-6.45-1.64-6.62-9.34-7.63-19.43-4.08c-2.2.77-3.8,1.35-4.94,1.77-1.1-.52-2.64-1.23-4.78-2.19-9.76-4.38-19,2.31-19.71,2.43S235.13,375.78,235.13,375.78Z" transform="translate(-44.08 -57.37)" fill="#407bff"/><path d="M235.13,375.78,287.81,378l0-.16c-.15-1-1-6.3-1.62-6.46l-.11-.06c-1.23-.67-9.6-7.44-19.31-4-2.21.77-3.8,1.35-4.94,1.78-1.1-.53-2.64-1.24-4.77-2.2-9.76-4.38-19,2.31-19.72,2.43S235.13,375.78,235.13,375.78Z" transform="translate(-44.08 -57.37)" fill="#fff" opacity="0.6"/><path d="M229.11,375.52l53.32,2.26s-1-6.52-1.66-6.7-9.5-6.74-19.7-3.15c-2.23.78-5.1,4.05-5.1,4.05s-2.58-3.5-4.74-4.47c-9.88-4.44-19.2,1.36-19.91,1.47S229.11,375.52,229.11,375.52Z" transform="translate(-44.08 -57.37)" fill="#407bff"/><path d="M229.11,375.52l53.32,2.26s-1-6.52-1.66-6.7-9.5-6.74-19.7-3.15c-2.23.78-5.1,4.05-5.1,4.05s-2.58-3.5-4.74-4.47c-9.88-4.44-19.2,1.36-19.91,1.47S229.11,375.52,229.11,375.52Z" transform="translate(-44.08 -57.37)" fill="#fff" opacity="0.8"/><polygon points="211.58 316.38 213.14 319.52 209.13 319.35 211.58 316.38" fill="#407bff"/><g opacity="0.3"><polygon points="211.58 316.38 213.14 319.52 209.13 319.35 211.58 316.38"/></g><path d="M280.84,371.11a11.85,11.85,0,0,1,.75,2.32c.42,2,.84,4.35.84,4.35l5.38.23,0-.16c-.15-1-1-6.3-1.62-6.46l-.11-.06Z" transform="translate(-44.08 -57.37)" opacity="0.1"/><path d="M227,377.41l26.12,1.72.06-.05a2.92,2.92,0,0,1,3.88.16l.06.06,26.94.78,6.8.21-.41-2.35-33.21-1.41a2.94,2.94,0,0,0-2-.87,2.89,2.89,0,0,0-2,.7l-25.48-1.12Z" transform="translate(-44.08 -57.37)" fill="#263238"/><g opacity="0.3"><polygon points="239.55 320.28 239.98 322.71 246.78 322.92 246.36 320.57 239.55 320.28"/></g><path d="M253.4,372.22s-3.9-4.89-8.91-4.22C244.49,368,248,367.71,253.4,372.22Z" transform="translate(-44.08 -57.37)" fill="#407bff"/><path d="M253.4,372.22s-3.9-4.89-8.91-4.22C244.49,368,248,367.71,253.4,372.22Z" transform="translate(-44.08 -57.37)" fill="#fff" opacity="0.4"/><path d="M263.08,374.8s5.61-2.75,9.86,0C272.94,374.79,269.89,373,263.08,374.8Z" transform="translate(-44.08 -57.37)" fill="#407bff"/><path d="M263.08,374.8s5.61-2.75,9.86,0C272.94,374.79,269.89,373,263.08,374.8Z" transform="translate(-44.08 -57.37)" fill="#fff" opacity="0.4"/><path d="M258,373s4.58-4.26,9.44-2.87C267.39,370.1,264,369.3,258,373Z" transform="translate(-44.08 -57.37)" fill="#407bff"/><path d="M258,373s4.58-4.26,9.44-2.87C267.39,370.1,264,369.3,258,373Z" transform="translate(-44.08 -57.37)" fill="#fff" opacity="0.4"/><path d="M246.87,371.87s-5.34-3.24-9.82-.9C237.05,371,240.24,369.5,246.87,371.87Z" transform="translate(-44.08 -57.37)" fill="#407bff"/><path d="M246.87,371.87s-5.34-3.24-9.82-.9C237.05,371,240.24,369.5,246.87,371.87Z" transform="translate(-44.08 -57.37)" fill="#fff" opacity="0.4"/><path d="M315.83,371.13a27.21,27.21,0,0,1-5.2.51,26.64,26.64,0,0,1-19-7.81l-.77.78a27.76,27.76,0,0,0,19.78,8.13,28.43,28.43,0,0,0,5.47-.55,1.19,1.19,0,0,1-.32-.85A.71.71,0,0,1,315.83,371.13Z" transform="translate(-44.08 -57.37)" fill="#6eb86a"/><rect x="313.78" y="370.3" width="5.31" height="15.35" transform="translate(-45.13 -56.49) rotate(-0.16)" fill="#407bff"/><rect x="313.78" y="370.3" width="5.31" height="15.35" transform="translate(-45.13 -56.49) rotate(-0.16)" fill="#6eb86a"/><path d="M300.31,392c0-4,7.2-7.27,16.11-7.3s16.14,3.2,16.15,7.21h0a60.53,60.53,0,0,1-31.86.2Z" transform="translate(-44.08 -57.37)" fill="#7cd178"/><rect x="284.98" y="345.6" width="54.64" height="1.1" transform="translate(-197.51 267.78) rotate(-45.36)" fill="#6eb86a"/><path d="M338.5,344.72A27.8,27.8,0,0,0,330.26,325l-.77.78a26.86,26.86,0,0,1-13.66,45.37.71.71,0,0,0,0,.21,1.19,1.19,0,0,0,.32.85,28,28,0,0,0,22.39-27.47Z" transform="translate(-44.08 -57.37)" fill="#6eb86a"/><path d="M326.82,360a19.9,19.9,0,1,1-.5-28.13A19.9,19.9,0,0,1,326.82,360Z" transform="translate(-44.08 -57.37)" fill="#7cd178"/><path d="M320,353.41l-.64-.62c4.58-4.74,8.3-13.41,6.55-20.81l.87-.2C328.62,339.48,324.77,348.49,320,353.41Z" transform="translate(-44.08 -57.37)" fill="#6eb86a"/><path d="M299.06,360.5l.18-.88c7.45,1.5,16-2.53,20.56-7.27l.64.62C315.7,357.89,306.83,362.06,299.06,360.5Z" transform="translate(-44.08 -57.37)" fill="#6eb86a"/><path d="M305.72,339.59l-.65-.62c4.75-4.92,13.62-9.08,21.38-7.53l-.17.88C318.83,330.83,310.29,334.85,305.72,339.59Z" transform="translate(-44.08 -57.37)" fill="#6eb86a"/><path d="M298.72,360.16c-1.83-7.7,2-16.71,6.77-21.63l.65.62c-4.58,4.75-8.3,13.41-6.55,20.81Z" transform="translate(-44.08 -57.37)" fill="#6eb86a"/><rect x="292.66" y="345.74" width="39.78" height="0.9" transform="translate(-197.67 273.2) rotate(-46)" fill="#6eb86a"/><rect x="319.46" y="321.73" width="0.9" height="33.68" transform="translate(-189.94 276.16) rotate(-46)" fill="#6eb86a"/><rect x="311.87" y="326.55" width="0.9" height="39.77" transform="translate(-197.92 273.1) rotate(-46)" fill="#6eb86a"/><rect x="304.28" y="337.9" width="0.9" height="32.79" transform="translate(-205.89 270.04) rotate(-46)" fill="#6eb86a"/><g opacity="0.2"><path d="M320,353.41l-.64-.62c4.58-4.74,8.3-13.41,6.55-20.81l.87-.2C328.62,339.48,324.77,348.49,320,353.41Z" transform="translate(-44.08 -57.37)" fill="#6eb86a"/><path d="M299.06,360.5l.18-.88c7.45,1.5,16-2.53,20.56-7.27l.64.62C315.7,357.89,306.83,362.06,299.06,360.5Z" transform="translate(-44.08 -57.37)" fill="#6eb86a"/><path d="M305.72,339.59l-.65-.62c4.75-4.92,13.62-9.08,21.38-7.53l-.17.88C318.83,330.83,310.29,334.85,305.72,339.59Z" transform="translate(-44.08 -57.37)" fill="#6eb86a"/><path d="M298.72,360.16c-1.83-7.7,2-16.71,6.77-21.63l.65.62c-4.58,4.75-8.3,13.41-6.55,20.81Z" transform="translate(-44.08 -57.37)" fill="#6eb86a"/><rect x="292.66" y="345.74" width="39.78" height="0.9" transform="translate(-197.67 273.2) rotate(-46)" fill="#6eb86a"/><rect x="319.46" y="321.73" width="0.9" height="33.68" transform="translate(-189.94 276.16) rotate(-46)" fill="#6eb86a"/><rect x="311.87" y="326.55" width="0.9" height="39.77" transform="translate(-197.92 273.1) rotate(-46)" fill="#6eb86a"/><rect x="304.28" y="337.9" width="0.9" height="32.79" transform="translate(-205.89 270.04) rotate(-46)" fill="#6eb86a"/></g></svg>